<?xml version="1.0" encoding="UTF-8"?>
<!DOCTYPE svg PUBLIC "-//W3C//DTD SVG 1.0//EN" "http://www.w3.org/TR/2001/REC-SVG-20010904/DTD/svg10.dtd">
<!-- Creator: CorelDRAW 2019 (64-Bit) -->
<svg xmlns="http://www.w3.org/2000/svg" xml:space="preserve" width="67.1602mm" height="6.9042mm" version="1.0" style="shape-rendering:geometricPrecision; text-rendering:geometricPrecision; image-rendering:optimizeQuality; fill-rule:evenodd; clip-rule:evenodd"
viewBox="0 0 3424.87 352.08"
 xmlns:xlink="http://www.w3.org/1999/xlink">
 <defs>
  <style type="text/css">
   <![CDATA[
    .fil0 {fill:#28B0DE;fill-rule:nonzero}
   ]]>
  </style>
 </defs>
 <g id="Слой_x0020_1">
  <metadata id="CorelCorpID_0Corel-Layer"/>
  <path class="fil0" d="M142.9 152.92l-0.76 2.83c9.8,1.93 20.23,6.9 31.14,14.98 10.97,8.01 16.43,20.85 16.43,38.52 0,5.1 -0.56,10.08 -1.59,14.84 -3.59,18.09 -10.63,33.9 -21.19,47.57 -10.49,13.67 -23.54,24.16 -39.07,31.62 -15.53,7.38 -32.31,11.11 -50.4,11.11 -15.4,0 -28.85,-2.27 -40.52,-6.9 -11.67,-4.63 -20.78,-11.67 -27.2,-21.06 -6.49,-9.39 -9.74,-20.92 -9.74,-34.52 0,-5.18 0.69,-11.67 2,-19.54 3.52,-17.47 12.42,-33.27 26.72,-47.43 14.29,-14.15 30.37,-23.33 48.32,-27.48l0.35 -2.97c-7.18,-1.59 -14.98,-6.01 -23.41,-13.25 -8.35,-7.18 -12.56,-17.68 -12.56,-31.48 0,-3.52 0.41,-7.39 1.24,-11.6 2.14,-10.36 6.22,-19.68 12.15,-27.89 6.01,-8.14 13.33,-15.12 22.02,-20.78 8.77,-5.66 18.16,-9.87 28.1,-12.63 10.01,-2.76 19.88,-4.14 29.62,-4.14 11.67,0 21.68,1.04 29.96,3.18 8.29,2.14 15.74,6.14 22.23,12.08 10.29,9.32 15.4,20.22 15.4,32.79 0,3.11 -0.55,7.53 -1.72,13.25 -1.73,8.91 -5.46,17.4 -11.12,25.54 -5.66,8.15 -12.57,15.12 -20.71,20.99 -8.14,5.86 -16.71,9.94 -25.68,12.36zm-11.12 -107.35c-14.43,0 -27.2,6.21 -38.18,18.64 -8.35,9.25 -14.15,22.16 -17.39,38.52 -0.62,4.35 -0.9,7.39 -0.9,9.11 0,10.22 2.62,19.05 7.87,26.51 5.52,8.01 15.05,12.01 28.65,12.01 14.64,0 27.48,-6.35 38.52,-18.99 7.39,-8.08 12.63,-20.09 15.74,-36.18 0.83,-3.93 1.31,-7.93 1.31,-12.01 0,-10.98 -3.04,-20.02 -9.11,-27.06 -6.07,-7.04 -14.91,-10.56 -26.51,-10.56zm-22.85 118.05c-11.87,0 -22.78,3.24 -32.72,9.81 -9.87,6.56 -18.09,15.12 -24.51,25.61 -6.49,10.56 -10.7,21.54 -12.84,32.93 -1.32,5.86 -2,12.77 -2,20.71 0,14.64 3.73,26.44 11.12,35.42 7.46,8.98 18.91,13.46 34.45,13.46 18.15,0 33.14,-7.18 44.94,-21.61 11.81,-14.43 19.61,-31.27 23.47,-50.47 1.31,-7.32 2,-13.8 2,-19.46 0,-14.08 -3.59,-25.34 -10.7,-33.76 -7.11,-8.42 -18.15,-12.64 -33.21,-12.64zm443.97 -163.61l6.97 7.87c-15.25,16.64 -28.16,34.17 -38.73,52.47 -10.57,18.29 -19.26,37.28 -25.96,56.95 -6.77,19.68 -12.22,40.66 -16.36,62.89 -4.49,21.89 -6.7,44.67 -6.7,68.35 0,8.28 0.14,14.49 0.41,18.64 0.9,13.12 2.97,25.2 6.28,36.1 3.31,10.97 8.49,24.51 15.67,40.53l-9.94 8.28c-12.77,-19.05 -22.23,-38.11 -28.24,-57.09 -6.01,-19.05 -9.05,-39.35 -9.05,-61.03 0,-17.81 2.08,-37.83 6.28,-59.92 4.15,-21.95 10.63,-43.21 19.47,-63.58 8.77,-20.43 19.88,-39.97 33.21,-58.47 13.39,-18.57 28.92,-35.9 46.67,-51.98zm142.49 152.92l-0.76 2.83c9.8,1.93 20.23,6.9 31.14,14.98 10.97,8.01 16.43,20.85 16.43,38.52 0,5.1 -0.56,10.08 -1.59,14.84 -3.59,18.09 -10.63,33.9 -21.19,47.57 -10.49,13.67 -23.54,24.16 -39.07,31.62 -15.53,7.38 -32.31,11.11 -50.4,11.11 -15.4,0 -28.85,-2.27 -40.52,-6.9 -11.67,-4.63 -20.78,-11.67 -27.2,-21.06 -6.49,-9.39 -9.74,-20.92 -9.74,-34.52 0,-5.18 0.69,-11.67 2,-19.54 3.52,-17.47 12.42,-33.27 26.72,-47.43 14.29,-14.15 30.37,-23.33 48.32,-27.48l0.35 -2.97c-7.18,-1.59 -14.98,-6.01 -23.41,-13.25 -8.35,-7.18 -12.56,-17.68 -12.56,-31.48 0,-3.52 0.41,-7.39 1.24,-11.6 2.14,-10.36 6.22,-19.68 12.15,-27.89 6.01,-8.14 13.33,-15.12 22.02,-20.78 8.77,-5.66 18.16,-9.87 28.1,-12.63 10.01,-2.76 19.88,-4.14 29.62,-4.14 11.67,0 21.68,1.04 29.96,3.18 8.29,2.14 15.74,6.14 22.23,12.08 10.29,9.32 15.4,20.22 15.4,32.79 0,3.11 -0.55,7.53 -1.72,13.25 -1.73,8.91 -5.46,17.4 -11.12,25.54 -5.66,8.15 -12.57,15.12 -20.71,20.99 -8.14,5.86 -16.71,9.94 -25.68,12.36zm-11.12 -107.35c-14.43,0 -27.2,6.21 -38.18,18.64 -8.35,9.25 -14.15,22.16 -17.39,38.52 -0.62,4.35 -0.9,7.39 -0.9,9.11 0,10.22 2.62,19.05 7.87,26.51 5.52,8.01 15.05,12.01 28.65,12.01 14.64,0 27.48,-6.35 38.52,-18.99 7.39,-8.08 12.63,-20.09 15.74,-36.18 0.83,-3.93 1.31,-7.93 1.31,-12.01 0,-10.98 -3.04,-20.02 -9.11,-27.06 -6.07,-7.04 -14.91,-10.56 -26.51,-10.56zm-22.85 118.05c-11.87,0 -22.78,3.24 -32.72,9.81 -9.87,6.56 -18.09,15.12 -24.51,25.61 -6.49,10.56 -10.7,21.54 -12.84,32.93 -1.32,5.86 -2,12.77 -2,20.71 0,14.64 3.73,26.44 11.12,35.42 7.46,8.98 18.91,13.46 34.45,13.46 18.15,0 33.14,-7.18 44.94,-21.61 11.81,-14.43 19.61,-31.27 23.47,-50.47 1.31,-7.32 2,-13.8 2,-19.46 0,-14.08 -3.59,-25.34 -10.7,-33.76 -7.11,-8.42 -18.15,-12.64 -33.21,-12.64zm203.73 137.93c10.97,0 20.98,-3.03 30.03,-9.04 9.04,-6.07 17.05,-14.7 24.1,-26.03 7.04,-11.32 13.25,-25.06 18.64,-41.21 5.39,-16.15 10.01,-34.38 13.74,-54.61 4.21,-22.23 6.28,-41.01 6.28,-56.33 0,-45.84 -14.08,-68.76 -42.25,-68.76 -13.12,0.48 -24.51,3.52 -34.11,9.18 -9.6,5.59 -17.88,13.67 -24.72,24.17 -6.9,10.56 -12.77,23.47 -17.67,38.73 -4.97,15.26 -9.39,33.21 -13.39,53.85 -5.25,28.65 -7.87,50.6 -7.87,65.86 0,42.81 15.74,64.2 47.22,64.2zm-74.9 -121.36c4.9,-25.54 12.28,-49.29 22.16,-71.17 9.81,-21.95 23.61,-40.11 41.42,-54.61 17.74,-14.43 39.49,-21.68 65.24,-21.68 24.57,0 42.8,6.97 54.82,20.92 12.01,13.88 18.02,34.52 18.02,61.92 0,16.16 -2.07,34.52 -6.14,55.09 -5.66,29.48 -14.64,55.09 -26.85,76.83 -12.15,21.75 -26.65,38.32 -43.42,49.78 -16.71,11.39 -34.59,17.12 -53.64,17.12 -27.2,0 -46.94,-7.25 -59.17,-21.81 -12.22,-14.5 -18.29,-34.87 -18.29,-61.03 0,-15.26 1.93,-32.38 5.87,-51.36zm305.14 121.36c10.97,0 20.98,-3.03 30.03,-9.04 9.04,-6.07 17.05,-14.7 24.1,-26.03 7.04,-11.32 13.25,-25.06 18.64,-41.21 5.39,-16.15 10.01,-34.38 13.74,-54.61 4.21,-22.23 6.28,-41.01 6.28,-56.33 0,-45.84 -14.08,-68.76 -42.25,-68.76 -13.12,0.48 -24.51,3.52 -34.11,9.18 -9.6,5.59 -17.88,13.67 -24.72,24.17 -6.9,10.56 -12.77,23.47 -17.67,38.73 -4.97,15.26 -9.39,33.21 -13.39,53.85 -5.25,28.65 -7.87,50.6 -7.87,65.86 0,42.81 15.74,64.2 47.22,64.2zm-74.9 -121.36c4.9,-25.54 12.28,-49.29 22.16,-71.17 9.81,-21.95 23.61,-40.11 41.42,-54.61 17.74,-14.43 39.49,-21.68 65.24,-21.68 24.57,0 42.8,6.97 54.82,20.92 12.01,13.88 18.02,34.52 18.02,61.92 0,16.16 -2.07,34.52 -6.14,55.09 -5.66,29.48 -14.64,55.09 -26.85,76.83 -12.15,21.75 -26.65,38.32 -43.42,49.78 -16.71,11.39 -34.59,17.12 -53.64,17.12 -27.2,0 -46.94,-7.25 -59.17,-21.81 -12.22,-14.5 -18.29,-34.87 -18.29,-61.03 0,-15.26 1.93,-32.38 5.87,-51.36zm202 171.9l-6.56 -8.28c13.74,-16.71 24.37,-30.45 31.89,-41.29 7.59,-10.84 14.22,-22.64 19.88,-35.35 5.94,-13.19 11.39,-27.34 16.16,-42.46 4.76,-15.19 8.63,-30.03 11.52,-44.53 5.52,-29.13 8.29,-54.4 8.29,-75.8 0,-17.88 -1.8,-34.79 -5.31,-50.81 -3.52,-15.95 -9.18,-31.2 -17.05,-45.7l9.53 -7.87c24.86,34.24 37.28,74.7 37.28,121.36 0,16.84 -1.66,34.38 -4.97,52.67 -4.63,23.96 -11.12,46.12 -19.47,66.35 -8.35,20.3 -19.19,39.49 -32.45,57.65 -13.32,18.23 -29.55,36.24 -48.74,54.06zm385.63 -181.77l26.1 -136.35 2.97 -1.24 132.82 0 0.97 3.31c-4.91,11.52 -7.66,21.67 -8.35,30.31 -18.85,-4.49 -37.07,-6.7 -54.68,-6.7l-61.31 0 -17.74 92.37c14.57,-6.63 29.96,-9.94 46.25,-9.94 20.02,0 36.18,5.67 48.6,17.05 12.36,11.32 18.57,26.37 18.57,45.15 0,5.87 -0.56,11.32 -1.59,16.5 -3.31,16.16 -10.56,31.41 -21.68,45.77 -11.11,14.36 -25.41,25.96 -42.8,34.72 -17.33,8.77 -36.38,13.12 -57.02,13.12 -26.58,0 -47.71,-5.38 -63.31,-16.22l11.53 -27.27 2.97 -0.41c4.14,9.73 11.25,17.19 21.19,22.37 9.94,5.25 20.98,7.87 33.07,7.87 19.47,0 36.04,-7.46 49.78,-22.3 13.74,-14.84 22.71,-33 26.79,-54.33 1.45,-8.08 2.14,-14.98 2.14,-20.71 0,-29.27 -16.16,-43.91 -48.46,-43.91 -16.43,0 -31.07,4.55 -43.84,13.67l-2.97 -2.83zm270 131.24c10.97,0 20.98,-3.03 30.03,-9.04 9.04,-6.07 17.05,-14.7 24.1,-26.03 7.04,-11.32 13.25,-25.06 18.64,-41.21 5.39,-16.15 10.01,-34.38 13.74,-54.61 4.21,-22.23 6.28,-41.01 6.28,-56.33 0,-45.84 -14.08,-68.76 -42.25,-68.76 -13.12,0.48 -24.51,3.52 -34.11,9.18 -9.6,5.59 -17.88,13.67 -24.72,24.17 -6.9,10.56 -12.77,23.47 -17.67,38.73 -4.97,15.26 -9.39,33.21 -13.39,53.85 -5.25,28.65 -7.87,50.6 -7.87,65.86 0,42.81 15.74,64.2 47.22,64.2zm-74.9 -121.36c4.9,-25.54 12.28,-49.29 22.16,-71.17 9.81,-21.95 23.61,-40.11 41.42,-54.61 17.74,-14.43 39.49,-21.68 65.24,-21.68 24.57,0 42.8,6.97 54.82,20.92 12.01,13.88 18.02,34.52 18.02,61.92 0,16.16 -2.07,34.52 -6.14,55.09 -5.66,29.48 -14.64,55.09 -26.85,76.83 -12.15,21.75 -26.65,38.32 -43.42,49.78 -16.71,11.39 -34.59,17.12 -53.64,17.12 -27.2,0 -46.94,-7.25 -59.17,-21.81 -12.22,-14.5 -18.29,-34.87 -18.29,-61.03 0,-15.26 1.93,-32.38 5.87,-51.36zm265.37 -9.87l26.1 -136.35 2.97 -1.24 132.82 0 0.97 3.31c-4.91,11.52 -7.66,21.67 -8.35,30.31 -18.85,-4.49 -37.07,-6.7 -54.68,-6.7l-61.31 0 -17.74 92.37c14.57,-6.63 29.96,-9.94 46.25,-9.94 20.02,0 36.18,5.67 48.6,17.05 12.36,11.32 18.57,26.37 18.57,45.15 0,5.87 -0.56,11.32 -1.59,16.5 -3.31,16.16 -10.56,31.41 -21.68,45.77 -11.11,14.36 -25.41,25.96 -42.8,34.72 -17.33,8.77 -36.38,13.12 -57.02,13.12 -26.58,0 -47.71,-5.38 -63.31,-16.22l11.53 -27.27 2.97 -0.41c4.14,9.73 11.25,17.19 21.19,22.37 9.94,5.25 20.98,7.87 33.07,7.87 19.47,0 36.04,-7.46 49.78,-22.3 13.74,-14.84 22.71,-33 26.79,-54.33 1.45,-8.08 2.14,-14.98 2.14,-20.71 0,-29.27 -16.16,-43.91 -48.46,-43.91 -16.43,0 -31.07,4.55 -43.84,13.67l-2.97 -2.83zm183.84 60.82l4.97 -25.68 103.55 0 -4.97 25.68 -103.55 0zm192.61 -198.41l176.87 0 -2.14 12.01c-81.6,102.45 -148.7,191.23 -201.17,266.34 -1.73,-0.14 -4,-0.42 -6.97,-0.76 -2.97,-0.35 -5.25,-0.48 -6.84,-0.48 -1.66,0 -4.14,0.14 -7.32,0.48 -3.24,0.34 -5.59,0.62 -7.11,0.76l1.59 -4.56c12.64,-15.81 26.93,-33.76 43.01,-53.78 16.02,-19.95 35.07,-43.77 57.16,-71.45 22.1,-27.69 39.56,-49.78 52.4,-66.21 12.84,-16.5 25.4,-33 37.62,-49.71l-1.66 -1.59c-23.96,0.41 -47.63,1.17 -71.11,2.35 -23.47,1.11 -47.43,2.55 -71.8,4.35 2.35,-7.94 4,-14.29 4.97,-19.12 0.21,-1.17 0.48,-2.76 0.76,-4.9 0.35,-2.07 0.69,-4.56 0.97,-7.53 0.35,-2.9 0.55,-4.97 0.76,-6.21zm322.19 120.19l-0.76 2.83c9.8,1.93 20.23,6.9 31.14,14.98 10.97,8.01 16.43,20.85 16.43,38.52 0,5.1 -0.56,10.08 -1.59,14.84 -3.59,18.09 -10.63,33.9 -21.19,47.57 -10.49,13.67 -23.54,24.16 -39.07,31.62 -15.53,7.38 -32.31,11.11 -50.4,11.11 -15.4,0 -28.85,-2.27 -40.52,-6.9 -11.67,-4.63 -20.78,-11.67 -27.2,-21.06 -6.49,-9.39 -9.74,-20.92 -9.74,-34.52 0,-5.18 0.69,-11.67 2,-19.54 3.52,-17.47 12.42,-33.27 26.72,-47.43 14.29,-14.15 30.37,-23.33 48.32,-27.48l0.35 -2.97c-7.18,-1.59 -14.98,-6.01 -23.41,-13.25 -8.35,-7.18 -12.56,-17.68 -12.56,-31.48 0,-3.52 0.41,-7.39 1.24,-11.6 2.14,-10.36 6.22,-19.68 12.15,-27.89 6.01,-8.14 13.33,-15.12 22.02,-20.78 8.77,-5.66 18.16,-9.87 28.1,-12.63 10.01,-2.76 19.88,-4.14 29.62,-4.14 11.67,0 21.68,1.04 29.96,3.18 8.29,2.14 15.74,6.14 22.23,12.08 10.29,9.32 15.4,20.22 15.4,32.79 0,3.11 -0.55,7.53 -1.72,13.25 -1.73,8.91 -5.46,17.4 -11.12,25.54 -5.66,8.15 -12.57,15.12 -20.71,20.99 -8.14,5.86 -16.71,9.94 -25.68,12.36zm-11.12 -107.35c-14.43,0 -27.2,6.21 -38.18,18.64 -8.35,9.25 -14.15,22.16 -17.39,38.52 -0.62,4.35 -0.9,7.39 -0.9,9.11 0,10.22 2.62,19.05 7.87,26.51 5.52,8.01 15.05,12.01 28.65,12.01 14.64,0 27.48,-6.35 38.52,-18.99 7.39,-8.08 12.63,-20.09 15.74,-36.18 0.83,-3.93 1.31,-7.93 1.31,-12.01 0,-10.98 -3.04,-20.02 -9.11,-27.06 -6.07,-7.04 -14.91,-10.56 -26.51,-10.56zm-22.85 118.05c-11.87,0 -22.78,3.24 -32.72,9.81 -9.87,6.56 -18.09,15.12 -24.51,25.61 -6.49,10.56 -10.7,21.54 -12.84,32.93 -1.32,5.86 -2,12.77 -2,20.71 0,14.64 3.73,26.44 11.12,35.42 7.46,8.98 18.91,13.46 34.45,13.46 18.15,0 33.14,-7.18 44.94,-21.61 11.81,-14.43 19.61,-31.27 23.47,-50.47 1.31,-7.32 2,-13.8 2,-19.46 0,-14.08 -3.59,-25.34 -10.7,-33.76 -7.11,-8.42 -18.15,-12.64 -33.21,-12.64zm117.57 67.52l4.97 -25.68 103.55 0 -4.97 25.68 -103.55 0zm257.64 1.66l-128.41 0 1.24 -5.39c17.68,-20.3 31.69,-36.18 41.9,-47.63 10.29,-11.53 24.86,-27.82 43.77,-48.81 18.99,-21.06 36.8,-40.8 53.5,-59.23 16.71,-18.43 27.89,-30.79 33.48,-36.94 0.96,0.07 2.83,0.28 5.52,0.69 2.62,0.42 5.1,0.62 7.32,0.62 1.72,0 3.87,-0.2 6.42,-0.55 2.62,-0.41 4.83,-0.62 6.83,-0.76l-33.9 174.38 38.52 -1.72c-2.76,8.22 -4.56,17.26 -5.46,27.06l-37.62 -1.72 -15.32 78.29c-1.93,-0.14 -4.63,-0.42 -8.22,-0.76 -3.59,-0.35 -6.21,-0.48 -8.01,-0.48 -1.87,0 -4.63,0.14 -8.29,0.48 -3.66,0.34 -6.49,0.62 -8.7,0.76l15.4 -78.29zm5.32 -23.61l26.09 -132.96 -2 -1.73c-10.29,10.77 -21.61,22.99 -33.96,36.66 -12.36,13.74 -26.03,29.2 -41.08,46.39 -15.12,17.19 -29.55,33.69 -43.42,49.5l1.31 2.14 93.06 0zm251.84 -56.26l-0.76 2.83c9.8,1.93 20.23,6.9 31.14,14.98 10.97,8.01 16.43,20.85 16.43,38.52 0,5.1 -0.56,10.08 -1.59,14.84 -3.59,18.09 -10.63,33.9 -21.19,47.57 -10.49,13.67 -23.54,24.16 -39.07,31.62 -15.53,7.38 -32.31,11.11 -50.4,11.11 -15.4,0 -28.85,-2.27 -40.52,-6.9 -11.67,-4.63 -20.78,-11.67 -27.2,-21.06 -6.49,-9.39 -9.74,-20.92 -9.74,-34.52 0,-5.18 0.69,-11.67 2,-19.54 3.52,-17.47 12.42,-33.27 26.72,-47.43 14.29,-14.15 30.37,-23.33 48.32,-27.48l0.35 -2.97c-7.18,-1.59 -14.98,-6.01 -23.41,-13.25 -8.35,-7.18 -12.56,-17.68 -12.56,-31.48 0,-3.52 0.41,-7.39 1.24,-11.6 2.14,-10.36 6.22,-19.68 12.15,-27.89 6.01,-8.14 13.33,-15.12 22.02,-20.78 8.77,-5.66 18.16,-9.87 28.1,-12.63 10.01,-2.76 19.88,-4.14 29.62,-4.14 11.67,0 21.68,1.04 29.96,3.18 8.29,2.14 15.74,6.14 22.23,12.08 10.29,9.32 15.4,20.22 15.4,32.79 0,3.11 -0.55,7.53 -1.72,13.25 -1.73,8.91 -5.46,17.4 -11.12,25.54 -5.66,8.15 -12.57,15.12 -20.71,20.99 -8.14,5.86 -16.71,9.94 -25.68,12.36zm-11.12 -107.35c-14.43,0 -27.2,6.21 -38.18,18.64 -8.35,9.25 -14.15,22.16 -17.39,38.52 -0.62,4.35 -0.9,7.39 -0.9,9.11 0,10.22 2.62,19.05 7.87,26.51 5.52,8.01 15.05,12.01 28.65,12.01 14.64,0 27.48,-6.35 38.52,-18.99 7.39,-8.08 12.63,-20.09 15.74,-36.18 0.83,-3.93 1.31,-7.93 1.31,-12.01 0,-10.98 -3.04,-20.02 -9.11,-27.06 -6.07,-7.04 -14.91,-10.56 -26.51,-10.56zm-22.85 118.05c-11.87,0 -22.78,3.24 -32.72,9.81 -9.87,6.56 -18.09,15.12 -24.51,25.61 -6.49,10.56 -10.7,21.54 -12.84,32.93 -1.32,5.86 -2,12.77 -2,20.71 0,14.64 3.73,26.44 11.12,35.42 7.46,8.98 18.91,13.46 34.45,13.46 18.15,0 33.14,-7.18 44.94,-21.61 11.81,-14.43 19.61,-31.27 23.47,-50.47 1.31,-7.32 2,-13.8 2,-19.46 0,-14.08 -3.59,-25.34 -10.7,-33.76 -7.11,-8.42 -18.15,-12.64 -33.21,-12.64z"/>
 </g>
</svg>
