<?xml version="1.0" encoding="UTF-8"?>
<!DOCTYPE svg PUBLIC "-//W3C//DTD SVG 1.0//EN" "http://www.w3.org/TR/2001/REC-SVG-20010904/DTD/svg10.dtd">
<!-- Creator: CorelDRAW 2019 (64-Bit) -->
<svg xmlns="http://www.w3.org/2000/svg" xml:space="preserve" width="67.3795mm" height="14.8873mm" version="1.0" style="shape-rendering:geometricPrecision; text-rendering:geometricPrecision; image-rendering:optimizeQuality; fill-rule:evenodd; clip-rule:evenodd"
viewBox="0 0 3463.84 765.33"
 xmlns:xlink="http://www.w3.org/1999/xlink">
 <defs>
  <style type="text/css">
   <![CDATA[
    .fil0 {fill:#28B0DE;fill-rule:nonzero}
   ]]>
  </style>
 </defs>
 <g id="Слой_x0020_1">
  <metadata id="CorelCorpID_0Corel-Layer"/>
  <polygon class="fil0" points="87.27,155.33 87.27,68.96 123.18,68.96 123.18,155.33 210.45,155.33 210.45,191.24 123.18,191.24 123.18,279.77 87.27,279.77 87.27,191.24 -0,191.24 -0,155.33 "/>
  <path id="1" class="fil0" d="M259.31 2.5l190.41 0 2.93 7.93c-13.23,22.55 -26.17,45.1 -38.77,67.51 -12.59,22.48 -24.98,45.31 -37.1,68.55 -12.04,23.25 -23.31,45.73 -33.68,67.51 -10.44,21.78 -20.67,44.4 -30.69,67.85 -15.52,-1.39 -24.57,-2.09 -27.21,-2.09 -2.79,0 -11.83,0.69 -27.14,2.09 16.15,-24.36 33.34,-50.8 51.5,-79.34 18.23,-28.53 34.94,-55.46 50.32,-80.73 15.38,-25.33 28.19,-47.25 38.42,-65.77l-138.98 3.62c1.39,-14.82 2.09,-24.42 2.09,-28.74 0,-4.04 -0.69,-13.57 -2.09,-28.39z"/>
  <path id="2" class="fil0" d="M713.13 253.46l2.93 -2.93c15.03,10.86 27.28,16.29 36.74,16.29 16.36,0 29.86,-5.85 40.5,-17.54 10.72,-11.7 18.51,-25.96 23.46,-42.8 5.01,-16.77 7.86,-33.4 8.7,-49.9l0 -4.17 -2.99 -1.32c-6.06,6.75 -13.5,11.97 -22.27,15.73 -8.84,3.76 -17.96,5.64 -27.35,5.64 -11.48,0 -22.2,-1.74 -32.08,-5.29 -9.88,-3.55 -18.58,-8.7 -26.17,-15.45 -7.58,-6.68 -13.5,-14.89 -17.67,-24.57 -4.25,-9.6 -6.33,-20.11 -6.33,-31.46 0,-10.79 0.83,-20.12 2.5,-28.12 1.67,-8 4.52,-15.52 8.49,-22.62 4.04,-7.03 9.67,-14.27 17.05,-21.58 15.87,-15.59 37.45,-23.38 64.66,-23.38 35.63,0 62.29,11.41 79.83,34.24 15.51,21.02 23.31,48.16 23.31,81.43 0,47.6 -10.58,86.99 -31.73,118.17 -6.82,10.44 -15.66,19.63 -26.45,27.49 -10.86,7.93 -22.55,13.92 -35.21,18.09 -12.59,4.11 -25.33,6.19 -38.13,6.19 -8.77,0 -16.77,-1.11 -23.8,-3.34 -1.6,-0.9 -3.06,-1.46 -4.39,-1.74 -1.39,-0.28 -2.3,-0.63 -2.85,-1.12 -0.49,-0.56 -0.98,-1.81 -1.53,-3.82 -2.65,-8.21 -5.71,-15.59 -9.19,-22.13zm111.49 -164.94c0,-46.49 -11.83,-69.73 -35.42,-69.73 -12.18,0 -21.37,6.4 -27.56,19.21 -6.19,12.81 -9.26,27.28 -9.26,43.36 0,15.94 2.65,31.04 8,45.38 5.36,14.33 15.03,21.5 29.16,21.5 12.94,0 21.99,-6.19 27.22,-18.65 5.22,-12.46 7.86,-26.1 7.86,-41.06z"/>
  <path id="3" class="fil0" d="M979.47 147.47l0 -20.95c5.01,0.56 8.56,0.84 10.51,0.84 31.38,0 47.12,-19.63 47.12,-58.95 0,-7.93 -1.04,-15.66 -3.14,-23.24 -2.15,-7.52 -5.71,-13.78 -10.85,-18.86 -5.08,-5.01 -11.7,-7.52 -19.77,-7.52 -13.02,0 -22.34,4.31 -28.12,13.01 -5.71,8.7 -9.89,20.95 -12.46,36.61l-5.85 0.56c-13.15,-13.99 -22.48,-23.31 -27.9,-28.04 9.05,-15.24 20.53,-25.89 34.24,-31.88 13.71,-6.05 30,-9.04 48.79,-9.04 27.14,0 48.44,5.77 63.96,17.32 15.52,11.56 23.31,27.08 23.31,46.49 0,16.84 -4.45,30.27 -13.36,40.29 -8.98,10.02 -21.85,18.02 -38.76,24.08l-5.5 2.16c-0.56,1.04 -0.83,1.74 -0.83,2.02 0,0.98 0.69,1.67 2.15,2.23 1.39,0.49 3.06,0.9 5.01,1.12 1.95,0.28 3.69,0.56 5.36,0.83 11.07,3.06 18.72,5.36 23.04,6.82 4.32,1.46 9.19,4.25 14.62,8.35 5.5,4.1 10.02,10.16 13.71,18.23 3.62,8.07 5.43,18.51 5.43,31.32 0,16.7 -4.87,31.38 -14.68,44.26 -9.81,12.81 -22.9,22.69 -39.32,29.65 -16.42,6.96 -34.17,10.44 -53.24,10.44 -37.72,0 -64.58,-10.72 -80.66,-32.15 12.46,-15.8 21.09,-27.77 25.89,-35.84l5.42 0.42c2.16,14.4 6.96,26.17 14.34,35.21 7.45,9.05 17.96,13.57 31.6,13.57 9.67,0 18.23,-2.99 25.68,-9.05 7.52,-5.98 13.22,-13.64 17.19,-22.83 3.96,-9.26 5.98,-18.51 5.98,-27.84 0,-23.87 -4.73,-39.81 -14.2,-47.95 -9.54,-8.14 -22.69,-12.18 -39.6,-12.18 -6.75,0 -11.76,0.14 -15.1,0.49z"/>
  <path id="4" class="fil0" d="M1239.61 139.46c-8.91,4.11 -15.17,12.32 -18.86,24.63 -3.62,12.32 -5.43,24.98 -5.43,38 0,15.59 2.86,30.34 8.56,44.05 5.71,13.78 15.38,20.67 29.09,20.67 8.84,0 16.01,-3.55 21.58,-10.58 5.5,-7.1 9.46,-15.59 11.9,-25.54 2.44,-9.88 3.62,-19.14 3.62,-27.77 0,-8.35 -0.84,-17.32 -2.58,-27.07 -1.74,-9.67 -4.39,-17.26 -7.79,-22.61 -7.1,-11.14 -16.29,-16.71 -27.63,-16.71 -4.45,0 -8.56,0.98 -12.46,2.93zm54.63 -13.71l0 2.85c11.62,1.81 21.78,6.06 30.41,12.67 8.7,6.61 15.38,14.89 20.12,24.85 4.73,9.88 7.09,20.67 7.09,32.22 0,13.22 -2.5,25.26 -7.52,36.05 -5.01,10.86 -11.97,20.04 -20.95,27.7 -8.98,7.59 -19.48,13.43 -31.6,17.47 -12.11,4.04 -25.05,6.06 -38.83,6.06 -28.95,0 -52.33,-6.54 -70.15,-19.56 -9.39,-7.03 -16.63,-16.08 -21.71,-27.28 -5.08,-11.13 -7.59,-22.76 -7.59,-34.94 0,-11.62 2.44,-22.89 7.31,-33.68 4.87,-10.86 11.76,-20.04 20.67,-27.56 8.91,-7.52 19.07,-12.18 30.48,-13.99l0 -2.85c-13.71,-2.78 -25.26,-9.67 -34.52,-20.6 -9.26,-10.86 -13.92,-23.25 -13.92,-37.16 0,-15.45 4.25,-28.33 12.81,-38.56 8.49,-10.23 19.56,-17.68 33.06,-22.41 13.43,-4.66 27.84,-7.03 43.15,-7.03 13.22,0 24.71,1.04 34.38,3.13 9.67,2.15 19,6.19 27.77,12.25 18.37,12.88 27.56,29.16 27.56,48.86 0,10.23 -1.95,19.48 -5.77,27.84 -3.9,8.35 -9.47,15.45 -16.77,21.15 -7.24,5.78 -15.73,9.95 -25.47,12.53zm-73.49 -53.52c0,14.19 2.37,25.19 7.1,32.99 6.19,10.85 14.41,16.35 24.71,16.35 11.9,0 20.25,-5.64 25.2,-16.77 4.87,-11.13 7.31,-23.52 7.31,-37.16 0,-32.57 -10.86,-48.85 -32.5,-48.85 -21.23,0 -31.81,17.81 -31.81,53.45z"/>
  <path id="5" class="fil0" d="M1652.44 147.47l0 -20.95c5.01,0.56 8.56,0.84 10.51,0.84 31.38,0 47.12,-19.63 47.12,-58.95 0,-7.93 -1.04,-15.66 -3.14,-23.24 -2.15,-7.52 -5.71,-13.78 -10.85,-18.86 -5.08,-5.01 -11.7,-7.52 -19.77,-7.52 -13.02,0 -22.34,4.31 -28.12,13.01 -5.71,8.7 -9.89,20.95 -12.46,36.61l-5.85 0.56c-13.15,-13.99 -22.48,-23.31 -27.9,-28.04 9.05,-15.24 20.53,-25.89 34.24,-31.88 13.71,-6.05 30,-9.04 48.79,-9.04 27.14,0 48.44,5.77 63.96,17.32 15.52,11.56 23.31,27.08 23.31,46.49 0,16.84 -4.45,30.27 -13.36,40.29 -8.98,10.02 -21.85,18.02 -38.76,24.08l-5.5 2.16c-0.56,1.04 -0.83,1.74 -0.83,2.02 0,0.98 0.69,1.67 2.15,2.23 1.39,0.49 3.06,0.9 5.01,1.12 1.95,0.28 3.69,0.56 5.36,0.83 11.07,3.06 18.72,5.36 23.04,6.82 4.32,1.46 9.19,4.25 14.62,8.35 5.5,4.1 10.02,10.16 13.71,18.23 3.62,8.07 5.43,18.51 5.43,31.32 0,16.7 -4.87,31.38 -14.68,44.26 -9.81,12.81 -22.9,22.69 -39.32,29.65 -16.42,6.96 -34.17,10.44 -53.24,10.44 -37.72,0 -64.58,-10.72 -80.66,-32.15 12.46,-15.8 21.09,-27.77 25.89,-35.84l5.42 0.42c2.16,14.4 6.96,26.17 14.34,35.21 7.45,9.05 17.96,13.57 31.6,13.57 9.67,0 18.23,-2.99 25.68,-9.05 7.52,-5.98 13.22,-13.64 17.19,-22.83 3.96,-9.26 5.98,-18.51 5.98,-27.84 0,-23.87 -4.73,-39.81 -14.2,-47.95 -9.54,-8.14 -22.69,-12.18 -39.6,-12.18 -6.75,0 -11.76,0.14 -15.1,0.49z"/>
  <path id="6" class="fil0" d="M1884.54 147.47l0 -20.95c5.01,0.56 8.56,0.84 10.51,0.84 31.38,0 47.12,-19.63 47.12,-58.95 0,-7.93 -1.04,-15.66 -3.14,-23.24 -2.15,-7.52 -5.71,-13.78 -10.85,-18.86 -5.08,-5.01 -11.7,-7.52 -19.77,-7.52 -13.02,0 -22.34,4.31 -28.12,13.01 -5.71,8.7 -9.89,20.95 -12.46,36.61l-5.85 0.56c-13.15,-13.99 -22.48,-23.31 -27.9,-28.04 9.05,-15.24 20.53,-25.89 34.24,-31.88 13.71,-6.05 30,-9.04 48.79,-9.04 27.14,0 48.44,5.77 63.96,17.32 15.52,11.56 23.31,27.08 23.31,46.49 0,16.84 -4.45,30.27 -13.36,40.29 -8.98,10.02 -21.85,18.02 -38.76,24.08l-5.5 2.16c-0.56,1.04 -0.83,1.74 -0.83,2.02 0,0.98 0.69,1.67 2.15,2.23 1.39,0.49 3.06,0.9 5.01,1.12 1.95,0.28 3.69,0.56 5.36,0.83 11.07,3.06 18.72,5.36 23.04,6.82 4.32,1.46 9.19,4.25 14.62,8.35 5.5,4.1 10.02,10.16 13.71,18.23 3.62,8.07 5.43,18.51 5.43,31.32 0,16.7 -4.87,31.38 -14.68,44.26 -9.81,12.81 -22.9,22.69 -39.32,29.65 -16.42,6.96 -34.17,10.44 -53.24,10.44 -37.72,0 -64.58,-10.72 -80.66,-32.15 12.46,-15.8 21.09,-27.77 25.89,-35.84l5.42 0.42c2.16,14.4 6.96,26.17 14.34,35.21 7.45,9.05 17.96,13.57 31.6,13.57 9.67,0 18.23,-2.99 25.68,-9.05 7.52,-5.98 13.22,-13.64 17.19,-22.83 3.96,-9.26 5.98,-18.51 5.98,-27.84 0,-23.87 -4.73,-39.81 -14.2,-47.95 -9.54,-8.14 -22.69,-12.18 -39.6,-12.18 -6.75,0 -11.76,0.14 -15.1,0.49z"/>
  <path id="7" class="fil0" d="M2116.64 147.47l0 -20.95c5.01,0.56 8.56,0.84 10.51,0.84 31.38,0 47.12,-19.63 47.12,-58.95 0,-7.93 -1.04,-15.66 -3.14,-23.24 -2.15,-7.52 -5.71,-13.78 -10.85,-18.86 -5.08,-5.01 -11.7,-7.52 -19.77,-7.52 -13.02,0 -22.34,4.31 -28.12,13.01 -5.71,8.7 -9.89,20.95 -12.46,36.61l-5.85 0.56c-13.15,-13.99 -22.48,-23.31 -27.9,-28.04 9.05,-15.24 20.53,-25.89 34.24,-31.88 13.71,-6.05 30,-9.04 48.79,-9.04 27.14,0 48.44,5.77 63.96,17.32 15.52,11.56 23.31,27.08 23.31,46.49 0,16.84 -4.45,30.27 -13.36,40.29 -8.98,10.02 -21.85,18.02 -38.76,24.08l-5.5 2.16c-0.56,1.04 -0.83,1.74 -0.83,2.02 0,0.98 0.69,1.67 2.15,2.23 1.39,0.49 3.06,0.9 5.01,1.12 1.95,0.28 3.69,0.56 5.36,0.83 11.07,3.06 18.72,5.36 23.04,6.82 4.32,1.46 9.19,4.25 14.62,8.35 5.5,4.1 10.02,10.16 13.71,18.23 3.62,8.07 5.43,18.51 5.43,31.32 0,16.7 -4.87,31.38 -14.68,44.26 -9.81,12.81 -22.9,22.69 -39.32,29.65 -16.42,6.96 -34.17,10.44 -53.24,10.44 -37.72,0 -64.58,-10.72 -80.66,-32.15 12.46,-15.8 21.09,-27.77 25.89,-35.84l5.42 0.42c2.16,14.4 6.96,26.17 14.34,35.21 7.45,9.05 17.96,13.57 31.6,13.57 9.67,0 18.23,-2.99 25.68,-9.05 7.52,-5.98 13.22,-13.64 17.19,-22.83 3.96,-9.26 5.98,-18.51 5.98,-27.84 0,-23.87 -4.73,-39.81 -14.2,-47.95 -9.54,-8.14 -22.69,-12.18 -39.6,-12.18 -6.75,0 -11.76,0.14 -15.1,0.49z"/>
  <polygon id="8" class="fil0" points="2291.53,209.2 2291.53,164.52 2395.92,164.52 2395.92,209.2 "/>
  <path id="9" class="fil0" d="M2440.6 2.5l190.41 0 2.93 7.93c-13.23,22.55 -26.17,45.1 -38.77,67.51 -12.59,22.48 -24.98,45.31 -37.1,68.55 -12.04,23.25 -23.31,45.73 -33.68,67.51 -10.44,21.78 -20.67,44.4 -30.69,67.85 -15.52,-1.39 -24.57,-2.09 -27.21,-2.09 -2.79,0 -11.83,0.69 -27.14,2.09 16.15,-24.36 33.34,-50.8 51.5,-79.34 18.23,-28.53 34.94,-55.46 50.32,-80.73 15.38,-25.33 28.19,-47.25 38.42,-65.77l-138.98 3.62c1.39,-14.82 2.09,-24.42 2.09,-28.74 0,-4.04 -0.69,-13.57 -2.09,-28.39z"/>
  <path id="10" class="fil0" d="M2848.49 279.77l-183.66 0 0 -17.96c18.65,-17.61 33.97,-32.29 45.86,-44.19 11.9,-11.9 23.74,-25.47 35.5,-40.58 11.76,-15.17 21.5,-31.17 29.09,-48.02 7.59,-16.91 11.42,-33.68 11.42,-50.52 0,-10.02 -1.6,-19.56 -4.87,-28.6 -3.2,-9.05 -8.28,-16.49 -15.24,-22.34 -6.96,-5.85 -15.73,-8.77 -26.23,-8.77 -13.09,0 -22.83,6.54 -29.44,19.56 -6.54,13.08 -9.81,26.86 -9.81,41.41l-4.17 0.83c-10.09,-12.39 -21.02,-21.57 -32.64,-27.56 4.39,-11.97 11,-21.92 19.97,-29.92 8.91,-8 19.21,-13.85 30.9,-17.54 11.69,-3.69 24.01,-5.57 36.89,-5.57 17.54,0 33.62,2.57 48.09,7.79 14.55,5.22 26.17,13.57 35.08,25.05 8.84,11.48 13.29,26.1 13.29,43.92 0,19.42 -5.15,36.4 -15.52,51.01 -8.84,13.15 -21.37,26.52 -37.44,40.08 -29.86,25.33 -51.71,44.96 -65.63,58.95l0.49 2.02 53.38 0c14.2,0 35.77,-1.11 64.72,-3.27 -1.39,16.01 -2.16,25.06 -2.16,27.14 0,3.76 0.28,8.49 0.9,14.05 0.56,5.64 0.98,9.95 1.25,13.02z"/>
  <polygon id="11" class="fil0" points="2894.77,209.2 2894.77,164.52 2999.16,164.52 2999.16,209.2 "/>
  <path id="12" class="fil0" d="M3133.62 0c24.22,0 43.7,6.26 58.39,18.86 14.68,12.6 24.98,28.81 30.9,48.72 5.92,19.83 8.84,41.89 8.84,65.97 0,16.84 -0.7,32.08 -2.02,45.79 -1.39,13.64 -4.31,27.07 -8.91,40.23 -4.52,13.08 -11.2,24.85 -20.04,35.14 -17.67,20.6 -40.5,30.9 -68.41,30.9 -11.97,0 -22.69,-1.53 -32.22,-4.52 -9.54,-3.06 -18.1,-7.79 -25.75,-14.34 -7.65,-6.54 -14.34,-14.96 -20.11,-25.4 -8.28,-14.54 -13.99,-29.65 -17.05,-45.23 -3.13,-15.59 -4.66,-33.34 -4.66,-53.24 0,-16.7 1.67,-34.17 5.08,-52.54 3.34,-18.37 8.28,-33.19 14.89,-44.47 18.51,-30.55 45.52,-45.86 81.08,-45.86zm-39.26 147.82c0,28.67 0.84,51.15 2.58,67.58 1.67,16.42 5.36,29.09 10.93,38 5.63,8.98 13.92,13.43 24.98,13.43 9.81,0 17.47,-4.73 22.89,-14.2 5.36,-9.39 9.12,-23.1 11.14,-40.99 2.02,-17.82 3.06,-41.06 3.06,-69.67 0,-30.76 -1.11,-54.98 -3.34,-72.65 -2.15,-17.75 -5.91,-30.55 -11.06,-38.56 -5.22,-8 -12.53,-11.97 -21.92,-11.97 -10.65,0 -18.86,4.73 -24.5,14.27 -5.71,9.54 -9.53,23.52 -11.62,42.04 -2.09,18.51 -3.13,42.8 -3.13,72.73z"/>
  <path id="13" class="fil0" d="M3323.12 147.47l0 -20.95c5.01,0.56 8.56,0.84 10.51,0.84 31.38,0 47.12,-19.63 47.12,-58.95 0,-7.93 -1.04,-15.66 -3.14,-23.24 -2.15,-7.52 -5.71,-13.78 -10.85,-18.86 -5.08,-5.01 -11.7,-7.52 -19.77,-7.52 -13.02,0 -22.34,4.31 -28.12,13.01 -5.71,8.7 -9.89,20.95 -12.46,36.61l-5.85 0.56c-13.15,-13.99 -22.48,-23.31 -27.9,-28.04 9.05,-15.24 20.53,-25.89 34.24,-31.88 13.71,-6.05 30,-9.04 48.79,-9.04 27.14,0 48.44,5.77 63.96,17.32 15.52,11.56 23.31,27.08 23.31,46.49 0,16.84 -4.45,30.27 -13.36,40.29 -8.98,10.02 -21.85,18.02 -38.76,24.08l-5.5 2.16c-0.56,1.04 -0.83,1.74 -0.83,2.02 0,0.98 0.69,1.67 2.15,2.23 1.39,0.49 3.06,0.9 5.01,1.12 1.95,0.28 3.69,0.56 5.36,0.83 11.07,3.06 18.72,5.36 23.04,6.82 4.32,1.46 9.19,4.25 14.62,8.35 5.5,4.1 10.02,10.16 13.71,18.23 3.62,8.07 5.43,18.51 5.43,31.32 0,16.7 -4.87,31.38 -14.68,44.26 -9.81,12.81 -22.9,22.69 -39.32,29.65 -16.42,6.96 -34.17,10.44 -53.24,10.44 -37.72,0 -64.58,-10.72 -80.66,-32.15 12.46,-15.8 21.09,-27.77 25.89,-35.84l5.42 0.42c2.16,14.4 6.96,26.17 14.34,35.21 7.45,9.05 17.96,13.57 31.6,13.57 9.67,0 18.23,-2.99 25.68,-9.05 7.52,-5.98 13.22,-13.64 17.19,-22.83 3.96,-9.26 5.98,-18.51 5.98,-27.84 0,-23.87 -4.73,-39.81 -14.2,-47.95 -9.54,-8.14 -22.69,-12.18 -39.6,-12.18 -6.75,0 -11.76,0.14 -15.1,0.49z"/>
  <polygon id="14" class="fil0" points="87.27,635.05 87.27,548.68 123.18,548.68 123.18,635.05 210.45,635.05 210.45,670.96 123.18,670.96 123.18,759.48 87.27,759.48 87.27,670.96 -0,670.96 -0,635.05 "/>
  <path id="15" class="fil0" d="M259.31 482.22l190.41 0 2.93 7.93c-13.23,22.55 -26.17,45.1 -38.77,67.51 -12.59,22.48 -24.98,45.31 -37.1,68.55 -12.04,23.25 -23.31,45.73 -33.68,67.51 -10.44,21.78 -20.67,44.4 -30.69,67.85 -15.52,-1.39 -24.57,-2.09 -27.21,-2.09 -2.79,0 -11.83,0.69 -27.14,2.09 16.15,-24.36 33.34,-50.8 51.5,-79.34 18.23,-28.53 34.94,-55.46 50.32,-80.73 15.38,-25.33 28.19,-47.25 38.42,-65.77l-138.98 3.62c1.39,-14.82 2.09,-24.42 2.09,-28.74 0,-4.04 -0.69,-13.57 -2.09,-28.39z"/>
  <path id="16" class="fil0" d="M713.13 733.18l2.93 -2.93c15.03,10.86 27.28,16.29 36.74,16.29 16.36,0 29.86,-5.85 40.5,-17.54 10.72,-11.7 18.51,-25.96 23.46,-42.8 5.01,-16.77 7.86,-33.4 8.7,-49.9l0 -4.17 -2.99 -1.32c-6.06,6.75 -13.5,11.97 -22.27,15.73 -8.84,3.76 -17.96,5.64 -27.35,5.64 -11.48,0 -22.2,-1.74 -32.08,-5.29 -9.88,-3.55 -18.58,-8.7 -26.17,-15.45 -7.58,-6.68 -13.5,-14.89 -17.67,-24.57 -4.25,-9.6 -6.33,-20.11 -6.33,-31.46 0,-10.79 0.83,-20.12 2.5,-28.12 1.67,-8 4.52,-15.52 8.49,-22.62 4.04,-7.03 9.67,-14.27 17.05,-21.58 15.87,-15.59 37.45,-23.38 64.66,-23.38 35.63,0 62.29,11.41 79.83,34.24 15.51,21.02 23.31,48.16 23.31,81.43 0,47.6 -10.58,86.99 -31.73,118.17 -6.82,10.44 -15.66,19.63 -26.45,27.49 -10.86,7.93 -22.55,13.92 -35.21,18.09 -12.59,4.11 -25.33,6.19 -38.13,6.19 -8.77,0 -16.77,-1.11 -23.8,-3.34 -1.6,-0.9 -3.06,-1.46 -4.39,-1.74 -1.39,-0.28 -2.3,-0.63 -2.85,-1.12 -0.49,-0.56 -0.98,-1.81 -1.53,-3.82 -2.65,-8.21 -5.71,-15.59 -9.19,-22.13zm111.49 -164.94c0,-46.49 -11.83,-69.73 -35.42,-69.73 -12.18,0 -21.37,6.4 -27.56,19.21 -6.19,12.81 -9.26,27.28 -9.26,43.36 0,15.94 2.65,31.04 8,45.38 5.36,14.33 15.03,21.5 29.16,21.5 12.94,0 21.99,-6.19 27.22,-18.65 5.22,-12.46 7.86,-26.1 7.86,-41.06z"/>
  <path id="17" class="fil0" d="M1007.51 619.18c-8.91,4.11 -15.17,12.32 -18.86,24.63 -3.62,12.32 -5.43,24.98 -5.43,38 0,15.59 2.86,30.34 8.56,44.05 5.71,13.78 15.38,20.67 29.09,20.67 8.84,0 16.01,-3.55 21.58,-10.58 5.5,-7.1 9.46,-15.59 11.9,-25.54 2.44,-9.88 3.62,-19.14 3.62,-27.77 0,-8.35 -0.84,-17.32 -2.58,-27.07 -1.74,-9.67 -4.39,-17.26 -7.79,-22.61 -7.1,-11.14 -16.29,-16.71 -27.63,-16.71 -4.45,0 -8.56,0.98 -12.46,2.93zm54.63 -13.71l0 2.85c11.62,1.81 21.78,6.06 30.41,12.67 8.7,6.61 15.38,14.89 20.12,24.85 4.73,9.88 7.09,20.67 7.09,32.22 0,13.22 -2.5,25.26 -7.52,36.05 -5.01,10.86 -11.97,20.04 -20.95,27.7 -8.98,7.59 -19.48,13.43 -31.6,17.47 -12.11,4.04 -25.05,6.06 -38.83,6.06 -28.95,0 -52.33,-6.54 -70.15,-19.56 -9.39,-7.03 -16.63,-16.08 -21.71,-27.28 -5.08,-11.13 -7.59,-22.76 -7.59,-34.94 0,-11.62 2.44,-22.89 7.31,-33.68 4.87,-10.86 11.76,-20.04 20.67,-27.56 8.91,-7.52 19.07,-12.18 30.48,-13.99l0 -2.85c-13.71,-2.78 -25.26,-9.67 -34.52,-20.6 -9.26,-10.86 -13.92,-23.25 -13.92,-37.16 0,-15.45 4.25,-28.33 12.81,-38.56 8.49,-10.23 19.56,-17.68 33.06,-22.41 13.43,-4.66 27.84,-7.03 43.15,-7.03 13.22,0 24.71,1.04 34.38,3.13 9.67,2.15 19,6.19 27.77,12.25 18.37,12.88 27.56,29.16 27.56,48.86 0,10.23 -1.95,19.48 -5.77,27.84 -3.9,8.35 -9.47,15.45 -16.77,21.15 -7.24,5.78 -15.73,9.95 -25.47,12.53zm-73.49 -53.52c0,14.19 2.37,25.19 7.1,32.99 6.19,10.85 14.41,16.35 24.71,16.35 11.9,0 20.25,-5.64 25.2,-16.77 4.87,-11.13 7.31,-23.52 7.31,-37.16 0,-32.57 -10.86,-48.85 -32.5,-48.85 -21.23,0 -31.81,17.81 -31.81,53.45z"/>
  <path id="18" class="fil0" d="M1177.32 733.18l2.93 -2.93c15.03,10.86 27.28,16.29 36.74,16.29 16.36,0 29.86,-5.85 40.5,-17.54 10.72,-11.7 18.51,-25.96 23.46,-42.8 5.01,-16.77 7.86,-33.4 8.7,-49.9l0 -4.17 -2.99 -1.32c-6.06,6.75 -13.5,11.97 -22.27,15.73 -8.84,3.76 -17.96,5.64 -27.35,5.64 -11.48,0 -22.2,-1.74 -32.08,-5.29 -9.88,-3.55 -18.58,-8.7 -26.17,-15.45 -7.58,-6.68 -13.5,-14.89 -17.67,-24.57 -4.25,-9.6 -6.33,-20.11 -6.33,-31.46 0,-10.79 0.83,-20.12 2.5,-28.12 1.67,-8 4.52,-15.52 8.49,-22.62 4.04,-7.03 9.67,-14.27 17.05,-21.58 15.87,-15.59 37.45,-23.38 64.66,-23.38 35.63,0 62.29,11.41 79.83,34.24 15.51,21.02 23.31,48.16 23.31,81.43 0,47.6 -10.58,86.99 -31.73,118.17 -6.82,10.44 -15.66,19.63 -26.45,27.49 -10.86,7.93 -22.55,13.92 -35.21,18.09 -12.59,4.11 -25.33,6.19 -38.13,6.19 -8.77,0 -16.77,-1.11 -23.8,-3.34 -1.6,-0.9 -3.06,-1.46 -4.39,-1.74 -1.39,-0.28 -2.3,-0.63 -2.85,-1.12 -0.49,-0.56 -0.98,-1.81 -1.53,-3.82 -2.65,-8.21 -5.71,-15.59 -9.19,-22.13zm111.49 -164.94c0,-46.49 -11.83,-69.73 -35.42,-69.73 -12.18,0 -21.37,6.4 -27.56,19.21 -6.19,12.81 -9.26,27.28 -9.26,43.36 0,15.94 2.65,31.04 8,45.38 5.36,14.33 15.03,21.5 29.16,21.5 12.94,0 21.99,-6.19 27.22,-18.65 5.22,-12.46 7.86,-26.1 7.86,-41.06z"/>
  <path id="19" class="fil0" d="M1680.49 619.18c-8.91,4.11 -15.17,12.32 -18.86,24.63 -3.62,12.32 -5.43,24.98 -5.43,38 0,15.59 2.86,30.34 8.56,44.05 5.71,13.78 15.38,20.67 29.09,20.67 8.84,0 16.01,-3.55 21.58,-10.58 5.5,-7.1 9.46,-15.59 11.9,-25.54 2.44,-9.88 3.62,-19.14 3.62,-27.77 0,-8.35 -0.84,-17.32 -2.58,-27.07 -1.74,-9.67 -4.39,-17.26 -7.79,-22.61 -7.1,-11.14 -16.29,-16.71 -27.63,-16.71 -4.45,0 -8.56,0.98 -12.46,2.93zm54.63 -13.71l0 2.85c11.62,1.81 21.78,6.06 30.41,12.67 8.7,6.61 15.38,14.89 20.12,24.85 4.73,9.88 7.09,20.67 7.09,32.22 0,13.22 -2.5,25.26 -7.52,36.05 -5.01,10.86 -11.97,20.04 -20.95,27.7 -8.98,7.59 -19.48,13.43 -31.6,17.47 -12.11,4.04 -25.05,6.06 -38.83,6.06 -28.95,0 -52.33,-6.54 -70.15,-19.56 -9.39,-7.03 -16.63,-16.08 -21.71,-27.28 -5.08,-11.13 -7.59,-22.76 -7.59,-34.94 0,-11.62 2.44,-22.89 7.31,-33.68 4.87,-10.86 11.76,-20.04 20.67,-27.56 8.91,-7.52 19.07,-12.18 30.48,-13.99l0 -2.85c-13.71,-2.78 -25.26,-9.67 -34.52,-20.6 -9.26,-10.86 -13.92,-23.25 -13.92,-37.16 0,-15.45 4.25,-28.33 12.81,-38.56 8.49,-10.23 19.56,-17.68 33.06,-22.41 13.43,-4.66 27.84,-7.03 43.15,-7.03 13.22,0 24.71,1.04 34.38,3.13 9.67,2.15 19,6.19 27.77,12.25 18.37,12.88 27.56,29.16 27.56,48.86 0,10.23 -1.95,19.48 -5.77,27.84 -3.9,8.35 -9.47,15.45 -16.77,21.15 -7.24,5.78 -15.73,9.95 -25.47,12.53zm-73.49 -53.52c0,14.19 2.37,25.19 7.1,32.99 6.19,10.85 14.41,16.35 24.71,16.35 11.9,0 20.25,-5.64 25.2,-16.77 4.87,-11.13 7.31,-23.52 7.31,-37.16 0,-32.57 -10.86,-48.85 -32.5,-48.85 -21.23,0 -31.81,17.81 -31.81,53.45z"/>
  <path id="20" class="fil0" d="M1902.08 761.57l0 -235.93c-15.52,8.98 -31.81,17.4 -48.85,25.06 -3.97,-7.03 -9.67,-13.99 -17.12,-20.88l0 -3.41c19.63,-6.33 38.83,-13.57 57.62,-21.78 18.79,-8.28 39.67,-18.1 62.71,-29.51l3.27 2.02 0 284.43c-16.01,-1.39 -25.54,-2.09 -28.74,-2.09 -3.27,0 -12.87,0.69 -28.88,2.09z"/>
  <path id="21" class="fil0" d="M2144.68 619.18c-8.91,4.11 -15.17,12.32 -18.86,24.63 -3.62,12.32 -5.43,24.98 -5.43,38 0,15.59 2.86,30.34 8.56,44.05 5.71,13.78 15.38,20.67 29.09,20.67 8.84,0 16.01,-3.55 21.58,-10.58 5.5,-7.1 9.46,-15.59 11.9,-25.54 2.44,-9.88 3.62,-19.14 3.62,-27.77 0,-8.35 -0.84,-17.32 -2.58,-27.07 -1.74,-9.67 -4.39,-17.26 -7.79,-22.61 -7.1,-11.14 -16.29,-16.71 -27.63,-16.71 -4.45,0 -8.56,0.98 -12.46,2.93zm54.63 -13.71l0 2.85c11.62,1.81 21.78,6.06 30.41,12.67 8.7,6.61 15.38,14.89 20.12,24.85 4.73,9.88 7.09,20.67 7.09,32.22 0,13.22 -2.5,25.26 -7.52,36.05 -5.01,10.86 -11.97,20.04 -20.95,27.7 -8.98,7.59 -19.48,13.43 -31.6,17.47 -12.11,4.04 -25.05,6.06 -38.83,6.06 -28.95,0 -52.33,-6.54 -70.15,-19.56 -9.39,-7.03 -16.63,-16.08 -21.71,-27.28 -5.08,-11.13 -7.59,-22.76 -7.59,-34.94 0,-11.62 2.44,-22.89 7.31,-33.68 4.87,-10.86 11.76,-20.04 20.67,-27.56 8.91,-7.52 19.07,-12.18 30.48,-13.99l0 -2.85c-13.71,-2.78 -25.26,-9.67 -34.52,-20.6 -9.26,-10.86 -13.92,-23.25 -13.92,-37.16 0,-15.45 4.25,-28.33 12.81,-38.56 8.49,-10.23 19.56,-17.68 33.06,-22.41 13.43,-4.66 27.84,-7.03 43.15,-7.03 13.22,0 24.71,1.04 34.38,3.13 9.67,2.15 19,6.19 27.77,12.25 18.37,12.88 27.56,29.16 27.56,48.86 0,10.23 -1.95,19.48 -5.77,27.84 -3.9,8.35 -9.47,15.45 -16.77,21.15 -7.24,5.78 -15.73,9.95 -25.47,12.53zm-73.49 -53.52c0,14.19 2.37,25.19 7.1,32.99 6.19,10.85 14.41,16.35 24.71,16.35 11.9,0 20.25,-5.64 25.2,-16.77 4.87,-11.13 7.31,-23.52 7.31,-37.16 0,-32.57 -10.86,-48.85 -32.5,-48.85 -21.23,0 -31.81,17.81 -31.81,53.45z"/>
  <polygon id="22" class="fil0" points="2291.53,688.91 2291.53,644.23 2395.92,644.23 2395.92,688.91 "/>
  <path id="23" class="fil0" d="M2505.32 761.57l0 -235.93c-15.52,8.98 -31.81,17.4 -48.85,25.06 -3.97,-7.03 -9.67,-13.99 -17.12,-20.88l0 -3.41c19.63,-6.33 38.83,-13.57 57.62,-21.78 18.79,-8.28 39.67,-18.1 62.71,-29.51l3.27 2.02 0 284.43c-16.01,-1.39 -25.54,-2.09 -28.74,-2.09 -3.27,0 -12.87,0.69 -28.88,2.09z"/>
  <path id="24" class="fil0" d="M2747.93 619.18c-8.91,4.11 -15.17,12.32 -18.86,24.63 -3.62,12.32 -5.43,24.98 -5.43,38 0,15.59 2.86,30.34 8.56,44.05 5.71,13.78 15.38,20.67 29.09,20.67 8.84,0 16.01,-3.55 21.58,-10.58 5.5,-7.1 9.46,-15.59 11.9,-25.54 2.44,-9.88 3.62,-19.14 3.62,-27.77 0,-8.35 -0.84,-17.32 -2.58,-27.07 -1.74,-9.67 -4.39,-17.26 -7.79,-22.61 -7.1,-11.14 -16.29,-16.71 -27.63,-16.71 -4.45,0 -8.56,0.98 -12.46,2.93zm54.63 -13.71l0 2.85c11.62,1.81 21.78,6.06 30.41,12.67 8.7,6.61 15.38,14.89 20.12,24.85 4.73,9.88 7.09,20.67 7.09,32.22 0,13.22 -2.5,25.26 -7.52,36.05 -5.01,10.86 -11.97,20.04 -20.95,27.7 -8.98,7.59 -19.48,13.43 -31.6,17.47 -12.11,4.04 -25.05,6.06 -38.83,6.06 -28.95,0 -52.33,-6.54 -70.15,-19.56 -9.39,-7.03 -16.63,-16.08 -21.71,-27.28 -5.08,-11.13 -7.59,-22.76 -7.59,-34.94 0,-11.62 2.44,-22.89 7.31,-33.68 4.87,-10.86 11.76,-20.04 20.67,-27.56 8.91,-7.52 19.07,-12.18 30.48,-13.99l0 -2.85c-13.71,-2.78 -25.26,-9.67 -34.52,-20.6 -9.26,-10.86 -13.92,-23.25 -13.92,-37.16 0,-15.45 4.25,-28.33 12.81,-38.56 8.49,-10.23 19.56,-17.68 33.06,-22.41 13.43,-4.66 27.84,-7.03 43.15,-7.03 13.22,0 24.71,1.04 34.38,3.13 9.67,2.15 19,6.19 27.77,12.25 18.37,12.88 27.56,29.16 27.56,48.86 0,10.23 -1.95,19.48 -5.77,27.84 -3.9,8.35 -9.47,15.45 -16.77,21.15 -7.24,5.78 -15.73,9.95 -25.47,12.53zm-73.49 -53.52c0,14.19 2.37,25.19 7.1,32.99 6.19,10.85 14.41,16.35 24.71,16.35 11.9,0 20.25,-5.64 25.2,-16.77 4.87,-11.13 7.31,-23.52 7.31,-37.16 0,-32.57 -10.86,-48.85 -32.5,-48.85 -21.23,0 -31.81,17.81 -31.81,53.45z"/>
  <polygon id="25" class="fil0" points="2894.77,688.91 2894.77,644.23 2999.16,644.23 2999.16,688.91 "/>
  <path id="26" class="fil0" d="M3133.62 479.71c24.22,0 43.7,6.26 58.39,18.86 14.68,12.6 24.98,28.81 30.9,48.72 5.92,19.83 8.84,41.89 8.84,65.97 0,16.84 -0.7,32.08 -2.02,45.79 -1.39,13.64 -4.31,27.07 -8.91,40.23 -4.52,13.08 -11.2,24.85 -20.04,35.14 -17.67,20.6 -40.5,30.9 -68.41,30.9 -11.97,0 -22.69,-1.53 -32.22,-4.52 -9.54,-3.06 -18.1,-7.79 -25.75,-14.34 -7.65,-6.54 -14.34,-14.96 -20.11,-25.4 -8.28,-14.54 -13.99,-29.65 -17.05,-45.23 -3.13,-15.59 -4.66,-33.34 -4.66,-53.24 0,-16.7 1.67,-34.17 5.08,-52.54 3.34,-18.37 8.28,-33.19 14.89,-44.47 18.51,-30.55 45.52,-45.86 81.08,-45.86zm-39.26 147.82c0,28.67 0.84,51.15 2.58,67.58 1.67,16.42 5.36,29.09 10.93,38 5.63,8.98 13.92,13.43 24.98,13.43 9.81,0 17.47,-4.73 22.89,-14.2 5.36,-9.39 9.12,-23.1 11.14,-40.99 2.02,-17.82 3.06,-41.06 3.06,-69.67 0,-30.76 -1.11,-54.98 -3.34,-72.65 -2.15,-17.75 -5.91,-30.55 -11.06,-38.56 -5.22,-8 -12.53,-11.97 -21.92,-11.97 -10.65,0 -18.86,4.73 -24.5,14.27 -5.71,9.54 -9.53,23.52 -11.62,42.04 -2.09,18.51 -3.13,42.8 -3.13,72.73z"/>
  <path id="27" class="fil0" d="M3365.72 479.71c24.22,0 43.7,6.26 58.39,18.86 14.68,12.6 24.98,28.81 30.9,48.72 5.92,19.83 8.84,41.89 8.84,65.97 0,16.84 -0.7,32.08 -2.02,45.79 -1.39,13.64 -4.31,27.07 -8.91,40.23 -4.52,13.08 -11.2,24.85 -20.04,35.14 -17.67,20.6 -40.5,30.9 -68.41,30.9 -11.97,0 -22.69,-1.53 -32.22,-4.52 -9.54,-3.06 -18.1,-7.79 -25.75,-14.34 -7.65,-6.54 -14.34,-14.96 -20.11,-25.4 -8.28,-14.54 -13.99,-29.65 -17.05,-45.23 -3.13,-15.59 -4.66,-33.34 -4.66,-53.24 0,-16.7 1.67,-34.17 5.08,-52.54 3.34,-18.37 8.28,-33.19 14.89,-44.47 18.51,-30.55 45.52,-45.86 81.08,-45.86zm-39.26 147.82c0,28.67 0.84,51.15 2.58,67.58 1.67,16.42 5.36,29.09 10.93,38 5.63,8.98 13.92,13.43 24.98,13.43 9.81,0 17.47,-4.73 22.89,-14.2 5.36,-9.39 9.12,-23.1 11.14,-40.99 2.02,-17.82 3.06,-41.06 3.06,-69.67 0,-30.76 -1.11,-54.98 -3.34,-72.65 -2.15,-17.75 -5.91,-30.55 -11.06,-38.56 -5.22,-8 -12.53,-11.97 -21.92,-11.97 -10.65,0 -18.86,4.73 -24.5,14.27 -5.71,9.54 -9.53,23.52 -11.62,42.04 -2.09,18.51 -3.13,42.8 -3.13,72.73z"/>
 </g>
</svg>
