<svg width="278" height="26" viewBox="0 0 278 26" fill="none" xmlns="http://www.w3.org/2000/svg">
<path d="M8.34961 12.9062C7.58203 13.2578 7.04004 13.9668 6.72363 15.0332C6.41309 16.0938 6.25781 17.1836 6.25781 18.3027C6.25781 19.6504 6.50391 20.9189 6.99609 22.1084C7.48828 23.292 8.32324 23.8838 9.50098 23.8838C10.2627 23.8838 10.8809 23.5791 11.3555 22.9697C11.8359 22.3604 12.1787 21.6279 12.3838 20.7725C12.5947 19.917 12.7002 19.1172 12.7002 18.373C12.7002 17.6582 12.624 16.8818 12.4717 16.0439C12.3252 15.2061 12.1025 14.5557 11.8037 14.0928C11.1943 13.1318 10.4004 12.6514 9.42188 12.6514C9.04102 12.6514 8.68359 12.7363 8.34961 12.9062ZM13.0605 11.7197V11.9658C14.0625 12.124 14.9355 12.4902 15.6797 13.0645C16.4297 13.6328 17.0068 14.3447 17.4111 15.2002C17.8213 16.0557 18.0264 16.9814 18.0264 17.9775C18.0264 19.1201 17.8096 20.1572 17.376 21.0889C16.9482 22.0205 16.3477 22.8145 15.5742 23.4707C14.8008 24.127 13.8926 24.6309 12.8496 24.9824C11.8066 25.3281 10.6904 25.501 9.50098 25.501C7.01074 25.501 4.99512 24.9385 3.4541 23.8135C2.64551 23.21 2.02148 22.4277 1.58203 21.4668C1.14844 20.5059 0.931641 19.501 0.931641 18.4521C0.931641 17.4502 1.13965 16.4834 1.55566 15.5518C1.97754 14.6143 2.57227 13.8232 3.33984 13.1787C4.10742 12.5283 4.9834 12.124 5.96777 11.9658V11.7197C4.78418 11.4795 3.79102 10.8906 2.98828 9.95312C2.19141 9.00977 1.79297 7.94043 1.79297 6.74512C1.79297 5.40918 2.15918 4.30176 2.8916 3.42285C3.62988 2.53809 4.5791 1.89355 5.73926 1.48926C6.90527 1.08496 8.14746 0.882812 9.46582 0.882812C10.6084 0.882812 11.5957 0.973633 12.4277 1.15527C13.2656 1.33691 14.0654 1.68848 14.8271 2.20996C16.4092 3.31738 17.2002 4.7207 17.2002 6.41992C17.2002 7.29883 17.0332 8.09863 16.6992 8.81934C16.3652 9.54004 15.8848 10.1494 15.2578 10.6475C14.6309 11.1396 13.8984 11.4971 13.0605 11.7197ZM6.72363 7.10547C6.72363 8.33008 6.92871 9.2793 7.33887 9.95312C7.87207 10.8906 8.58105 11.3594 9.46582 11.3594C10.4912 11.3594 11.2148 10.8789 11.6367 9.91797C12.0586 8.95703 12.2695 7.8877 12.2695 6.70996C12.2695 3.90332 11.335 2.5 9.46582 2.5C7.6377 2.5 6.72363 4.03516 6.72363 7.10547ZM46.3535 12.9062C45.5859 13.2578 45.0439 13.9668 44.7275 15.0332C44.417 16.0938 44.2617 17.1836 44.2617 18.3027C44.2617 19.6504 44.5078 20.9189 45 22.1084C45.4922 23.292 46.3271 23.8838 47.5049 23.8838C48.2666 23.8838 48.8848 23.5791 49.3594 22.9697C49.8398 22.3604 50.1826 21.6279 50.3877 20.7725C50.5986 19.917 50.7041 19.1172 50.7041 18.373C50.7041 17.6582 50.6279 16.8818 50.4756 16.0439C50.3291 15.2061 50.1064 14.5557 49.8076 14.0928C49.1982 13.1318 48.4043 12.6514 47.4258 12.6514C47.0449 12.6514 46.6875 12.7363 46.3535 12.9062ZM51.0645 11.7197V11.9658C52.0664 12.124 52.9395 12.4902 53.6836 13.0645C54.4336 13.6328 55.0107 14.3447 55.415 15.2002C55.8252 16.0557 56.0303 16.9814 56.0303 17.9775C56.0303 19.1201 55.8135 20.1572 55.3799 21.0889C54.9521 22.0205 54.3516 22.8145 53.5781 23.4707C52.8047 24.127 51.8965 24.6309 50.8535 24.9824C49.8105 25.3281 48.6943 25.501 47.5049 25.501C45.0146 25.501 42.999 24.9385 41.458 23.8135C40.6494 23.21 40.0254 22.4277 39.5859 21.4668C39.1523 20.5059 38.9355 19.501 38.9355 18.4521C38.9355 17.4502 39.1436 16.4834 39.5596 15.5518C39.9814 14.6143 40.5762 13.8232 41.3438 13.1787C42.1113 12.5283 42.9873 12.124 43.9717 11.9658V11.7197C42.7881 11.4795 41.7949 10.8906 40.9922 9.95312C40.1953 9.00977 39.7969 7.94043 39.7969 6.74512C39.7969 5.40918 40.1631 4.30176 40.8955 3.42285C41.6338 2.53809 42.583 1.89355 43.7432 1.48926C44.9092 1.08496 46.1514 0.882812 47.4697 0.882812C48.6123 0.882812 49.5996 0.973633 50.4316 1.15527C51.2695 1.33691 52.0693 1.68848 52.8311 2.20996C54.4131 3.31738 55.2041 4.7207 55.2041 6.41992C55.2041 7.29883 55.0371 8.09863 54.7031 8.81934C54.3691 9.54004 53.8887 10.1494 53.2617 10.6475C52.6348 11.1396 51.9023 11.4971 51.0645 11.7197ZM44.7275 7.10547C44.7275 8.33008 44.9326 9.2793 45.3428 9.95312C45.876 10.8906 46.585 11.3594 47.4697 11.3594C48.4951 11.3594 49.2188 10.8789 49.6406 9.91797C50.0625 8.95703 50.2734 7.8877 50.2734 6.70996C50.2734 3.90332 49.3389 2.5 47.4697 2.5C45.6416 2.5 44.7275 4.03516 44.7275 7.10547ZM67.6143 0.882812C69.7061 0.882812 71.3848 1.4248 72.6504 2.50879C73.916 3.59277 74.8037 4.99316 75.3135 6.70996C75.8232 8.4209 76.0781 10.3164 76.0781 12.3965C76.0781 13.8438 76.0195 15.1592 75.9023 16.3428C75.7852 17.5205 75.5303 18.6748 75.1377 19.8057C74.7451 20.9365 74.168 21.9473 73.4062 22.8379C71.8828 24.6133 69.917 25.501 67.5088 25.501C66.4775 25.501 65.5518 25.3691 64.7314 25.1055C63.9111 24.8477 63.1699 24.4375 62.5078 23.875C61.8516 23.3125 61.2744 22.583 60.7764 21.6865C60.0615 20.4326 59.5693 19.1348 59.2998 17.793C59.0361 16.4453 58.9043 14.9131 58.9043 13.1963C58.9043 11.7607 59.0479 10.252 59.335 8.66992C59.6279 7.08789 60.0586 5.81055 60.627 4.83789C62.2207 2.20117 64.5498 0.882812 67.6143 0.882812ZM64.2305 13.627C64.2305 16.0938 64.3037 18.0361 64.4502 19.4541C64.5967 20.8662 64.9102 21.959 65.3906 22.7324C65.877 23.5 66.5947 23.8838 67.5439 23.8838C68.3936 23.8838 69.0498 23.4766 69.5127 22.6621C69.9814 21.8477 70.3037 20.6699 70.4795 19.1289C70.6553 17.5879 70.7432 15.584 70.7432 13.1172C70.7432 10.4688 70.6465 8.38281 70.4531 6.85938C70.2656 5.33008 69.9463 4.22266 69.4951 3.53711C69.0498 2.8457 68.4229 2.5 67.6143 2.5C66.6943 2.5 65.9883 2.91016 65.4961 3.73047C65.0098 4.55078 64.6758 5.76074 64.4941 7.36035C64.3184 8.9541 64.2305 11.043 64.2305 13.627ZM87.6182 0.882812C89.71 0.882812 91.3887 1.4248 92.6543 2.50879C93.9199 3.59277 94.8076 4.99316 95.3174 6.70996C95.8271 8.4209 96.082 10.3164 96.082 12.3965C96.082 13.8438 96.0234 15.1592 95.9062 16.3428C95.7891 17.5205 95.5342 18.6748 95.1416 19.8057C94.749 20.9365 94.1719 21.9473 93.4102 22.8379C91.8867 24.6133 89.9209 25.501 87.5127 25.501C86.4814 25.501 85.5557 25.3691 84.7354 25.1055C83.915 24.8477 83.1738 24.4375 82.5117 23.875C81.8555 23.3125 81.2783 22.583 80.7803 21.6865C80.0654 20.4326 79.5732 19.1348 79.3037 17.793C79.04 16.4453 78.9082 14.9131 78.9082 13.1963C78.9082 11.7607 79.0518 10.252 79.3389 8.66992C79.6318 7.08789 80.0625 5.81055 80.6309 4.83789C82.2246 2.20117 84.5537 0.882812 87.6182 0.882812ZM84.2344 13.627C84.2344 16.0938 84.3076 18.0361 84.4541 19.4541C84.6006 20.8662 84.9141 21.959 85.3945 22.7324C85.8809 23.5 86.5986 23.8838 87.5479 23.8838C88.3975 23.8838 89.0537 23.4766 89.5166 22.6621C89.9854 21.8477 90.3076 20.6699 90.4834 19.1289C90.6592 17.5879 90.7471 15.584 90.7471 13.1172C90.7471 10.4688 90.6504 8.38281 90.457 6.85938C90.2695 5.33008 89.9502 4.22266 89.499 3.53711C89.0537 2.8457 88.4268 2.5 87.6182 2.5C86.6982 2.5 85.9922 2.91016 85.5 3.73047C85.0137 4.55078 84.6797 5.76074 84.498 7.36035C84.3223 8.9541 84.2344 11.043 84.2344 13.627ZM133.04 25H117.202V23.4531C118.813 21.9355 120.132 20.6641 121.157 19.6387C122.183 18.6133 123.202 17.4473 124.216 16.1406C125.235 14.834 126.073 13.4541 126.729 12.001C127.386 10.5479 127.714 9.09766 127.714 7.65039C127.714 6.7832 127.573 5.95996 127.292 5.18066C127.017 4.40137 126.577 3.75977 125.974 3.25586C125.376 2.75195 124.623 2.5 123.715 2.5C122.59 2.5 121.743 3.0625 121.175 4.1875C120.612 5.3125 120.331 6.50195 120.331 7.75586L119.971 7.82617C119.098 6.75977 118.16 5.96875 117.158 5.45312C117.533 4.42187 118.104 3.56348 118.872 2.87793C119.646 2.18652 120.536 1.68262 121.544 1.36621C122.552 1.04395 123.612 0.882812 124.726 0.882812C126.237 0.882812 127.617 1.1084 128.865 1.55957C130.119 2.00488 131.127 2.72266 131.889 3.71289C132.656 4.70312 133.04 5.96582 133.04 7.50098C133.04 9.1709 132.595 10.6357 131.704 11.8955C130.937 13.0322 129.858 14.1836 128.47 15.3496C125.897 17.5352 124.011 19.2285 122.81 20.4297L122.854 20.6055H127.459C128.684 20.6055 130.544 20.5117 133.04 20.3242C132.917 21.707 132.855 22.4863 132.855 22.6621C132.855 22.9902 132.879 23.3975 132.926 23.8838C132.979 24.3643 133.017 24.7363 133.04 25ZM145.626 0.882812C147.718 0.882812 149.396 1.4248 150.662 2.50879C151.928 3.59277 152.815 4.99316 153.325 6.70996C153.835 8.4209 154.09 10.3164 154.09 12.3965C154.09 13.8438 154.031 15.1592 153.914 16.3428C153.797 17.5205 153.542 18.6748 153.149 19.8057C152.757 20.9365 152.18 21.9473 151.418 22.8379C149.895 24.6133 147.929 25.501 145.521 25.501C144.489 25.501 143.563 25.3691 142.743 25.1055C141.923 24.8477 141.182 24.4375 140.52 23.875C139.863 23.3125 139.286 22.583 138.788 21.6865C138.073 20.4326 137.581 19.1348 137.312 17.793C137.048 16.4453 136.916 14.9131 136.916 13.1963C136.916 11.7607 137.06 10.252 137.347 8.66992C137.64 7.08789 138.07 5.81055 138.639 4.83789C140.232 2.20117 142.562 0.882812 145.626 0.882812ZM142.242 13.627C142.242 16.0938 142.315 18.0361 142.462 19.4541C142.608 20.8662 142.922 21.959 143.402 22.7324C143.889 23.5 144.606 23.8838 145.556 23.8838C146.405 23.8838 147.062 23.4766 147.524 22.6621C147.993 21.8477 148.315 20.6699 148.491 19.1289C148.667 17.5879 148.755 15.584 148.755 13.1172C148.755 10.4688 148.658 8.38281 148.465 6.85938C148.277 5.33008 147.958 4.22266 147.507 3.53711C147.062 2.8457 146.435 2.5 145.626 2.5C144.706 2.5 144 2.91016 143.508 3.73047C143.021 4.55078 142.688 5.76074 142.506 7.36035C142.33 8.9541 142.242 11.043 142.242 13.627ZM165.63 0.882812C167.722 0.882812 169.4 1.4248 170.666 2.50879C171.932 3.59277 172.819 4.99316 173.329 6.70996C173.839 8.4209 174.094 10.3164 174.094 12.3965C174.094 13.8438 174.035 15.1592 173.918 16.3428C173.801 17.5205 173.546 18.6748 173.153 19.8057C172.761 20.9365 172.184 21.9473 171.422 22.8379C169.898 24.6133 167.933 25.501 165.524 25.501C164.493 25.501 163.567 25.3691 162.747 25.1055C161.927 24.8477 161.186 24.4375 160.523 23.875C159.867 23.3125 159.29 22.583 158.792 21.6865C158.077 20.4326 157.585 19.1348 157.315 17.793C157.052 16.4453 156.92 14.9131 156.92 13.1963C156.92 11.7607 157.063 10.252 157.351 8.66992C157.644 7.08789 158.074 5.81055 158.643 4.83789C160.236 2.20117 162.565 0.882812 165.63 0.882812ZM162.246 13.627C162.246 16.0938 162.319 18.0361 162.466 19.4541C162.612 20.8662 162.926 21.959 163.406 22.7324C163.893 23.5 164.61 23.8838 165.56 23.8838C166.409 23.8838 167.065 23.4766 167.528 22.6621C167.997 21.8477 168.319 20.6699 168.495 19.1289C168.671 17.5879 168.759 15.584 168.759 13.1172C168.759 10.4688 168.662 8.38281 168.469 6.85938C168.281 5.33008 167.962 4.22266 167.511 3.53711C167.065 2.8457 166.438 2.5 165.63 2.5C164.71 2.5 164.004 2.91016 163.512 3.73047C163.025 4.55078 162.691 5.76074 162.51 7.36035C162.334 8.9541 162.246 11.043 162.246 13.627ZM177.029 18.918V15.0684H186.029V18.918H177.029ZM193.948 13.5918V11.79C194.382 11.8369 194.684 11.8604 194.854 11.8604C197.561 11.8604 198.914 10.167 198.914 6.78027C198.914 6.09473 198.823 5.42676 198.642 4.77637C198.46 4.12598 198.149 3.58398 197.71 3.15039C197.271 2.7168 196.702 2.5 196.005 2.5C194.886 2.5 194.077 2.875 193.579 3.625C193.087 4.375 192.729 5.42676 192.507 6.78027L192.006 6.82422C190.869 5.62305 190.066 4.81738 189.598 4.40723C190.383 3.09473 191.367 2.18066 192.551 1.66504C193.734 1.14355 195.138 0.882812 196.761 0.882812C199.099 0.882812 200.936 1.38086 202.271 2.37695C203.613 3.37305 204.284 4.70898 204.284 6.38477C204.284 7.83789 203.897 8.99512 203.124 9.85645C202.356 10.7178 201.243 11.4092 199.784 11.9307L199.31 12.1152C199.263 12.209 199.239 12.2676 199.239 12.291C199.239 12.373 199.301 12.4375 199.424 12.4844C199.547 12.5254 199.69 12.5576 199.854 12.5811C200.024 12.6045 200.18 12.6279 200.32 12.6514C201.275 12.915 201.938 13.1113 202.307 13.2402C202.676 13.3633 203.095 13.6035 203.563 13.9609C204.038 14.3125 204.431 14.8369 204.741 15.5342C205.058 16.2256 205.216 17.125 205.216 18.2324C205.216 19.668 204.794 20.9395 203.95 22.0469C203.106 23.1484 201.976 24.001 200.558 24.6045C199.146 25.2021 197.616 25.501 195.97 25.501C192.718 25.501 190.4 24.5781 189.018 22.7324C190.09 21.3672 190.834 20.3359 191.25 19.6387L191.716 19.6738C191.903 20.9219 192.316 21.9355 192.955 22.7148C193.594 23.4941 194.502 23.8838 195.68 23.8838C196.512 23.8838 197.25 23.626 197.895 23.1104C198.539 22.5889 199.031 21.9297 199.371 21.1328C199.717 20.3359 199.89 19.5361 199.89 18.7334C199.89 16.6768 199.479 15.2998 198.659 14.6025C197.845 13.8994 196.708 13.5479 195.249 13.5479C194.669 13.5479 194.235 13.5625 193.948 13.5918ZM222.627 2.46484L222.416 2.8252C221.83 2.6084 221.109 2.5 220.254 2.5C218.713 2.5 217.356 3.25586 216.185 4.76758C215.845 5.20117 215.581 5.62598 215.394 6.04199C215.206 6.45215 215.054 6.88281 214.937 7.33398C214.819 7.78516 214.685 8.30957 214.532 8.90723C214.345 9.63379 214.201 10.7734 214.102 12.3262L214.348 12.4756C214.863 11.9072 215.479 11.459 216.193 11.1309C216.914 10.8027 217.655 10.6387 218.417 10.6387C219.806 10.6387 221.06 10.917 222.179 11.4736C223.304 12.0244 224.188 12.8242 224.833 13.873C225.478 14.9219 225.8 16.1465 225.8 17.5469C225.8 19.1055 225.419 20.4912 224.657 21.7041C223.901 22.9111 222.873 23.8457 221.572 24.5078C220.277 25.1699 218.854 25.501 217.301 25.501C216.744 25.501 216.073 25.4189 215.288 25.2549C214.509 25.0908 213.896 24.8975 213.451 24.6748C212.338 24.1064 211.427 23.3154 210.718 22.3018C209.47 20.4561 208.846 18.1885 208.846 15.499C208.846 13.9346 209.013 12.3496 209.347 10.7441C209.687 9.13867 210.237 7.63574 210.999 6.23535C211.761 4.8291 212.722 3.68066 213.882 2.79004C214.743 2.13965 215.719 1.65918 216.809 1.34863C217.898 1.03809 219.023 0.882812 220.184 0.882812C220.898 0.882812 221.499 0.941406 221.985 1.05859C222.032 1.27539 222.144 1.54785 222.319 1.87598C222.495 2.2041 222.598 2.40039 222.627 2.46484ZM214.172 17.8721C214.172 21.8799 215.191 23.8838 217.23 23.8838C218.004 23.8838 218.634 23.585 219.12 22.9873C219.606 22.3896 219.952 21.6719 220.157 20.834C220.368 19.9961 220.474 19.2021 220.474 18.4521C220.474 16.9873 220.239 15.666 219.771 14.4883C219.308 13.3105 218.449 12.7217 217.195 12.7217C216.082 12.7217 215.3 13.252 214.849 14.3125C214.397 15.373 214.172 16.5596 214.172 17.8721ZM229.025 18.918V15.0684H238.025V18.918H229.025ZM243.712 1.09375H255.7C255.583 2.29492 255.524 3.00391 255.524 3.2207C255.524 3.46094 255.583 4.18164 255.7 5.38281H245.373L245.083 11.6055L245.294 11.7197C246.331 11.1631 247.544 10.8848 248.933 10.8848C251.247 10.8848 253.084 11.4619 254.443 12.6162C255.955 13.9229 256.711 15.5781 256.711 17.582C256.711 18.7832 256.424 19.9082 255.85 20.957C255.281 22 254.499 22.8789 253.503 23.5938C252.935 24.0156 252.287 24.3672 251.561 24.6484C250.84 24.9297 250.078 25.1406 249.275 25.2812C248.473 25.4277 247.711 25.501 246.99 25.501C244.494 25.501 242.382 24.8301 240.653 23.4883C241.339 22.5215 241.939 21.2969 242.455 19.8145H242.956C243.237 20.9395 243.703 21.9004 244.354 22.6973C245.01 23.4883 245.854 23.8838 246.885 23.8838C248.443 23.8838 249.583 23.3008 250.304 22.1348C251.024 20.9629 251.385 19.5654 251.385 17.9424C251.385 16.5303 250.975 15.3057 250.154 14.2686C249.311 13.2607 248.303 12.7568 247.131 12.7568C245.965 12.7568 244.922 13.2373 244.002 14.1982L243.141 13.6973L243.712 1.09375ZM277.04 25H261.202V23.4531C262.813 21.9355 264.132 20.6641 265.157 19.6387C266.183 18.6133 267.202 17.4473 268.216 16.1406C269.235 14.834 270.073 13.4541 270.729 12.001C271.386 10.5479 271.714 9.09766 271.714 7.65039C271.714 6.7832 271.573 5.95996 271.292 5.18066C271.017 4.40137 270.577 3.75977 269.974 3.25586C269.376 2.75195 268.623 2.5 267.715 2.5C266.59 2.5 265.743 3.0625 265.175 4.1875C264.612 5.3125 264.331 6.50195 264.331 7.75586L263.971 7.82617C263.098 6.75977 262.16 5.96875 261.158 5.45312C261.533 4.42187 262.104 3.56348 262.872 2.87793C263.646 2.18652 264.536 1.68262 265.544 1.36621C266.552 1.04395 267.612 0.882812 268.726 0.882812C270.237 0.882812 271.617 1.1084 272.865 1.55957C274.119 2.00488 275.127 2.72266 275.889 3.71289C276.656 4.70312 277.04 5.96582 277.04 7.50098C277.04 9.1709 276.595 10.6357 275.704 11.8955C274.937 13.0322 273.858 14.1836 272.47 15.3496C269.897 17.5352 268.011 19.2285 266.81 20.4297L266.854 20.6055H271.459C272.684 20.6055 274.544 20.5117 277.04 20.3242C276.917 21.707 276.855 22.4863 276.855 22.6621C276.855 22.9902 276.879 23.3975 276.926 23.8838C276.979 24.3643 277.017 24.7363 277.04 25Z" fill="#73C9F7"/>
</svg>
