<svg width="236" height="25" viewBox="0 0 236 25" fill="none" xmlns="http://www.w3.org/2000/svg">
<path opacity="0.8" d="M7.27734 22.3516C5.47266 22.3516 3.9375 21.9648 2.67188 21.1914C0.984375 20.1367 0.140625 18.6836 0.140625 16.832C0.140625 16.293 0.222656 15.7773 0.386719 15.2852C0.972656 13.3633 2.44922 12.0156 4.81641 11.2422C4.51172 11.0547 4.23047 10.8789 3.97266 10.7148C1.79297 9.26172 0.703125 7.65625 0.703125 5.89844C0.703125 4.53906 1.14844 3.37891 2.03906 2.41797C3.35156 1.01172 5.20312 0.308594 7.59375 0.308594C8.78906 0.308594 9.87891 0.507812 10.8633 0.90625C12.9258 1.75 13.957 3.25 13.957 5.40625C13.957 5.6875 13.9219 5.99219 13.8516 6.32031C13.5234 8.07812 12.4102 9.46094 10.5117 10.4688C11.0742 10.7734 11.5664 11.0664 11.9883 11.3477C14.2148 12.8008 15.3281 14.4531 15.3281 16.3047C15.3047 17.8281 14.707 19.1406 13.5352 20.2422C11.9414 21.6484 9.85547 22.3516 7.27734 22.3516ZM4.21875 4.49219C4.21875 5.45312 4.60547 6.34375 5.37891 7.16406C6.03516 7.84375 7.41797 8.76953 9.52734 9.94141C9.90234 9.75391 10.2773 9.51953 10.6523 9.23828C12.0352 8.18359 12.7266 6.90625 12.7266 5.40625C12.7266 4.53906 12.4922 3.77734 12.0234 3.12109C11.1562 1.94922 9.85547 1.36328 8.12109 1.36328C7.58203 1.36328 7.06641 1.43359 6.57422 1.57422C5.00391 1.99609 4.21875 2.96875 4.21875 4.49219ZM1.40625 16.7266C1.40625 17.8516 1.78125 18.8242 2.53125 19.6445C3.60938 20.7695 5.03906 21.332 6.82031 21.332C7.64062 21.332 8.39062 21.2266 9.07031 21.0156C10.8516 20.4297 11.7422 19.293 11.7422 17.6055C11.7188 16.5039 11.1914 15.4844 10.1602 14.5469C9.52734 13.9844 8.14453 13.1055 6.01172 11.9102C5.12109 12.1211 4.33594 12.4375 3.65625 12.8594C2.15625 13.8203 1.40625 15.1094 1.40625 16.7266ZM33.2227 22.3516C31.418 22.3516 29.8828 21.9648 28.6172 21.1914C26.9297 20.1367 26.0859 18.6836 26.0859 16.832C26.0859 16.293 26.168 15.7773 26.332 15.2852C26.918 13.3633 28.3945 12.0156 30.7617 11.2422C30.457 11.0547 30.1758 10.8789 29.918 10.7148C27.7383 9.26172 26.6484 7.65625 26.6484 5.89844C26.6484 4.53906 27.0938 3.37891 27.9844 2.41797C29.2969 1.01172 31.1484 0.308594 33.5391 0.308594C34.7344 0.308594 35.8242 0.507812 36.8086 0.90625C38.8711 1.75 39.9023 3.25 39.9023 5.40625C39.9023 5.6875 39.8672 5.99219 39.7969 6.32031C39.4688 8.07812 38.3555 9.46094 36.457 10.4688C37.0195 10.7734 37.5117 11.0664 37.9336 11.3477C40.1602 12.8008 41.2734 14.4531 41.2734 16.3047C41.25 17.8281 40.6523 19.1406 39.4805 20.2422C37.8867 21.6484 35.8008 22.3516 33.2227 22.3516ZM30.1641 4.49219C30.1641 5.45312 30.5508 6.34375 31.3242 7.16406C31.9805 7.84375 33.3633 8.76953 35.4727 9.94141C35.8477 9.75391 36.2227 9.51953 36.5977 9.23828C37.9805 8.18359 38.6719 6.90625 38.6719 5.40625C38.6719 4.53906 38.4375 3.77734 37.9688 3.12109C37.1016 1.94922 35.8008 1.36328 34.0664 1.36328C33.5273 1.36328 33.0117 1.43359 32.5195 1.57422C30.9492 1.99609 30.1641 2.96875 30.1641 4.49219ZM27.3516 16.7266C27.3516 17.8516 27.7266 18.8242 28.4766 19.6445C29.5547 20.7695 30.9844 21.332 32.7656 21.332C33.5859 21.332 34.3359 21.2266 35.0156 21.0156C36.7969 20.4297 37.6875 19.293 37.6875 17.6055C37.6641 16.5039 37.1367 15.4844 36.1055 14.5469C35.4727 13.9844 34.0898 13.1055 31.957 11.9102C31.0664 12.1211 30.2812 12.4375 29.6016 12.8594C28.1016 13.8203 27.3516 15.1094 27.3516 16.7266ZM53.1914 2.76953C54.9023 2.76953 56.4023 3.17969 57.6914 4C60.1758 5.64062 61.418 8.51172 61.418 12.6133C61.418 15.0742 60.8555 17.1602 59.7305 18.8711C58.207 21.1914 55.9688 22.3516 53.0156 22.3516C51.1172 22.3516 49.4766 21.8359 48.0938 20.8047C45.7969 19.0469 44.6484 16.2695 44.6484 12.4727C44.6484 10.0117 45.2227 7.92578 46.3711 6.21484C47.9414 3.91797 50.2148 2.76953 53.1914 2.76953ZM53.1211 21.4023C53.7773 21.4023 54.3516 21.2383 54.8438 20.9102C56.2734 19.9258 56.9883 17.1016 56.9883 12.4375C56.9883 10.2344 56.8242 8.46484 56.4961 7.12891C55.957 4.85547 54.8203 3.71875 53.0859 3.71875C52.5469 3.71875 52.0664 3.82422 51.6445 4.03516C49.9336 4.87891 49.0781 7.73828 49.0781 12.6133C49.0781 15.0273 49.2656 16.9141 49.6406 18.2734C50.2031 20.3594 51.3633 21.4023 53.1211 21.4023ZM72.668 2.76953C74.3789 2.76953 75.8789 3.17969 77.168 4C79.6523 5.64062 80.8945 8.51172 80.8945 12.6133C80.8945 15.0742 80.332 17.1602 79.207 18.8711C77.6836 21.1914 75.4453 22.3516 72.4922 22.3516C70.5938 22.3516 68.9531 21.8359 67.5703 20.8047C65.2734 19.0469 64.125 16.2695 64.125 12.4727C64.125 10.0117 64.6992 7.92578 65.8477 6.21484C67.418 3.91797 69.6914 2.76953 72.668 2.76953ZM72.5977 21.4023C73.2539 21.4023 73.8281 21.2383 74.3203 20.9102C75.75 19.9258 76.4648 17.1016 76.4648 12.4375C76.4648 10.2344 76.3008 8.46484 75.9727 7.12891C75.4336 4.85547 74.2969 3.71875 72.5625 3.71875C72.0234 3.71875 71.543 3.82422 71.1211 4.03516C69.4102 4.87891 68.5547 7.73828 68.5547 12.6133C68.5547 15.0273 68.7422 16.9141 69.1172 18.2734C69.6797 20.3594 70.8398 21.4023 72.5977 21.4023ZM92.25 18.8359H100.301C100.793 18.8359 101.18 18.8125 101.461 18.7656C102.094 18.625 102.562 18.1328 102.867 17.2891L103.465 15.6016H104.238L104.203 22H90.1758V21.0859C90.1758 20.1484 90.3516 19.293 90.7031 18.5195C91.1953 17.4414 92.2617 16.3867 93.9023 15.3555C95.6133 14.2773 96.6094 13.6328 96.8906 13.4219C98.7422 11.9922 99.668 10.0703 99.668 7.65625C99.668 7.1875 99.6211 6.73047 99.5273 6.28516C99.1523 4.57422 98.1562 3.71875 96.5391 3.71875C95.8828 3.71875 95.3789 3.88281 95.0273 4.21094C94.6289 4.5625 94.3828 5.35938 94.2891 6.60156C94.2656 7.16406 94.2305 7.57422 94.1836 7.83203C93.9492 8.91016 93.2695 9.44922 92.1445 9.44922C91.9336 9.44922 91.7227 9.41406 91.5117 9.34375C90.668 9.0625 90.2461 8.34766 90.2461 7.19922C90.2461 6.19141 90.6094 5.32422 91.3359 4.59766C92.5547 3.37891 94.3828 2.76953 96.8203 2.76953C98.0156 2.76953 99.1172 2.93359 100.125 3.26172C102.609 4.05859 103.852 5.60547 103.852 7.90234C103.852 9.26172 103.266 10.5273 102.094 11.6992C101.156 12.6133 99.3867 13.7383 96.7852 15.0742C95.8945 15.5195 95.25 15.8477 94.8516 16.0586C93.1172 17.043 92.25 17.9688 92.25 18.8359ZM116.051 2.76953C117.762 2.76953 119.262 3.17969 120.551 4C123.035 5.64062 124.277 8.51172 124.277 12.6133C124.277 15.0742 123.715 17.1602 122.59 18.8711C121.066 21.1914 118.828 22.3516 115.875 22.3516C113.977 22.3516 112.336 21.8359 110.953 20.8047C108.656 19.0469 107.508 16.2695 107.508 12.4727C107.508 10.0117 108.082 7.92578 109.23 6.21484C110.801 3.91797 113.074 2.76953 116.051 2.76953ZM115.98 21.4023C116.637 21.4023 117.211 21.2383 117.703 20.9102C119.133 19.9258 119.848 17.1016 119.848 12.4375C119.848 10.2344 119.684 8.46484 119.355 7.12891C118.816 4.85547 117.68 3.71875 115.945 3.71875C115.406 3.71875 114.926 3.82422 114.504 4.03516C112.793 4.87891 111.938 7.73828 111.938 12.6133C111.938 15.0273 112.125 16.9141 112.5 18.2734C113.062 20.3594 114.223 21.4023 115.98 21.4023ZM135.527 2.76953C137.238 2.76953 138.738 3.17969 140.027 4C142.512 5.64062 143.754 8.51172 143.754 12.6133C143.754 15.0742 143.191 17.1602 142.066 18.8711C140.543 21.1914 138.305 22.3516 135.352 22.3516C133.453 22.3516 131.812 21.8359 130.43 20.8047C128.133 19.0469 126.984 16.2695 126.984 12.4727C126.984 10.0117 127.559 7.92578 128.707 6.21484C130.277 3.91797 132.551 2.76953 135.527 2.76953ZM135.457 21.4023C136.113 21.4023 136.688 21.2383 137.18 20.9102C138.609 19.9258 139.324 17.1016 139.324 12.4375C139.324 10.2344 139.16 8.46484 138.832 7.12891C138.293 4.85547 137.156 3.71875 135.422 3.71875C134.883 3.71875 134.402 3.82422 133.98 4.03516C132.27 4.87891 131.414 7.73828 131.414 12.6133C131.414 15.0273 131.602 16.9141 131.977 18.2734C132.539 20.3594 133.699 21.4023 135.457 21.4023ZM146.637 13.9492H154.02V15.4258H146.637V13.9492ZM172.23 4L164.215 12.5078C164.918 12.3438 165.68 12.2617 166.5 12.2617C168.117 12.2617 169.488 12.6133 170.613 13.3164C172.23 14.3477 173.039 15.8477 173.039 17.8164C173.039 19.293 172.57 20.6289 171.633 21.8242C170.039 23.8164 167.648 24.8125 164.461 24.8125C163.031 24.8125 161.742 24.6016 160.594 24.1797C158.508 23.3828 157.465 22.1055 157.465 20.3477C157.465 20.1367 157.488 19.9258 157.535 19.7148C157.77 18.7539 158.438 18.2734 159.539 18.2734C160.078 18.2734 160.512 18.4023 160.84 18.6602C161.215 18.9883 161.449 19.7383 161.543 20.9102C161.59 21.4961 161.648 21.918 161.719 22.1758C161.977 23.3242 162.762 23.8984 164.074 23.8984C167.215 23.8047 168.855 21.9414 168.996 18.3086C168.996 17.5586 168.914 16.8672 168.75 16.2344C168.211 14.3359 167.062 13.3867 165.305 13.3867C164.531 13.3867 163.723 13.5625 162.879 13.9141L162.035 13.2109L168.188 6.10938H162.562C162.047 6.10938 161.648 6.13281 161.367 6.17969C160.664 6.29688 160.148 6.77734 159.82 7.62109L159.188 9.34375H158.344L158.414 3.12109H172.23V4ZM191.18 4.07031C187.5 9.36719 184.98 14.6289 183.621 19.8555C183.082 22.0117 182.73 23.2422 182.566 23.5469C182.168 24.3906 181.477 24.8125 180.492 24.8125C180.234 24.8125 179.988 24.7891 179.754 24.7422C178.699 24.4844 178.172 23.8047 178.172 22.7031C178.172 21.9766 178.43 21.0859 178.945 20.0312C179.578 18.7422 181.301 16.1406 184.113 12.2266C185.941 9.71875 187.395 7.69141 188.473 6.14453H180.035C179.543 6.14453 179.156 6.16797 178.875 6.21484C178.125 6.33203 177.598 6.82422 177.293 7.69141L176.66 9.44922H175.816L175.887 3.12109H191.18V4.07031ZM192.727 13.9492H200.109V15.4258H192.727V13.9492ZM218.988 24.3555H208.02V23.4062H211.957V18.9414L202.641 18.9062L202.43 17.8516C203.133 17.2891 203.801 16.7148 204.434 16.1289C207.27 13.4336 209.273 10.3867 210.445 6.98828C211.078 5.16016 211.418 4.17578 211.465 4.03516C211.934 3.12109 212.672 2.66406 213.68 2.66406C213.914 2.66406 214.125 2.6875 214.312 2.73438C215.438 2.94531 216 3.61328 216 4.73828C215.977 6.14453 214.711 8.125 212.203 10.6797C210.891 11.9922 208.16 14.3828 204.012 17.8516L211.957 17.8867V13.7031H212.309C212.684 13.7031 213 13.6797 213.258 13.6328C213.938 13.4922 214.406 12.9883 214.664 12.1211L215.121 10.6445H215.895V17.9219H218.988V18.9766H215.895V23.4062H218.145C218.285 23.4062 218.414 23.418 218.531 23.4414C218.836 23.4883 218.988 23.793 218.988 24.3555ZM228.516 3.12109H231.117V20.7695L234.176 21.0859C234.27 21.0859 234.363 21.0977 234.457 21.1211C234.949 21.2148 235.195 21.5078 235.195 22H222.434V21.0859L227.004 20.7695V5.65234L221.801 8.85156L221.168 7.86719L228.516 3.12109Z" fill="#73C9F7"/>
</svg>
