<?xml version="1.0" encoding="UTF-8"?>
<!DOCTYPE svg PUBLIC "-//W3C//DTD SVG 1.0//EN" "http://www.w3.org/TR/2001/REC-SVG-20010904/DTD/svg10.dtd">
<!-- Creator: CorelDRAW 2019 (64-Bit) -->
<svg xmlns="http://www.w3.org/2000/svg" xml:space="preserve" width="257.449mm" height="72.1802mm" version="1.0" style="shape-rendering:geometricPrecision; text-rendering:geometricPrecision; image-rendering:optimizeQuality; fill-rule:evenodd; clip-rule:evenodd"
viewBox="0 0 9200.78 2579.59"
 xmlns:xlink="http://www.w3.org/1999/xlink">
 <defs>
  <style type="text/css">
   <![CDATA[
    .fil0 {fill:#73C9F7}
    .fil1 {fill:#73C9F7}
   ]]>
  </style>
 </defs>
 <g id="Слой_x0020_1">
  <metadata id="CorelCorpID_0Corel-Layer"/>
  <g id="_2613626796912">
   <g>
    <path class="fil0" d="M4279.28 163.34c0.68,-0.26 2.03,-0.17 4.06,0.27 44.4,9.52 86.77,20.36 127.08,32.51 0.3,0.08 0.75,0.11 1.34,0.09 0.64,-0.02 1.1,0.01 1.38,0.09 48.46,15.86 94.33,36.18 137.6,60.99 1.15,0.65 1.75,1.97 1.47,3.25l-52.54 239.71c-0.16,0.79 -0.86,1.35 -1.66,1.35 0,0 -0,0 -0.01,0l-29.34 0c-1.17,0 -2.25,-0.56 -2.9,-1.5 -58.21,-82.26 -134.97,-141.45 -227.09,-181.67 -121.35,-52.98 -267.1,-42.79 -385.61,10.22 -33.89,15.16 -64.21,34.43 -90.96,57.82 -0.98,0.86 -2.19,1.72 -3.65,2.6 -1.27,0.77 -2.31,1.42 -2.52,1.57 -29.26,27.48 -46.13,43.79 -50.61,48.93 -3.41,3.92 -17.37,20.3 -41.89,49.12 -4.38,5.16 -7.5,10.03 -9.35,14.61 -0.33,0.82 -0.72,1.52 -1.18,2.17 -9.51,13.75 -18.7,28.81 -27.56,45.19 -63.95,117.94 -96.66,243.62 -105.27,381.64 -7.95,127.71 1.58,256.47 38.6,379.76 3.51,11.71 10.63,31.09 21.37,58.12 13.67,34.41 30.91,67.32 51.75,98.76 63.35,95.52 148.14,163.32 254.37,203.4 9.25,3.49 20.45,6.98 33.62,10.49 16.99,4.52 28.38,7.4 34.15,8.63 81.51,17.57 166.44,18.91 247.71,-1.14 33.39,-8.25 64.06,-18.15 92.03,-29.73 25.14,-10.42 50.42,-22.48 75.84,-36.18 10.88,-5.86 27.4,-15.73 49.57,-29.61 32.01,-20.06 61.17,-42.7 87.47,-67.92 0.67,-0.66 1.7,-0.87 2.61,-0.52l27.43 11.34c1.06,0.44 1.76,1.49 1.76,2.64 0,0.24 -0.03,0.47 -0.09,0.7l-51.4 203.25c-0.32,1.24 -1.17,2.29 -2.33,2.86 -173.73,86.12 -372.11,112.68 -567.71,97.03 -101.16,-8.11 -199.99,-31.47 -296.51,-70.1 -175.7,-70.31 -323.88,-190.7 -410.95,-359.23 -43.93,-85.02 -71.55,-174.9 -82.89,-269.64 -5.74,-48.01 -7.41,-99.27 -5.02,-153.8 2.85,-64.92 10.3,-126.06 22.35,-183.41 35.53,-169.04 121.89,-330.48 252.23,-444.03 9.8,-8.55 17.37,-14.92 22.71,-19.12 11.97,-9.4 19.85,-15.39 23.64,-17.96 12.04,-8.19 23.3,-17.48 38.07,-26.68 24.32,-15.18 40.95,-25.5 49.87,-30.96 11.95,-7.32 22.89,-11.38 34.04,-17.69 20.42,-11.57 37.76,-20.13 52.02,-25.67 12.59,-4.9 21.95,-8.62 28.09,-11.15 40.52,-16.7 82.86,-29.46 122.72,-39.12 86.99,-21.1 176.16,-32.82 267.5,-35.17 52.53,-1.35 102.34,0.91 149.43,6.78 27.83,3.49 58.55,8.43 92.15,14.82 1.17,0.22 1.9,0.56 2.18,1.01 0.12,0.21 0.34,0.33 0.57,0.33 0.09,0 0.18,-0.02 0.27,-0.06l-0 0z"/>
    <path class="fil0" d="M6864.76 174.55c0.99,2.24 0.69,4.25 1.56,6.39 219.05,543.56 437.99,1086.94 656.81,1630.16 0.06,0.14 0.09,0.29 0.09,0.45 0,0.63 -0.51,1.13 -1.14,1.13 0,0 0,0 0,0 -64.99,0.18 -136.92,-4.57 -194.53,-8.45 -11.21,-0.76 -43.84,0.8 -97.89,4.66 -38.4,2.75 -76.85,3.97 -115.34,3.67 -1.08,-0.01 -2.07,-0.74 -2.41,-1.8 -26.26,-84.17 -52.27,-165.29 -78.03,-243.34 -28.06,-84.89 -55.78,-165.96 -88.78,-246.82 -0.47,-1.25 -1.7,-2.1 -3.09,-2.12l-550.72 0c0,-0 -0,-0 -0,-0 -1,0 -1.89,0.64 -2.21,1.58 -28.87,85.28 -55.12,160.69 -78.77,226.23 -21.06,58.36 -36.66,106.47 -55.97,162.52 -6.11,17.75 -16.11,51.72 -29.97,101.93 -0.22,0.76 -0.92,1.29 -1.72,1.29 -0.07,0 -0.15,-0 -0.22,-0.01 -21.93,-2.57 -42.78,-4.56 -62.54,-5.97 -33.51,-2.39 -62.88,-2.52 -88.12,-0.39 -38.83,3.29 -63.18,5.43 -73.06,6.43 -0.01,0 -0.03,0 -0.04,0 -0.35,0 -0.63,-0.28 -0.63,-0.63 0,-0.08 0.02,-0.16 0.05,-0.24l680.57 -1647.25c0.49,-1.12 1.65,-1.74 2.81,-1.52 50.94,8.86 102.42,9.91 154.46,3.16 6.96,-0.9 14.4,-2.99 22.32,-3.14 0.01,0 0.03,0 0.04,0 0.92,0 1.76,0.52 2.17,1.35 1.53,2.98 2.45,5.95 2.75,8.9 0.12,1.1 0.64,1.7 1.55,1.82zm-184.3 449.17c-0.2,-0.53 -0.7,-0.87 -1.26,-0.87 -0.55,0 -1.04,0.33 -1.25,0.84l-221.36 549.45c-0.07,0.16 -0.1,0.34 -0.1,0.51 0,0.74 0.6,1.34 1.34,1.34 0,0 0.01,0 0.01,0l429.27 0c0.74,0 1.34,-0.6 1.34,-1.34 0,-0.16 -0.03,-0.33 -0.09,-0.48l-207.91 -549.45z"/>
    <path class="fil0" d="M4692.98 185.19c0,-0.01 0,-0.04 0,-0.06 -0.04,-0.46 0.3,-0.86 0.74,-0.89 0.02,0 0.04,0 0.06,0l1222.97 -0c0,0 0.01,0 0.01,0 0.33,0 0.6,0.27 0.6,0.6 0,0.02 0,0.04 -0,0.06 -1.52,17.53 -3.95,33.08 -7.29,46.64 -3.08,12.55 -2.9,20.59 -4.99,34.07 -1.64,10.85 -2.12,24.89 -0.24,37.14 2.33,15.18 2.31,26.15 6.07,40.85 2.97,11.61 5.11,25.15 6.43,40.61 0.01,0.04 0.01,0.08 0.01,0.13 0,0.68 -0.56,1.23 -1.25,1.23 -0.05,0 -0.1,-0 -0.14,-0.01 -91.45,-11.18 -182.18,-20.12 -272.2,-26.84 -49.92,-3.72 -99.9,-5.76 -149.91,-6.12 -0.58,0 -1.04,0.47 -1.04,1.05l-0 1457.47c0,0.84 -0.68,1.52 -1.52,1.52 -33.19,-0.02 -61.05,-0.84 -83.58,-2.48 -42.57,-3.09 -69.76,-4.97 -81.57,-5.65 -8.21,-0.48 -16.38,-0.48 -24.51,0 -20.76,1.22 -51.11,3.3 -91.05,6.25 -23.31,1.73 -50.86,1.82 -72.16,1.94 -0.82,0 -1.49,-0.66 -1.49,-1.47l-0 -1457.12c0,-0.86 -0.69,-1.55 -1.55,-1.55 -147.64,0.06 -296.6,12.99 -441.2,33.17 -0.05,0.01 -0.1,0.01 -0.15,0.01 -0.65,0 -1.17,-0.52 -1.17,-1.17 0,-0.06 0.01,-0.11 0.01,-0.16 4.92,-31.3 8.47,-62.03 10.66,-92.18 0.64,-8.71 -0.43,-25.59 -3.19,-50.65 -0.8,-7.25 -3.24,-26.05 -7.32,-56.39z"/>
    <path class="fil0" d="M8113.61 186.47l0 641.72c0,0 0,0 0,0 0,0.97 0.77,1.76 1.73,1.79 98.57,2.88 209.7,6.53 333.41,10.93 15.52,0.56 31.97,0.53 49.37,-0.09 69.5,-2.45 183.82,-6.1 342.94,-10.94 0.55,-0.01 0.99,-0.46 0.99,-1.01 0,0 0,0 0,0l0 -643.37c0,-0.01 0,-0.04 0,-0.08 0.04,-0.68 0.63,-1.19 1.32,-1.15 0.03,0 0.05,0 0.07,0 16.09,2.01 32.29,3.53 48.63,4.54 8.92,0.58 25.15,2.04 48.68,4.39 38.51,3.88 70.24,5.45 95.2,4.69 14.02,-0.42 39.03,-2.3 75.03,-5.64 19.88,-1.84 34.64,-3.1 44.28,-3.8 16,-1.15 30.73,-2.55 44.2,-4.18 0.03,0 0.04,0 0.06,0 0.66,-0.04 1.22,0.46 1.25,1.1 0,0.03 0,0.05 0,0.07l-0 1624.89c0,0 0,0 0,0 0,1.34 -1.09,2.42 -2.42,2.42 -0.01,0 -0.02,0 -0.03,0 -48.76,-0.38 -96.89,-2.79 -144.36,-7.23 -17.66,-1.68 -42.73,-1.77 -65.08,-0.03 -55.79,4.36 -95.71,7.08 -144.95,7.23 -1.04,0 -1.88,-0.84 -1.88,-1.88l0 -791.54c0.01,-0.83 -0.64,-1.54 -1.47,-1.58 -153.5,-5.48 -319.51,-10.5 -478.51,-7.06 -93.29,2.01 -175.81,4.39 -247.56,7.11 -0.5,0.02 -0.9,0.44 -0.89,0.96l-0 792.26c0,-0 0,-0 0,-0 0,0.96 -0.78,1.73 -1.74,1.73 -0.01,0 -0.02,0 -0.03,0 -52.92,-0.56 -93.77,-3.26 -155.59,-8.07 -10.01,-0.75 -24.86,-0.48 -31.76,-0.03 -57.46,3.71 -107.84,8.13 -165.45,7.95 -0.73,-0.01 -1.33,-0.6 -1.34,-1.33l0 -1625.42c0,-0.03 0,-0.06 0,-0.09 0.04,-0.86 0.79,-1.51 1.66,-1.47 0.03,0 0.06,0.01 0.09,0.01 17.63,2.17 33.15,3.65 46.56,4.42 9.7,0.55 25.22,1.91 46.56,4.06 29,2.91 56.43,4.7 82.29,5.38 21.25,0.57 47.45,-2.96 65.59,-3.44 6.12,-0.16 17.64,-1.28 34.57,-3.35 16.76,-2.06 37.17,-2.3 56.48,-4.72 7.93,-0.98 14.64,-1.65 20.14,-2.03 0.04,0 0.08,0 0.12,0 1.03,0 1.85,0.83 1.85,1.85 0,0 0,0 0,0l0 0z"/>
    <path class="fil0" d="M3515.91 2281.13c-25.97,-36.13 -32.84,-81.49 -20.47,-122.81 17.21,-57.58 69.02,-80.14 125.59,-73.39 21.34,2.53 39.53,11.41 54.59,26.65 11.64,11.74 19.16,26.71 22.56,44.94 0.34,1.73 1.24,9.36 2.69,22.89 0.84,7.95 1.12,15.1 0.84,21.45 -0.03,0.86 -0.74,1.55 -1.61,1.55 0,0 0,0 -0,0l-136.71 0c0,0 0,0 0,0 -1.03,0 -1.88,0.82 -1.91,1.85 -0.84,26.56 6.78,49.33 22.85,68.31 9.71,11.5 24.14,17.33 40.4,18.23 22.63,1.27 43.02,-5.25 61.17,-19.57 0.72,-0.59 1.62,-0.9 2.55,-0.9 2.25,0 4.07,1.82 4.07,4.07 0,0.85 -0.27,1.68 -0.76,2.37 -2.03,2.93 -3.45,7.04 -4.24,12.34 -0.32,2.21 -1.9,5.64 -4.75,10.28 -0.66,1.08 -1.56,1.95 -2.62,2.58 -48.98,29.36 -113.35,25.36 -156.79,-12.86 -3.07,-2.71 -5.55,-5.37 -7.44,-7.98zm47 -101.15l72.94 0.78c0.01,-0 0.02,-0 0.03,-0 0.41,0 0.75,-0.34 0.75,-0.75 0,0 0,0 0,0l0.03 -4.69c0,0.24 0,0.24 0,0.24 0.69,-39.58 -14.06,-71.94 -32.96,-72.3l-6.48 -0.07c0.5,0.01 0.49,0.01 0.48,0.01 -18.91,-0.33 -34.8,31.51 -35.5,71.1 0,0 0,0 0,0l-0.03 4.94c0,0.41 0.34,0.75 0.75,0.75l0 0z"/>
    <path class="fil0" d="M4277.67 2127.48c14.88,-35.65 45.84,-48.83 83.7,-42.04 25.5,4.6 44.72,18.09 57.67,40.46 18.02,31.14 20.23,72.43 13.83,108.77 -8.31,47.03 -41.65,86.39 -91.92,86.51 -26.24,0.06 -46.25,-10.38 -60.03,-31.32 -0.21,-0.34 -0.59,-0.55 -0.99,-0.55 -0.64,0 -1.17,0.52 -1.17,1.17 0,0.01 0,0.03 0,0.04l0 147.46c0,0.79 -0.64,1.43 -1.43,1.43 -0.09,0 -0.18,-0.01 -0.27,-0.03 -20.98,-4.16 -42.02,-4.12 -63.14,0.13 -0.07,0.01 -0.14,0.01 -0.21,0.01 -0.63,0 -1.13,-0.5 -1.14,-1.13l-0 -347.04c0,-1.14 0.93,-2.06 2.07,-2.06l59.55 0c1.02,0 1.85,0.83 1.85,1.85l-0 36.01c0,0 0,0.01 0,0.02 0,0.46 0.38,0.84 0.84,0.84 0.34,0 0.65,-0.21 0.78,-0.53l-0 0zm-0.57 73.9c-0.6,27.19 1.4,77.51 32.15,88.48 1.32,0.48 4.49,0.76 9.5,0.86 5.02,0.12 8.21,-0.03 9.56,-0.45 31.2,-9.62 35.41,-59.79 36.01,-86.98 0.6,-27.19 -1.4,-77.51 -32.12,-88.48 -1.34,-0.48 -4.51,-0.78 -9.53,-0.9 -5.02,-0.1 -8.21,0.06 -9.56,0.48 -31.17,9.59 -35.41,59.79 -36.01,86.99z"/>
    <path class="fil0" d="M5089.44 2320.96c-27.79,-0.18 -55.07,-6.78 -77.42,-22.77 -39.35,-28.15 -50.5,-77.84 -39.77,-124.25 13.12,-56.83 58.86,-90.77 118,-90.42 27.76,0.18 55.04,6.76 77.39,22.74 39.38,28.18 50.53,77.87 39.8,124.25 -13.15,56.83 -58.9,90.81 -118,90.45zm-1.94 -19.12c20.62,0.48 34.84,-19.63 40.97,-38.25 12.31,-37.47 14.66,-75.16 7.05,-113.07 -4.51,-22.5 -16.94,-46.92 -43.45,-47.51 -26.47,-0.6 -40.01,23.19 -45.57,45.48 -9.34,37.51 -8.72,75.26 1.85,113.25 5.26,18.89 18.56,39.62 39.14,40.1z"/>
    <path class="fil0" d="M5715.75 2320.93c-27.79,-0.18 -55.07,-6.78 -77.42,-22.77 -39.38,-28.18 -50.53,-77.87 -39.8,-124.25 13.15,-56.83 58.86,-90.81 118,-90.42 27.79,0.15 55.07,6.75 77.42,22.74 39.39,28.15 50.53,77.84 39.81,124.24 -13.15,56.83 -58.9,90.78 -118,90.45zm-1.76 -19.27c20.56,0.48 34.75,-19.6 40.85,-38.16 12.29,-37.39 14.64,-75 7.05,-112.83 -4.51,-22.47 -16.94,-46.82 -43.39,-47.42 -26.41,-0.6 -39.92,23.16 -45.48,45.39 -9.3,37.45 -8.67,75.13 1.88,113.01 5.26,18.86 18.49,39.56 39.09,40.01z"/>
    <path class="fil0" d="M6846.09 2193.67c7.47,2.09 13.25,3.6 17.33,4.54 27.82,6.39 49.99,28.71 47.3,58.45 -3.71,40.82 -48.76,58.96 -85.22,62.93 -27.63,3.01 -56.73,1.95 -87.31,-3.17 -9.48,-1.57 -18.37,-4.2 -26.65,-7.89 -0.64,-0.29 -1.05,-0.93 -1.05,-1.64 0,-0.16 0.03,-0.33 0.07,-0.49l8.61 -31.52c0.32,-1.19 1.39,-2.02 2.63,-2.02 0.76,0 1.49,0.32 2,0.88 6.4,6.99 12.22,13.18 20.44,16.64 24.83,10.46 51.87,12.61 75.72,0.48 16.34,-8.31 23.07,-22.83 22.29,-41.59 -0.91,-21.88 -13.14,-35.33 -36.69,-40.37 -6.93,-1.47 -17.73,-1.55 -32.39,-0.24 -0.05,0 -0.1,0 -0.15,0 -0.93,0 -1.68,-0.75 -1.68,-1.67 0,-0 0,-0.01 0,-0.01l0 -22.85c0,-0 0,-0.01 0,-0.01 0,-0.88 0.71,-1.58 1.59,-1.58 0.05,0 0.1,0 0.15,0.01 28.66,2.57 55.13,1.62 60.36,-32.63 2.51,-16.55 -2.44,-29.81 -14.85,-39.77 -0.98,-0.75 -1.94,-1.29 -2.95,-1.67 -23.07,-8.53 -46.05,-6.99 -68.94,4.6 -6.08,3.09 -10.64,7.55 -13.68,13.39 -0.44,0.83 -1.3,1.34 -2.24,1.34 -1.07,0 -2.03,-0.67 -2.39,-1.68l-10.76 -29.55c-0,-0.02 -0.02,-0.06 -0.03,-0.09 -0.41,-1.27 0.27,-2.64 1.53,-3.04 0.04,-0.01 0.07,-0.02 0.1,-0.03 14.1,-3.83 27.13,-6.33 39.1,-7.51 42.64,-4.24 98.28,-6.69 131.48,26.09 0.73,0.73 1.38,1.53 1.93,2.38 13.25,20.6 12.65,51.86 -9.61,67.16 -0.58,0.4 -1.18,0.7 -1.82,0.9 -3.43,1.14 -7.53,3 -12.29,5.59 -2.49,1.35 -9.77,2.99 -21.84,4.93 -0.01,0 -0.02,0 -0.03,0 -0.2,0 -0.36,0.16 -0.36,0.36 0,0.19 0.14,0.34 0.33,0.36l0 0z"/>
    <path class="fil0" d="M7069.36 2289.11c-0.15,-0.36 -0.5,-0.6 -0.89,-0.6 -0.31,0 -0.61,0.15 -0.79,0.41 -14.02,20.08 -33.49,30.77 -58.39,32.06 -22.56,1.2 -47.27,-7.02 -60.45,-25.88 -8.47,-12.11 -11.72,-27.9 -9.77,-47.36 1.29,-12.79 5.93,-22.77 13.9,-29.94 11.77,-10.62 26.13,-18.46 43.09,-23.52 36.4,-10.89 57.73,-17.41 64.01,-19.54 0.85,-0.29 1.62,-0.82 2.21,-1.52 9.81,-11.69 7.66,-28.54 -1.28,-39.57 -7.39,-9.15 -15.92,-15.57 -25.58,-19.28 -1.01,-0.39 -2.13,-0.58 -3.26,-0.54 -7.05,0.16 -12.13,0.25 -15.24,0.27 -20.91,0.09 -42.19,13.81 -54.05,29.94 -0.26,0.36 -0.68,0.57 -1.13,0.57 -0.67,0 -1.25,-0.48 -1.38,-1.14l-4.81 -27.61c-0.02,-0.13 -0.03,-0.25 -0.03,-0.37 0,-0.66 0.33,-1.29 0.87,-1.67l19.03 -13.35c0.08,-0.09 0.17,-0.15 0.27,-0.21 33.98,-17.19 69.6,-21.04 106.85,-11.54 18.15,4.62 32.8,14.15 43.96,28.59 5.97,7.74 8.36,21.01 8.24,31.53 -0.1,8.41 -0.09,52.36 0.03,131.86 0,5.28 2.38,9.99 7.14,14.13 0.56,0.5 1.27,0.83 2,0.93l14.43 1.82c0.69,0.09 1.2,0.67 1.2,1.36 0,0 0,0.01 0,0.01l0 7.62c-0,1.01 -0.6,1.92 -1.53,2.29 -17.25,7.1 -27.99,10.9 -32.21,11.42 -27.07,3.33 -45.89,-7.08 -56.44,-31.23zm-2.03 -94.78c-22.53,6.69 -47.15,12.82 -57.94,33.26 -4.99,9.47 -5.59,30 -3.56,39.65 4.26,20.16 16.66,27.76 37.2,22.8 17.63,-4.27 24.95,-29.43 25.22,-45.18 0.3,-16.25 0.35,-32.84 0.15,-49.75 -0.01,-0.45 -0.38,-0.81 -0.83,-0.81 -0.08,0 -0.16,0.01 -0.24,0.04l0 0z"/>
    <path class="fil0" d="M7681.35 2186.89l5.74 -21.99c0.09,-0.33 0.2,-0.62 0.34,-0.9 2.66,-5.06 4.47,-10.11 5.43,-15.15 0.15,-0.74 0.43,-1.57 0.81,-2.34 17.64,-33.12 45.45,-53.12 83.42,-60.02 35.14,-6.39 76.17,-1.94 109.21,14.94 1.56,0.79 2.31,2.64 1.72,4.32l-16.78 45.7c-0.31,0.8 -1.09,1.34 -1.97,1.34l-7.54 0c0,0 0,0 0,0 -0.98,0 -1.79,-0.78 -1.82,-1.76 -0.3,-15.42 -12.67,-34.27 -25.13,-41.56 -18.02,-10.49 -40.01,-8.1 -55.49,6.3 -5.58,5.2 -10.32,12.51 -14.22,21.93 -12.57,30.36 -15.41,62.03 -8.51,95.02 2.03,9.76 5.69,19.33 10.96,28.72 4.52,8.05 10.18,14.31 16.97,18.79 15.21,10.07 26,10.64 44.55,10.49 7.03,-0.04 13.86,-1.52 20.47,-4.45 10.44,-4.62 18.56,-10 24.36,-16.13 0.4,-0.41 0.94,-0.65 1.51,-0.65 0.5,0 0.98,0.18 1.36,0.5l5.08 4.34c-0,0 0,0 0,0 0.78,0.66 0.9,1.82 0.25,2.59 -0,0 -0.01,0.01 -0.01,0.01 -0.54,0.64 -3.79,7.91 -9.75,21.81 -4.72,11 -22.35,15.75 -33.41,18.32 -64.78,15.18 -142.8,-11.15 -155.29,-84.89 -2.41,-14.16 -3.19,-29.14 -2.33,-44.94 -0.01,-0.12 0.01,-0.23 0.05,-0.33l0 0z"/>
    <path class="fil0" d="M3471.75 2289.77c-2.29,13.17 -2.27,25.81 0.06,37.92 0.03,0.11 0.04,0.23 0.04,0.35 0,0.99 -0.8,1.79 -1.79,1.79 -0.41,0 -0.82,-0.15 -1.14,-0.41 -17.54,-14.22 -40.55,-13.32 -65.5,-13.74 -11.18,-0.18 -53.75,-0.17 -127.74,0.03 -15.7,0.06 -28.57,0.54 -38.61,1.43 -0.01,0 -0.03,0 -0.05,0 -0.66,0.04 -1.22,-0.49 -1.26,-1.16 -0,-0.02 -0,-0.04 -0,-0.06l0 -225.55c0,-0.6 0.48,-1.08 1.08,-1.08l63.88 0c0.71,0 1.29,0.58 1.29,1.28l0 195.69c0,0.94 0.76,1.7 1.7,1.7l76.46 0.01c1.03,-0 1.85,-0.83 1.85,-1.85l0 -194.82c0,-1.11 0.9,-2 2,-2l62.24 0c1.06,0 1.91,0.87 1.91,1.94l0 195.33c0,0.78 0.64,1.4 1.44,1.4l20.61 0.01c0.85,0 1.54,0.7 1.54,1.55 0,0.08 -0.01,0.16 -0.02,0.24l0 0z"/>
    <path class="fil0" d="M4820.99 2089.33c59.52,0 92.73,0.01 99.62,0.03 1.75,0.02 3.37,-0.22 4.84,-0.71 0.14,-0.05 0.28,-0.07 0.42,-0.07 0.73,0 1.32,0.59 1.32,1.32 0,0 0,0 0,0.01l-0.01 224.98c0.01,0 0.01,0 0.01,0.01 0,0.43 -0.35,0.78 -0.78,0.78 -0.04,0 -0.08,-0 -0.12,-0.01 -21.68,-3.62 -43.06,-3.6 -64.16,0.06 -0.05,0.01 -0.1,0.01 -0.15,0.01 -0.54,0 -0.99,-0.44 -0.99,-0.99 0,-0 0,-0.01 0,-0.01l0 -196.62c0,0 0,0 0,0 0,-0.63 -0.5,-1.15 -1.13,-1.17 -1.24,-0.04 -14.2,-0.06 -38.88,-0.06 -24.68,0 -37.63,0.02 -38.84,0.06 -0.64,0 -1.17,0.52 -1.17,1.17l-0.03 196.62c0,0 0,0 0,0.01 0,0.55 -0.44,0.99 -0.99,0.99 -0.05,0 -0.1,-0 -0.15,-0.01 -21.1,-3.66 -42.48,-3.68 -64.15,-0.06 -0.04,0.01 -0.08,0.01 -0.12,0.01 -0.43,0 -0.78,-0.35 -0.78,-0.78 0,-0 0,-0.01 0,-0.01l0.03 -224.98c0,-0 0,-0.01 0,-0.01 0,-0.73 0.59,-1.32 1.32,-1.32 0.14,0 0.29,0.02 0.42,0.07 1.47,0.5 3.09,0.74 4.87,0.72 6.87,-0.04 40.07,-0.05 99.59,-0.03z"/>
    <path class="fil0" d="M5301.72 2157.04c-0.1,-0.26 -0.34,-0.43 -0.61,-0.43 -0.31,0 -0.58,0.21 -0.64,0.51 -11.28,52.16 -20.91,104.33 -28.9,156.52 -0.18,1.1 -1.13,1.91 -2.24,1.91l-34.61 0c0,-0 0,-0 0,-0 -0.5,0 -0.9,-0.4 -0.9,-0.9 0,-0.08 0.01,-0.16 0.03,-0.24 8.9,-30.24 19.52,-67.4 31.85,-111.48 3.6,-12.89 8.4,-31.61 14.4,-56.18 3.85,-15.8 8.71,-34.46 14.58,-56 0.23,-0.85 1.03,-1.46 1.94,-1.47l47.57 0c1.06,-0.01 2.08,0.54 2.68,1.45 0.74,1.13 0.86,2.19 0.34,3.18 -0.41,0.8 -0.46,1.72 -0.17,2.56 4.5,13.19 10.33,25.2 14.87,36.74 10.96,27.67 20.76,52.7 29.41,75.09 1.95,5.08 3.79,10.73 5.53,16.94 1.65,5.9 3.58,11.5 5.8,16.8 0.16,0.39 0.55,0.65 0.97,0.65 0.43,0 0.81,-0.26 0.98,-0.66 4.6,-11.23 7.19,-23.54 11.8,-34.87 7.05,-17.35 13.88,-33.43 20.47,-48.23 3.98,-9 8.03,-20.36 12.13,-34.07 2.57,-8.52 6.78,-19.8 12.61,-33.83 0.44,-1.06 1.47,-1.76 2.63,-1.76 0,0 0,0 0,0l49.3 0c0.64,-0.01 1.22,0.45 1.37,1.11 10.24,48.11 18.67,86.19 25.28,114.26 0.06,0.24 0.88,4.75 2.45,13.53 0.76,4.1 1.77,8.57 3.05,13.39 6.73,25.26 14.87,52.62 24.41,82.08 0.05,0.16 0.08,0.32 0.08,0.49 0,0.86 -0.7,1.55 -1.55,1.55 -0.07,0 -0.13,-0 -0.2,-0.01 -18.14,-2.48 -33.77,-3.88 -50.86,-1.85 -7.01,0.84 -12.43,1.3 -16.25,1.4 -0.01,-0 -0.02,-0 -0.03,-0 -0.92,0 -1.71,-0.65 -1.88,-1.55l-27.43 -156.67c-0.03,-0.13 -0.08,-0.24 -0.15,-0.34 -0.27,-0.38 -0.78,-0.47 -1.14,-0.2 -0.1,0.07 -0.18,0.16 -0.24,0.28 -3.09,5.55 -5.31,11.81 -6.66,18.76 -0.02,0.19 -0.07,0.37 -0.13,0.53 -24.44,57.62 -37.88,91 -50.28,138.51 -0.17,0.65 -0.76,1.11 -1.44,1.11 -0.11,0 -0.21,-0.01 -0.32,-0.04 -16.79,-3.52 -33.44,-3.56 -49.93,-0.12 -1.23,0.23 -2.43,-0.45 -2.84,-1.6l-57.13 -156.89z"/>
    <path class="fil0" d="M5881.11 2089.29l62.33 0c1.13,0 2.03,0.9 2.03,2l0 194.41c0,1.25 1.02,2.27 2.27,2.27l42.79 0c0.99,-0 1.8,-0.81 1.8,-1.8l-0 -195.06c0,-1.01 0.82,-1.83 1.83,-1.83l62.98 0c0.78,0 1.4,0.63 1.4,1.4l0 195.6c0,0.94 0.75,1.7 1.68,1.7l44.07 0c0.66,0 1.2,-0.54 1.2,-1.2l-0 -195.66c0,-1.03 0.82,-1.85 1.83,-1.85l62.33 0c1.11,0 2,0.91 2,2.03l-0 195.07c0,0.88 0.71,1.58 1.58,1.58l20.26 0c0.87,0 1.57,0.71 1.57,1.58 0,0.08 -0.01,0.16 -0.02,0.24 -1.89,12.55 -1.89,25.43 0,38.64 0.01,0.07 0.01,0.14 0.01,0.2 0,0.86 -0.69,1.55 -1.55,1.55 -0.41,0 -0.8,-0.16 -1.09,-0.45 -13.72,-13.83 -46.79,-14.01 -64.6,-14.07 -69.14,-0.16 -141.86,-0.17 -218.13,-0.03 -6.45,0.02 -16.15,0.47 -29.07,1.35 -0.01,0 -0.03,0 -0.05,0 -0.71,0.04 -1.31,-0.52 -1.35,-1.25 0,-0.02 0,-0.04 0,-0.06l-0 -224.45c0,-1.08 0.86,-1.94 1.92,-1.94l-0 0z"/>
    <path class="fil0" d="M6289.71 2230.48c34.74,-45.83 66.14,-92.33 94.18,-139.48 0.57,-0.99 1.65,-1.61 2.82,-1.62l45.2 0c1.07,-0.01 1.94,0.86 1.94,1.94l0.03 222.5c-0,0.95 -0.78,1.72 -1.73,1.72 -0.09,0 -0.18,-0.01 -0.27,-0.02 -21.74,-3.33 -42.46,-3.4 -62.18,-0.21 -0.03,0 -0.07,0.01 -0.11,0.01 -0.97,0.09 -1.83,-0.65 -1.91,-1.63 -0.01,-0.04 -0.01,-0.09 -0.01,-0.13l-0.03 -139.47c0,-0.01 0,-0.02 0,-0.03 0,-0.64 -0.52,-1.17 -1.17,-1.17 -0.38,0 -0.74,0.19 -0.95,0.5 -9.58,13.37 -18.05,24.71 -25.4,34.01 -26.24,33.23 -48.35,70.28 -69.54,107.18 -0.49,0.88 -1.54,1.34 -2.55,1.11 -15.31,-3.55 -30.41,-3.58 -45.29,-0.09 -0.08,0.01 -0.16,0.02 -0.24,0.02 -0.59,0 -1.07,-0.48 -1.08,-1.07l-0.03 -223.96c0,-0.66 0.54,-1.2 1.2,-1.2l63.74 0c0.73,-0 1.32,0.59 1.32,1.31l0.03 139.07c0.01,0.62 0.51,1.12 1.14,1.12 0.35,0 0.68,-0.16 0.9,-0.44l0 0z"/>
    <path class="fil0" d="M7495.43 2230.36c34.76,-45.86 66.18,-92.36 94.25,-139.51 0.57,-0.99 1.65,-1.61 2.82,-1.62l45.2 0c1.07,-0 1.94,0.87 1.94,1.94l0 222.58c-0.01,0.95 -0.78,1.72 -1.74,1.72 -0.09,0 -0.18,-0.01 -0.27,-0.02 -21.73,-3.35 -42.47,-3.42 -62.21,-0.24 -0.03,0 -0.07,0.01 -0.11,0.01 -0.97,0.09 -1.83,-0.65 -1.91,-1.63 -0,-0.04 -0.01,-0.09 -0.01,-0.13l0 -139.5c0,-0.01 0,-0.02 0,-0.03 0,-0.64 -0.52,-1.17 -1.17,-1.17 -0.38,0 -0.74,0.19 -0.95,0.5 -9.58,13.37 -18.05,24.7 -25.4,34 -26.27,33.23 -48.38,70.28 -69.6,107.21 -0.49,0.88 -1.54,1.33 -2.55,1.11 -15.31,-3.55 -30.41,-3.59 -45.29,-0.12 -0.08,0.01 -0.16,0.02 -0.24,0.02 -0.59,0 -1.08,-0.48 -1.08,-1.07l-0 -224.01c0,-0.66 0.54,-1.2 1.2,-1.2l63.76 0c0.73,-0 1.32,0.59 1.32,1.31l0 139.13c0.01,0.62 0.51,1.12 1.14,1.12 0.35,0 0.68,-0.16 0.9,-0.44l0 0z"/>
    <path class="fil0" d="M7989.36 2230.4c34.74,-45.86 66.15,-92.37 94.22,-139.51 0.58,-0.99 1.65,-1.61 2.82,-1.62l45.19 0c1.07,-0 1.94,0.87 1.94,1.94l0 222.58c-0.01,0.95 -0.78,1.73 -1.73,1.73 -0.09,0 -0.18,-0.01 -0.27,-0.02 -21.71,-3.35 -42.44,-3.43 -62.18,-0.24 -0.03,0 -0.07,0.01 -0.11,0.01 -0.97,0.09 -1.83,-0.65 -1.91,-1.63 -0,-0.04 -0.01,-0.09 -0.01,-0.13l-0.03 -139.5c0,-0.01 0,-0.01 0,-0.02 0,-0.65 -0.52,-1.17 -1.17,-1.17 -0.38,0 -0.74,0.19 -0.95,0.5 -9.58,13.37 -18.05,24.7 -25.4,34.01 -26.24,33.23 -48.35,70.28 -69.56,107.21 -0.49,0.88 -1.54,1.34 -2.55,1.11 -15.31,-3.55 -30.41,-3.58 -45.29,-0.12 -0.08,0.01 -0.16,0.03 -0.24,0.03 -0.59,0 -1.07,-0.48 -1.07,-1.07l-0 -223.99c0,-0.66 0.54,-1.2 1.2,-1.2l63.74 0c0.73,0 1.32,0.59 1.32,1.32l0.03 139.1c0,0.62 0.51,1.12 1.13,1.12 0.35,0 0.68,-0.16 0.9,-0.44l0 0z"/>
    <path class="fil0" d="M8234.6 2157.06c-0.11,-0.29 -0.39,-0.49 -0.7,-0.49 -0.36,0 -0.66,0.25 -0.73,0.61 -3.23,15.39 -4.6,27.97 -8.25,44.77 -7.87,36.06 -14.59,73.31 -20.17,111.75 -0.15,1.06 -1.05,1.85 -2.12,1.85l-34.46 0c0,-0 0,-0 0,-0 -0.71,0 -1.28,-0.58 -1.28,-1.29 0,-0.13 0.02,-0.26 0.06,-0.39 5.32,-17.01 13,-43.23 23.04,-78.65 4.98,-17.61 16.96,-62.74 35.95,-135.39 0.48,-1.79 0.99,-4.73 1.53,-8.81 0.13,-0.99 0.98,-1.73 1.97,-1.74l47.27 0c1.05,-0.01 2.02,0.64 2.42,1.64 17.81,44.25 28.84,72.16 33.08,83.73 1.39,3.77 2.6,7.34 3.61,10.73 1.89,6.06 1.91,8.63 4.27,14.55 5.7,14.16 10.93,28.11 15.69,41.83 0.1,0.27 0.36,0.46 0.65,0.46 0.28,0 0.53,-0.17 0.64,-0.43l33.5 -83.87c0.14,-0.31 0.2,-0.64 0.18,-0.98 -0.04,-1.98 0.02,-3.12 0.18,-3.45 9.46,-21.89 17.67,-42.77 24.62,-62.63 0.34,-0.95 1.24,-1.58 2.24,-1.59l48.98 0c0.04,0 0.06,0 0.09,0 0.91,0.05 1.6,0.84 1.55,1.76 0,0.03 -0,0.05 -0,0.07 -0.22,1.99 0.3,6.13 1.55,12.43 9.25,46.79 19.87,92.25 31.89,136.38 0.25,0.92 0.38,1.81 0.39,2.7 0.19,6.63 1.66,14.19 4.39,22.7 4.58,14.25 9.93,30.37 16.04,48.38 0.05,0.15 0.08,0.3 0.08,0.46 0,0.81 -0.65,1.47 -1.47,1.47 -0.05,0 -0.11,-0 -0.16,-0.01 -10.91,-1.25 -23.43,-3.11 -34.04,-2.78 -9.4,0.26 -20.25,1.19 -32.54,2.81 -0.86,0.14 -1.7,-0.46 -1.88,-1.35l-27.46 -156.87c-0.05,-0.38 -0.36,-0.65 -0.74,-0.65 -0.3,0 -0.58,0.19 -0.69,0.47 -22.89,52.01 -42.14,104.15 -57.76,156.4 -0.33,1.02 -1.28,1.68 -2.31,1.61 -2.96,-0.22 -6.51,-0.65 -10.65,-1.31 -12.64,-2 -24.53,-0.84 -38.04,1.47 -1.43,0.23 -2.79,-0.58 -3.24,-1.91 -6.19,-17.73 -14.37,-39.48 -24.55,-65.23 -0.76,-1.93 -1.55,-5.22 -2.39,-9.86 -0.1,-0.68 -0.26,-1.29 -0.49,-1.88l-29.72 -79.46z"/>
    <path class="fil0" d="M8757.94 2089.35l64.66 0c0.45,-0 0.81,0.36 0.81,0.8l0 222.68c-0,0.44 -0.36,0.8 -0.81,0.8l-64.66 0.01c-0.44,-0.01 -0.8,-0.37 -0.8,-0.81l0 -222.67c0,-0.45 0.36,-0.81 0.8,-0.81z"/>
    <path class="fil0" d="M9094.87 2176.07l-2.39 -19.12c-0.04,-0.32 -0.31,-0.55 -0.62,-0.55 -0.25,0 -0.47,0.15 -0.57,0.37 -7.09,15.28 -12.87,28.98 -17.33,41.09 -8.53,23.07 -13.73,36.97 -15.6,41.72 -10.26,25.94 -18.62,50.61 -25.07,74.01 -0.28,0.99 -1.18,1.68 -2.21,1.68 -0.05,0 -0.1,-0 -0.15,-0.01 -6.96,-0.41 -15.9,-2.63 -22.44,-2.48 -8.33,0.18 -17.03,1.04 -26.12,2.57 -0.16,0.02 -0.33,0.04 -0.5,0.04 -1.37,0 -2.58,-0.85 -3.06,-2.13l-56.84 -156.09c-0.14,-0.39 -0.51,-0.63 -0.92,-0.63 -0.46,0 -0.86,0.32 -0.96,0.78l-29.25 156.85c-0.11,0.78 -0.81,1.39 -1.65,1.4l-33.94 0c-0.01,-0 -0.01,-0 -0.02,-0 -0.63,0 -1.14,-0.51 -1.14,-1.14 0,-0.11 0.02,-0.22 0.05,-0.33 5.24,-17.59 12.6,-42.88 22.08,-75.87 0.08,-0.32 0.19,-1.6 0.33,-3.85 0,-0.02 0,-0.04 0,-0.06l39.11 -143.43c0.26,-0.95 1.1,-1.6 2.05,-1.59l46.42 0c1.04,-0.01 2.02,0.65 2.41,1.67 4.65,12.55 12.18,31.63 22.58,57.23 0.38,0.94 0.71,3.34 0.99,7.2 0.04,0.52 0.15,1.07 0.35,1.59l32.88 84.26c0.07,0.18 0.19,0.34 0.33,0.46 0.51,0.44 1.28,0.4 1.71,-0.1 0.13,-0.15 0.21,-0.33 0.26,-0.51 5.26,-22.44 13.42,-38.19 26.51,-68.64 0.6,-1.39 1.54,-4.99 2.84,-10.79 0.02,-0.14 0.06,-0.28 0.12,-0.42l28.33 -70.58c0.36,-0.85 1.17,-1.39 2.05,-1.38l48.14 0c0,0 0.01,0 0.01,0 1.14,0 2.06,0.92 2.06,2.06 0,0.06 -0,0.12 -0.01,0.18 -0.36,4.32 -0.1,7.97 0.78,10.94 0.84,2.87 1.37,4.88 1.61,6.03 8.67,43.15 18.15,83.9 28.45,122.25 1.1,4.03 1.1,9.89 2.42,14.79 5.88,21.79 12.86,44.67 20.95,68.61 0.05,0.13 0.07,0.26 0.07,0.4 0,0.69 -0.56,1.25 -1.25,1.25 -0.08,0 -0.15,-0.01 -0.22,-0.02 -21.55,-3.68 -43.52,-3.75 -65.89,-0.18 -1.27,0.19 -2.43,-0.65 -2.63,-1.88l-25.04 -137.22c-0.06,-0.16 -0.09,-0.31 -0.11,-0.45l0.05 0z"/>
    <path class="fil0" d="M3844.21 2183.12c23.05,0 35.83,-0.12 38.37,-0.36 0.93,-0.09 1.63,-0.88 1.61,-1.81l0 -90.52c0,-0.63 0.51,-1.14 1.14,-1.14l63.31 0c1.01,0 1.83,0.82 1.83,1.82l-0 222.58c-0,0.95 -0.78,1.72 -1.73,1.72 -0.09,0 -0.18,-0.01 -0.27,-0.02 -21.14,-3.32 -41.9,-3.31 -62.27,0.06 -0.09,0.01 -0.18,0.02 -0.26,0.02 -0.92,0 -1.67,-0.75 -1.68,-1.67l-0.06 -101.17c0,-0 0,-0 0,-0 0,-1 -0.81,-1.82 -1.82,-1.82 -0.01,0 -0.02,0 -0.03,0 -0.94,-0.06 -13.65,-0.09 -38.13,-0.09 -24.5,0 -37.22,0.03 -38.16,0.09 -0.01,0 -0.02,0 -0.03,0 -1.01,0 -1.82,0.81 -1.82,1.82 0,0 0,0 0,0l-0.03 101.18c0,0.92 -0.75,1.67 -1.67,1.67 -0.09,0 -0.18,-0.01 -0.27,-0.02 -20.38,-3.37 -41.14,-3.39 -62.27,-0.06 -0.09,0.01 -0.18,0.02 -0.27,0.02 -0.95,0 -1.73,-0.77 -1.73,-1.72l-0.03 -222.58c0,-1.01 0.82,-1.83 1.83,-1.83l63.31 0c0.63,0 1.14,0.51 1.14,1.14l0 90.54c-0.01,0.92 0.69,1.7 1.6,1.79 2.54,0.24 15.34,0.36 38.41,0.36z"/>
    <path class="fil0" d="M4083.05 2089.33c33.29,0.02 67.73,0.05 103.33,0.09 0.01,0 0.01,0 0.01,0 1.12,0 2.03,0.91 2.03,2.03 0,0.25 -0.05,0.49 -0.13,0.71 -3.07,8.25 -3.12,16.59 -0.15,25.01 0.03,0.06 0.05,0.15 0.06,0.24 0.12,0.75 -0.38,1.45 -1.11,1.57 -0.09,0.01 -0.18,0.02 -0.27,0.01l-69.17 -4.09c-0.03,-0 -0.06,-0 -0.09,-0 -0.84,0 -1.53,0.68 -1.53,1.52 0,0 0,0 0,0l0 198.05c0,0.02 0,0.05 0,0.08 -0.04,0.74 -0.69,1.31 -1.44,1.27 -0.02,0 -0.05,-0 -0.07,-0.01 -10.35,-1.28 -21.29,-3.01 -31.69,-3.01 -10.4,-0.03 -21.33,1.7 -31.67,2.96 -0.03,0 -0.05,0 -0.08,0 -0.76,0.04 -1.41,-0.53 -1.44,-1.27 -0,-0.03 -0,-0.06 -0,-0.09l0.39 -198.04c0,-0 0,-0 0,-0 0,-0.84 -0.68,-1.53 -1.53,-1.53 -0.03,0 -0.06,0 -0.09,0l-69.18 3.95c-0.09,0 -0.18,-0.01 -0.26,-0.02 -0.73,-0.12 -1.23,-0.82 -1.11,-1.57 0.01,-0.09 0.04,-0.17 0.06,-0.25 2.96,-8.39 2.92,-16.73 -0.13,-25 -0.08,-0.22 -0.12,-0.45 -0.12,-0.69 0,-1.12 0.91,-2.03 2.03,-2.03 0,0 0,0 0,0 35.6,0.02 70.04,0.05 103.33,0.09z"/>
    <path class="fil0" d="M7325.59 2194.42c0.44,0.18 1.8,0.06 4.1,-0.36 0.96,-0.2 1.99,0.05 2.79,0.67 1.77,1.39 3.87,2.06 6.29,2.02 5.38,-0.09 7.77,1.32 12.28,2.96 27.11,9.92 39.51,28.78 37.2,56.59 -2.78,33.71 -32.42,49.99 -61.85,56.3 -10.08,2.15 -24.34,3.19 -42.79,3.11 -33.87,-0.18 -64.75,-0.2 -92.66,-0.06 -0.59,0 -1.07,-0.48 -1.07,-1.08l0 -223.36c0,-1.02 0.84,-1.85 1.88,-1.85 38.87,-0.08 72.16,-0.06 99.86,0.04 18.57,0.04 34.58,2.55 48.05,7.53 13.37,4.96 22.79,11.33 28.27,19.12 6.52,9.22 8.57,20.28 6.15,33.17 -3.25,17.53 -12.5,30.24 -27.76,38.13 -0.21,0.09 -0.48,0.19 -0.75,0.28l-19.83 4.54c-0.53,0.13 -0.9,0.6 -0.9,1.15 0,0.49 0.3,0.93 0.75,1.12zm-69.59 -82.02l0.24 69.98c0,0.43 0.35,0.78 0.78,0.78l17.54 -0.06c18.68,-0 33.91,-14.59 33.91,-32.57 0,0 0,0 0,0l0 -6.51c0,-17.87 -15.24,-32.45 -34.03,-32.45 0,0 -0,0 -0,0l-17.65 0.06c-0.43,-0 -0.78,0.35 -0.78,0.78l0 0zm0.09 93.85l0 83.43c0,0.51 0.42,0.92 0.93,0.92l20.76 0c23.1,-0 41.84,-17.69 41.84,-39.5l0 -6.27c0,-21.81 -18.73,-39.5 -41.84,-39.5l-20.76 0c-0.51,-0 -0.93,0.41 -0.93,0.92l-0 0z"/>
    <path class="fil0" d="M8539.21 2310.62l0 -219.18c0,-1.19 0.96,-2.16 2.15,-2.16l62.15 0c1.04,0 1.88,0.84 1.88,1.88l0 92.66c0,-0 0,-0 0,-0 0,1.17 0.95,2.12 2.12,2.12 0.01,0 0.02,0 0.03,0 16.41,-0.24 32.16,-0.21 47.24,0.09 38.97,0.78 73.86,23.45 71.89,65.77 -1.85,39.35 -46.29,60.36 -80.95,60.69 -46.63,0.46 -81.47,0.52 -104.49,0.18 -1.13,-0.02 -2.03,-0.94 -2.03,-2.06 0,0 0,0 0,0l0 0zm66.04 -107.93l0.3 92.22c0,0.36 0.3,0.65 0.66,0.65l9.05 -0.03c-0.14,-0 -0.13,-0 -0.12,-0 23.58,0 42.7,-18.36 42.7,-41 0,0 0,0 0,0l-0.06 -11.68c0,-22.49 -19.11,-40.84 -42.68,-40.85l-9.2 0.04c-0.36,-0 -0.66,0.29 -0.66,0.65l0 0z"/>
   </g>
  </g>
  <g id="_2613626807760">
   <path class="fil1" d="M47.51 927.2c-49,164.1 -57.89,359.18 -36.74,527.66 34.99,278.59 148.57,494.23 323.72,700.39 266.55,286.41 585.92,445.97 995.04,421.97 176.11,-10.32 357.22,-46.94 507.76,-143.52 13.51,-8.67 24.38,-13.54 31.76,-23.61l-0.45 -2.22c-17.74,18.55 -191.12,66.11 -221.09,72.9 -140.34,31.75 -345.14,39.92 -482.74,24.32 -267.79,-30.31 -549.28,-167.2 -729.45,-370.64 -147.6,-166.7 -247.86,-349.2 -300.4,-578.74 -68.87,-300.85 -29.16,-593.71 98.69,-833.34 125.12,-234.5 277.78,-377.35 509.49,-495.47 241.39,-123.04 551.05,-155.31 839.46,-73.18 480.23,136.74 870.73,555.31 836.15,1166.65 -14.66,259.06 -124.84,512.04 -303.85,699.28 -81.09,84.82 -179.06,151.84 -297.31,203.67 -63.58,27.87 -119.03,41.9 -191.37,60.47 -703.29,180.44 -1219.62,-315.99 -1193.88,-278.78 149.9,216.63 502.16,410.05 786.31,425.76 145.58,8.05 251.76,8.37 397.15,-18.19 234.07,-57.3 359.26,-93.88 554.44,-282.24 208.35,-201.14 348.8,-522.96 360.7,-816.23 3.01,-202.56 -14.23,-344.39 -78.3,-517.11 -125.29,-337.79 -405.86,-616.09 -748.01,-731.53 -220.09,-74.26 -534.27,-85.58 -752.64,-32.78 -474.52,114.67 -771.85,450.38 -904.45,894.51z"/>
   <path class="fil1" d="M771.54 507.1c1.74,1.38 15.83,29.61 19.21,35.19 7,11.59 16.41,24.81 23.39,33.95 13.14,17.23 40.26,50.41 56.06,61.35 -17.62,-34.99 -18.41,-49 -17.53,-93.24 2.22,3.21 1.71,1.69 3.36,7.35 3.69,12.68 -0.54,25.21 8.17,52.48 10.76,33.69 31,59.82 60.38,77.03 10.19,5.97 34.83,20.27 48.64,22.82 -4.97,-7.96 -11.95,-15.56 -17.41,-25.38 -19.01,-34.17 -27.22,-63.29 -25.94,-105.61 7.62,10.56 7.51,78.46 56.62,132.41 14.28,15.69 68.04,27.2 89.57,28.78 -20.89,-36.1 -60.64,-67.47 -53.21,-145.95 1.78,2.96 0.84,-1.46 2.65,7 1.01,4.7 0.84,6.17 1.14,10.88 0.56,9.14 0.11,8.74 1.85,17.34 6.35,31.34 22.81,62.68 41.7,87.3 24.8,32.33 29.37,28.58 92.9,33.25 9.91,0.73 24.15,-0.23 33.06,3.4l4.07 2.43c-22.44,17.64 -85.72,-12.84 -111.29,0.59 -30.47,16.01 -39.47,39.48 -91.96,36.22 22.17,-7.3 46.18,-4.49 81.83,-39.68l-44.76 -11.92c-12.74,-3.53 -31.56,-12.34 -43.64,-8.66 -23.9,7.29 -58.72,29.13 -92.89,14.83 17.3,-8.42 25.51,7.38 83.3,-18.41 -7.42,-11.54 -24.12,-14.25 -34.97,-19.64 -13.24,-6.58 -24.61,-13.71 -34.61,-20.2 -13.88,-9 -65,-11.88 -86.9,-19.8 8.94,-3.86 45.68,4.62 61.47,4.75l-66.95 -73.42c-24.84,-31.4 -30.41,-49.33 -47.32,-87.45zm454.61 255.15l21.98 -0.2 -0.1 240.55c38.37,-7.71 55.55,3.69 58.43,-20.09 0.43,-3.56 0.26,-10.55 0.23,-14.38l-0.21 -205.68c42.33,6.37 31.25,7.49 75.37,29.73 23.19,11.69 49.39,23.76 74.79,31.45 25.47,7.71 65.99,11.35 95.72,8.05 15.74,-1.74 30.91,-5.37 39.59,-14.51 13.32,-14.04 2.74,-26.31 2.66,-40.02 58.73,-6.03 95.47,-2.1 97.96,-54.59 106.09,-26.68 54.72,-53.17 71.34,-77.85 5.21,-7.73 20.48,-17.07 27.64,-27.14 17.47,-24.55 5.74,-56.47 16.29,-86.93 5.54,-15.99 3.93,-28.57 7.42,-44.55 17.17,-78.62 -53.32,-34.2 -71.38,0.75 -23.39,-1.27 -40.6,-15.07 -67.3,1.46 -20.46,12.67 -21.79,35.57 -48.15,34.61 -37.35,-1.37 -63.96,-2.01 -99.9,17.97 -13.12,7.29 -12.82,10.15 -23.85,18.42 -14.75,-5.19 -16.82,-11.38 -38.16,-5.07 -42.89,12.69 -88.88,95.18 -110.19,133.58 -10.94,19.71 -21.51,42.43 -33.45,61.51l-16.02 2.43c-1.03,-141.14 -2.53,-66.29 24.35,-115.19 19,-34.56 0.05,-88.36 -50.4,-90.73 -65.36,-3.07 -91.1,79.87 -33.27,115.08l-0.09 91.24 -17.2 -1.45 -21.23 -40.97c-14.46,-16.17 -41.55,-95.05 -99.27,-141.95 -19.86,-16.14 -34.29,-18.52 -61.52,-9.15 -45.16,-33.21 -60.49,-38.08 -123.68,-35.46 -24.36,1.01 -28.19,-21 -44.6,-32.55 -27.46,-19.34 -43.64,-4.12 -70.68,-4.13 -18.13,-32.74 -87.39,-79.99 -71.94,-2.16 3.22,16.2 2.35,26.81 7.47,43.65 9.61,31.59 1.29,67.56 16.58,89.5 8.58,12.32 18.69,15.62 26.33,25.52 12.77,16.55 -2.56,21.9 4.16,41.42 8.5,24.7 43.42,31.99 68.55,37.96 1.53,53.1 43.23,49.22 97.82,54.63 -0.51,12.94 -9.61,22.83 -0.11,37.1 18.25,27.39 100.83,18.75 128.64,11.7 70.73,-17.92 119.19,-56.72 139.39,-63.55zm440.76 -94.23c31.16,-0.76 47.25,-4 72.68,-11.93 -37.93,23.73 -73.18,15.14 -90.73,22.65 -9.83,4.21 -22.82,15.56 -35.8,21.68 -14.21,6.69 -33.95,12.73 -39.88,20.75 28.99,23.53 70.54,13.13 82.14,20.1 -31.77,13.83 -74.03,-7.75 -92.78,-14.79 -9.05,-3.4 -87.1,19.32 -88.84,20.53 43.14,38.83 69.53,34.33 82.26,39.87 -47.39,2.09 -61.41,-15.79 -90.31,-35.26 -11.56,-7.79 -38.07,-1.98 -54.92,-0.51 -18.16,1.58 -47.1,8.21 -58.2,-1.22l76.97 -9.49c35.56,-2.97 38.41,-11.51 54.69,-31.04 10.76,-12.92 23.76,-37.51 30.79,-55.13 4.5,-11.28 7.38,-21.81 9.5,-33.82 2.09,-11.78 0.44,-32.83 2.35,-38.82 11.05,27.32 0.19,63.52 -9.66,88.88 -10.41,26.83 -25.58,46.25 -43.83,64.56 20.33,-3.19 79.11,-13.12 91.63,-28.12 58.43,-69.98 46.96,-124.03 54.5,-145.09 9.81,16.57 0.28,63.85 -6.01,81.43 -10.59,29.57 -19.5,39.45 -33.19,60.25 28.22,-6.93 68.5,-31.75 84.67,-54.55 42.89,-60.43 22.29,-88.53 35.6,-107.82 2.83,57.7 -4.03,57.8 -16.96,95.84 23.58,-19.66 60.31,-65.22 77.37,-92.99 8.29,-13.5 12.48,-25.19 19.3,-36.62 7.8,21.98 -59.89,103.19 -76.12,123.28 -16.89,20.9 -28.72,21.39 -37.23,37.38z"/>
   <path class="fil1" d="M1346.04 920.13c-6.16,-1.94 -7.11,-7.84 -2.72,-11.22 4.49,-3.46 9.49,-4.02 12.26,1.24 3.85,7.33 -1.72,12.44 -9.54,9.97zm-137.14 108.12c-26.15,8.55 -42.05,22.63 -53.21,33.05 -15.75,14.71 -23.82,24.68 -29.62,47.31 -3.35,13.06 -4.38,32.44 -1.14,47.08 6.35,28.68 23.4,46.53 46.73,59.55 3.37,-0.74 63.05,-32.28 65.83,-34.76 -17.51,-13.39 -46.05,-39.62 -29.09,-69.48 14.16,-24.92 67.65,-30.72 113.61,-33.38 38.4,-2.22 62.49,-2.54 99.91,-14.75 25.82,-8.43 46.64,-19.84 65.08,-37.84 27.8,-27.15 48.41,-81.22 17.72,-120.21 -36.62,-46.51 -158.76,-38.18 -180.66,8.94 -12.72,27.38 8.95,42.76 32.11,44.84l5.03 0.51c71.3,8.01 58.2,-37.6 93.9,-16.26 10.36,43.68 -71.68,63.22 -138.35,71.05 -40.83,4.8 -68.69,1.54 -107.84,14.33z"/>
   <path class="fil1" d="M1328.32 1096.81c12.65,27.4 32.24,36.74 2.81,67.98 -44.7,47.46 -203.93,44.78 -187.81,153.24 2.64,17.78 12.65,34.85 23.9,45.03 9.97,9.02 15.26,11.73 19.43,11.55 2.97,-0.12 45.62,-21.08 51.73,-23.8 -4.89,-16.89 -14.92,-19.65 -16.7,-37.03 -1.6,-15.63 5.18,-32.96 19.43,-43.78 37.41,-28.38 111.68,-34.59 161.05,-71.42 34.65,-25.85 43.68,-78.68 13.34,-114.25 -27.82,2.66 -58.06,9.16 -87.19,12.47z"/>
   <path class="fil1" d="M1214.77 913.59c0.4,6.16 -1.27,8.04 -7.17,7.64 -6,-0.41 -6.33,-2.31 -6.18,-6.54 0.44,-11.77 12.91,-7.67 13.34,-1.09zm-78.31 143.44c14.99,-25.56 48.41,-36.2 73.3,-48.11 -31.35,-12.48 -81.65,-11.42 -103.61,-38.68 -9.93,-12.32 -12.87,-29.24 8.1,-36.74 33.55,-1.09 23.48,23.71 63.34,23.94 13.63,0.28 10.78,-4.99 17.52,4.69 3.14,4.52 3.85,14.91 4.71,21.22 0.24,-9.37 2.73,-15.87 -0.79,-26.03 57.05,-8.63 40.8,-56.14 -2.48,-74.76 -37,-15.92 -93.03,-11.81 -126.29,7.12 -37.06,21.1 -43.05,62.28 -20.27,105.46 13.33,25.27 56.82,55.91 86.46,61.88z"/>
   <path class="fil1" d="M1172.75 1425.63c-4.59,23.43 5.48,56.49 24.75,65.55 15.91,-8.99 25.25,-19.87 42.88,-28.14 -5.76,-21.78 -5.32,-33.41 14.3,-47.41 17.2,-12.28 76.59,-24.41 102.68,-37.6 70.68,-35.75 51.82,-105.18 14.99,-144.43l-63 24.38c3.34,21.67 26.2,44.48 9.96,67.36 -30.73,43.29 -134.1,36.8 -146.55,100.3z"/>
   <path class="fil1" d="M1192.38 1541.52c-0.53,33.17 30.95,34.72 57.3,34.62 1.42,-10.42 3.46,-17.97 2.51,-19.23 -1.27,-1.69 -12.14,-3.19 -9.35,-17.58 3.43,-17.65 93.35,-34.74 114.53,-66.93 14.84,-22.56 9.19,-53.67 4.83,-79.07l-49.42 17.38c0.26,45.54 -6.74,37.43 -51.62,60.14 -28.21,14.27 -68.21,34.67 -68.79,70.68z"/>
   <path class="fil1" d="M1186.04 1622.11c37.24,-3.11 92.97,-16.64 127.92,-36.62 32.86,-18.79 46.47,-42.73 36.5,-85.95l-43.22 17.53c0.8,35.82 -12.5,53.88 -35.95,66.79 -28.21,15.53 -54.45,19.65 -85.25,38.26z"/>
   <path class="fil1" d="M1291.76 1631.18c0.53,-9.7 4.22,-20.36 -4.8,-21.19l-25.46 9.72c-2.49,13.95 8.69,138 11.74,151.27 6.08,-2.25 7.57,0.11 8.63,-2.16 4.69,-10.03 8.73,-118.01 9.9,-137.64z"/>
   <path class="fil1" d="M1252.8 1148.89l0.71 25.07c13.89,3.4 40.67,-2.74 47.89,-12.78l0.5 -61.26 -49.51 4.65 0.42 44.32z"/>
   <path class="fil1" d="M1299.44 1326.93c0.51,-16.05 2.19,-44.65 0.03,-63.93 -14.73,-1.32 -31.38,9.72 -45.82,15.1l-0.2 64.51c18.5,-0.46 31.09,-10.49 46,-15.67z"/>
   <path class="fil1" d="M1353.63 1632.72c9.46,2.86 20.81,4.04 30.59,4.21 -14.69,-14.06 -46.25,-15.6 -50.07,-46.24 -14.25,-0.32 -19.99,4.25 -28.19,11.8 8.44,13.86 32.65,25.7 47.67,30.23z"/>
   <path class="fil1" d="M1258.42 1539.79l0.61 32.69 35.24 -18.35 1.09 -29.48c-13.56,4.36 -27.15,10.06 -36.95,15.14z"/>
   <path class="fil1" d="M1266.39 1452.91c8.11,-4.59 23.19,-12.39 31.94,-16.18l-0.53 -20.02c-15.85,-0.23 -29.39,7.73 -41.8,14.28l0.4 21.16 9.99 0.76z"/>
   <path class="fil1" d="M858.82 2271.38c15.59,3.98 29.02,6.54 38.31,6.84 16.87,-63.87 -1.28,-122.67 -23.97,-162.61 -20.61,-36.28 -72.11,-73.23 -108.42,-106.76 -61.72,-56.98 -112.01,-99.85 -169.07,-159.65 -30.77,-32.25 -32.7,-27.29 -39.21,-62.22 -9.98,-53.51 -15.51,-110.8 -27.24,-162.94 -12.08,-53.75 -31.92,-99.18 -43.41,-149.89 -8.67,-38.29 -11.08,-44.88 3.19,-88.02 9.99,-30.21 21.07,-58.9 30.48,-90.25 11.56,-38.51 29.66,-179.56 43.08,-197.74 28.8,-1.27 42.9,27.12 49.39,49.28 8.9,30.4 6.13,45.73 2.78,78.85 -5.61,55.43 -10.75,121.79 -20.51,175.03 -77.25,16.14 -16.83,126.4 9.29,180.59 31.42,65.19 33.33,58.65 65.83,111.19 35.16,56.86 59.54,132.46 92.87,165.72 -1.96,-11.23 -30.27,-68.97 -38.77,-87.2 -17.77,-38.13 -44.6,-92.3 -68.65,-126.03 -19.25,-26.99 -52.46,-98.98 -64.79,-128.72 -7.44,-17.95 -38.24,-81.01 -5.52,-98.24 26.92,-14.17 83.21,28 98.47,41.4 44.2,38.83 75.76,105.07 105.05,156.75 90.66,159.98 159.94,120.83 318.79,246.2 53.71,42.39 99.21,95.47 118.48,150.11 11.49,32.56 17.67,65.16 15.24,105.21 -7.98,131.26 -27.74,161.13 -126.14,225.79l-14.39 2.62 -28.35 3.29 -18.46 -1.04 -13.84 0.66 -89.72 -18.17c-10.44,-2.11 -10.81,-1.49 -20.8,-6.97 -7.98,-4.37 -3.15,-0.86 -9.81,-6.44l-24.62 -18.94 -14.27 -8.95c-5.67,-5.24 -12.47,-10.62 -19.21,-15.23 -0.67,-1.18 -1.34,-2.38 -2.09,-3.51zm-214.74 -858.51c-7.29,-5.4 -5.56,-0.88 -6.38,-13.39 -0.19,-2.94 0.42,-10.06 0.85,-14.67 6.71,-72.1 3.39,-161.06 22.85,-234.87 23.54,10.5 12.32,21.88 5.22,62.94 -4.05,23.45 -9.7,47.23 -11.24,69.8l-6.16 116.05c-0.43,2.88 -0.84,4.88 -1.73,7.62 -1.79,5.48 -1.13,3.79 -3.4,6.53zm-37.32 -13.83c-1.9,-4.1 -1.01,-1.1 -1.68,-7.09l20.64 -196.58c5.65,-101.77 -44.18,-70.93 -14.08,-126.76 6.81,-12.64 14.02,-25.46 23.03,-33.67 32.01,2.1 36.25,42.73 28.03,74.07 -9.56,36.49 -15.71,63.03 -22.56,101.49 -17.56,98.62 -7.44,129.83 -16.19,193.15l-17.2 -4.61z"/>
   <path class="fil1" d="M1659.83 2299.21c-16.18,2.8 -30.03,4.34 -39.52,3.9 -12.05,-66.31 11.11,-124.67 37.38,-163.46 23.87,-35.25 79.19,-68.71 118.81,-99.91 67.33,-53.02 121.91,-92.58 184.73,-148.85 33.88,-30.34 35.44,-25.14 44.85,-60.14 14.43,-53.63 24.64,-111.45 40.73,-163.54 16.59,-53.7 40.39,-98.32 56.14,-148.97 11.89,-38.25 14.86,-44.75 3.79,-89.78 -7.74,-31.52 -16.72,-61.59 -23.78,-94.23 -8.67,-40.09 -15.8,-184.99 -27.99,-204.55 -29.18,-3.6 -45.8,24.15 -54.17,46.17 -11.48,30.21 -9.9,46.02 -9.14,79.96 1.27,56.83 1.18,124.72 6.85,179.65 77.28,22.6 7,129.9 -23.89,182.92 -37.17,63.79 -38.59,56.98 -75.84,107.82 -40.31,55.01 -71.16,129.96 -107.71,161.11 2.89,-11.27 36.31,-67.72 46.4,-85.58 21.12,-37.36 52.74,-90.3 79.91,-122.69 21.74,-25.91 61.27,-96.47 76.19,-125.73 9.01,-17.67 45.38,-79.34 13.47,-99.47 -26.24,-16.56 -86.87,21.82 -103.46,34.23 -48.06,35.96 -85.45,100.8 -119.37,151.02 -105,155.45 -172.33,110.09 -343.92,224.89 -58.02,38.82 -108.53,89.16 -132.51,143.19 -14.29,32.2 -23.18,64.86 -23.91,105.79 -1.28,71.75 14.97,189.45 82.86,224.86 8.79,4.58 19.61,8.84 27.37,14.86l14.42 3.82 28.57 5.61 18.86 0.42 14.03 1.78 92.7 -11.3c10.79,-1.32 11.11,-0.66 21.71,-5.43 8.47,-3.81 3.27,-0.63 10.5,-5.77l26.56 -17.3 15.23 -7.97c6.18,-4.87 13.53,-9.8 20.75,-13.95 0.78,-1.15 1.55,-2.32 2.41,-3.41zm287.08 -855.95c7.85,-4.91 5.72,-0.44 7.56,-13.1 0.43,-2.98 0.38,-10.27 0.31,-14.99 -1.06,-73.87 9.43,-164.08 -4.45,-240.71 -24.78,8.79 -14.28,21.27 -10.35,63.6 2.25,24.17 6.08,48.81 5.85,71.89l-3.02 118.51c0.21,2.97 0.46,5.03 1.15,7.88 1.38,5.71 0.85,3.95 2.94,6.91zm39.07 -11.08c2.26,-4.02 1.11,-1.04 2.27,-7.08l-5.27 -201.58c2.39,-103.96 50.6,-68.6 24.47,-127.79 -5.91,-13.39 -12.22,-27.01 -20.74,-36.08 -32.72,-0.43 -40.28,40.56 -34.44,73.09 6.8,37.87 10.94,65.36 14.83,105.02 9.96,101.7 -2.82,132.64 1.01,197.74l17.86 -3.31z"/>
  </g>
 </g>
</svg>
