<svg width="360" height="109" viewBox="0 0 360 109" fill="none" xmlns="http://www.w3.org/2000/svg">
<path d="M195.227 64.845L196.322 65.3191L194.509 72.3238C189.828 74.655 184.344 75.8178 178.058 75.8178C173.668 75.8178 169.555 75.182 165.732 73.8937C161.91 72.6082 158.586 70.7511 155.747 68.339C152.907 65.9158 150.707 63.0158 149.142 59.6166C147.577 56.2313 146.801 52.4919 146.801 48.4151C146.801 43.2536 147.659 38.7167 149.364 34.8017C151.069 30.8727 153.42 27.6491 156.439 25.1032C159.472 22.5685 162.976 20.6723 166.949 19.4147C170.937 18.1682 175.245 17.5464 179.883 17.5464C182.722 17.5464 185.684 17.8977 188.759 18.6032C191.847 19.2948 194.535 20.2708 196.818 21.5284C196.499 22.7609 196.168 24.197 195.806 25.8506C195.447 27.5041 195.156 28.8566 194.905 29.8883H193.742C192.177 27.638 190.142 25.8227 187.636 24.4702C185.131 23.1011 182.568 22.4235 179.965 22.4235C176.641 22.4235 173.762 23.129 171.297 24.5232C168.817 25.9314 166.795 27.8415 165.205 30.2536C163.611 32.6657 162.448 35.3343 161.716 38.2455C160.969 41.1594 160.595 44.1655 160.595 47.2942C160.595 51.9398 161.357 56.0584 162.893 59.6361C164.429 63.2109 166.687 65.9883 169.666 67.9654C172.656 69.9563 176.217 70.9463 180.37 70.9463C182.876 70.9463 185.493 70.3774 188.263 69.2258C191.02 68.088 193.346 66.6241 195.23 64.8506L195.227 64.845ZM229.64 24.7742V74.6773C228.947 74.6494 227.895 74.5825 226.496 74.4877C225.085 74.3929 224.058 74.351 223.408 74.351C222.73 74.351 221.692 74.3901 220.307 74.4877C218.907 74.5825 217.87 74.6494 217.177 74.6773V24.7742C212.633 24.7742 207.482 25.1534 201.724 25.9258C202 24.0018 202.126 22.8362 202.126 22.4318C202.126 22.0387 202 20.901 201.724 19.0048H244.514C244.432 19.5067 244.363 19.9389 244.278 20.2903C244.209 20.6556 244.138 21.0348 244.098 21.4419C244.055 21.8491 244.03 22.1725 244.03 22.4318C244.03 22.6884 244.058 23.0286 244.098 23.4469C244.138 23.8651 244.209 24.2583 244.278 24.6264C244.36 24.9917 244.429 25.4267 244.514 25.9258C237.992 25.1534 233.035 24.7742 229.643 24.7742H229.64ZM280.378 57.7734H261.034C260.549 59.1816 259.871 61.0917 258.984 63.4619C258.112 65.8461 257.351 67.9458 256.741 69.7611C256.116 71.5625 255.606 73.1743 255.218 74.5964C254.859 74.5685 254.235 74.5156 253.334 74.4486C252.433 74.3817 251.769 74.3538 251.327 74.3538C250.871 74.3538 250.221 74.3817 249.346 74.4486C248.488 74.5156 247.81 74.5713 247.325 74.5964L271.088 18.2714C272.168 18.4331 273.206 18.514 274.246 18.514C275.272 18.514 276.324 18.4331 277.405 18.2714L300.586 74.6773C299.753 74.6494 298.55 74.5825 296.943 74.4877C295.335 74.3929 294.146 74.351 293.342 74.351C292.553 74.351 291.361 74.3901 289.785 74.4877C288.206 74.5825 287.043 74.6494 286.281 74.6773C283.776 66.8332 281.809 61.1976 280.381 57.7706L280.378 57.7734ZM263.288 52.8154H278.479L271.085 33.8787L263.288 52.8154ZM308.807 74.6801V19.0048C309.722 19.0856 310.537 19.1665 311.23 19.2362C311.923 19.3171 312.615 19.3729 313.308 19.4258C314.001 19.4649 314.568 19.4928 315.024 19.4928C315.48 19.4928 316.076 19.4649 316.797 19.4258C317.504 19.3729 318.211 19.3171 318.875 19.2362C319.554 19.1693 320.358 19.0884 321.27 19.0048V41.0312C328.165 41.3017 332.404 41.4383 333.966 41.4383C335.241 41.4383 339.477 41.3017 346.691 41.0312V19.0048C347.606 19.0856 348.408 19.1665 349.075 19.2362C349.753 19.3171 350.431 19.3729 351.124 19.4258C351.831 19.4649 352.398 19.4928 352.84 19.4928C353.339 19.4928 353.963 19.4649 354.696 19.4119C355.443 19.3589 356.135 19.2892 356.788 19.2223C357.452 19.1554 358.242 19.0856 359.157 19.0048V74.6801C358.493 74.6522 357.467 74.5853 356.056 74.4905C354.656 74.3956 353.59 74.3538 352.843 74.3538C352.193 74.3538 351.181 74.3929 349.796 74.4905C348.425 74.5853 347.387 74.6522 346.694 74.6801V47.534C340.933 47.3165 336.697 47.2105 333.969 47.2105C331.019 47.2105 326.797 47.3193 321.273 47.534V74.6801C320.551 74.6522 319.514 74.5853 318.143 74.4905C316.771 74.3956 315.734 74.3538 315.027 74.3538C314.348 74.3538 313.311 74.3929 311.925 74.4905C310.554 74.5853 309.517 74.6522 308.81 74.6801H308.807Z" fill="#73C9F7"/>
<path fill-rule="evenodd" clip-rule="evenodd" d="M2.04483 39.0402C-0.0646136 45.9501 -0.446595 54.1623 0.462748 61.2562C1.97072 72.9875 6.85665 82.0669 14.3965 90.7447C25.8702 102.805 39.6158 109.522 57.224 108.51C64.8037 108.075 72.6001 106.533 79.0796 102.468C79.6611 102.102 80.1286 101.899 80.4479 101.475L80.4279 101.38C79.6639 102.161 72.2011 104.163 70.9126 104.45C64.8721 105.789 56.0581 106.132 50.1345 105.474C38.6095 104.199 26.4916 98.4326 18.738 89.8663C12.384 82.8476 8.06816 75.1625 5.80763 65.5004C2.843 52.8322 4.55337 40.5014 10.055 30.4126C15.4398 20.5385 22.0105 14.5237 31.9847 9.5518C42.3752 4.37075 55.7018 3.01275 68.1161 6.4705C88.7859 12.2288 105.593 29.8521 104.105 55.59C103.475 66.4986 98.7316 77.1479 91.0265 85.0338C87.5373 88.6059 83.3184 91.4279 78.2301 93.6085C75.4935 94.7824 73.1075 95.3736 69.9918 96.1544C39.7213 103.753 17.498 82.8504 18.604 84.4176C25.0578 93.5388 40.2173 101.684 52.4492 102.345C58.7148 102.685 63.2872 102.696 69.5443 101.578C79.6183 99.166 85.0088 97.6239 93.4095 89.6962C102.378 81.2275 108.421 67.6782 108.934 55.3279C109.062 46.7979 108.321 40.8277 105.565 33.5552C100.171 19.3339 88.096 7.61379 73.367 2.75621C63.8944 -0.369703 50.3711 -0.846538 40.9727 1.3759C20.5481 6.20559 7.75174 20.3377 2.04198 39.0374L2.04483 39.0402Z" fill="#73C9F7"/>
<path fill-rule="evenodd" clip-rule="evenodd" d="M33.2104 21.3527C33.2845 21.4113 33.8917 22.5992 34.0371 22.8334C34.3393 23.3214 34.744 23.8791 35.0434 24.2639C35.6106 24.9889 36.7765 26.3859 37.455 26.846C36.6967 25.3737 36.6625 24.7826 36.6996 22.9198C36.7965 23.0565 36.7737 22.9895 36.8449 23.2294C37.0046 23.762 36.8221 24.2918 37.1956 25.4406C37.6602 26.86 38.5297 27.9587 39.7953 28.6837C40.2343 28.9346 41.2947 29.537 41.8877 29.6457C41.6739 29.3111 41.3746 28.9904 41.138 28.5777C40.3198 27.1388 39.9664 25.9147 40.0205 24.13C40.3483 24.5762 40.3426 27.4344 42.4578 29.7043C43.0735 30.3651 45.3854 30.8503 46.3118 30.9173C45.4139 29.3975 43.7006 28.0758 44.0228 24.7714C44.0997 24.8969 44.0598 24.7101 44.1368 25.067C44.1795 25.265 44.1738 25.3263 44.1853 25.5243C44.2081 25.9091 44.191 25.8924 44.2651 26.2549C44.5387 27.5739 45.2457 28.8928 46.0609 29.9301C47.1299 31.2909 47.3238 31.132 50.0603 31.33C50.4879 31.3606 51.098 31.3216 51.4828 31.4722L51.6567 31.5754C50.6903 32.3171 47.968 31.0344 46.8677 31.6005C45.5564 32.2753 45.1687 33.2624 42.911 33.1258C43.866 32.819 44.8979 32.9361 46.4344 31.4555L44.5074 30.9535C43.9601 30.8057 43.1505 30.4349 42.6288 30.5882C41.5997 30.895 40.1003 31.8152 38.6294 31.2128C39.3734 30.8587 39.7269 31.5252 42.2155 30.4376C41.8962 29.9524 41.1779 29.8381 40.7104 29.6095C40.1402 29.3306 39.6499 29.0322 39.2223 28.759C38.6266 28.3797 36.4231 28.2598 35.4824 27.9252C35.8672 27.7635 37.4493 28.1204 38.1277 28.126L35.2458 25.0335C34.1768 23.7118 33.9373 22.9561 33.2076 21.3527H33.2104ZM52.777 32.094L53.7234 32.0857L53.7205 42.2135C55.371 41.89 56.1122 42.3697 56.2348 41.3686C56.2547 41.218 56.2462 40.9252 56.2462 40.7635L56.2376 32.1024C58.0591 32.3701 57.5831 32.4175 59.4816 33.3544C60.4793 33.848 61.6081 34.3555 62.6999 34.679C63.7974 35.0024 65.5391 35.1558 66.819 35.0192C67.4975 34.9467 68.1503 34.7933 68.5237 34.4085C69.0967 33.8173 68.6406 33.3014 68.6377 32.7242C71.1662 32.4705 72.7455 32.635 72.8538 30.4265C77.4205 29.3027 75.2084 28.1873 75.9239 27.15C76.1491 26.8237 76.8047 26.4306 77.1126 26.0067C77.8652 24.9722 77.3606 23.6309 77.8138 22.3482C78.0504 21.6762 77.982 21.1463 78.1331 20.4715C78.8714 17.1616 75.8384 19.0327 75.0602 20.5022C74.0539 20.4492 73.3127 19.8664 72.1639 20.5635C71.2831 21.0962 71.2261 22.061 70.0915 22.0191C68.4838 21.9634 67.3379 21.9355 65.7928 22.7748C65.2284 23.0816 65.2427 23.2015 64.7666 23.55C64.1309 23.3325 64.0426 23.0704 63.1247 23.3353C61.2775 23.8707 59.2992 27.3424 58.3813 28.9597C57.9109 29.7907 57.4548 30.7472 56.9417 31.5503L56.2519 31.6534C56.2063 25.7111 56.1435 28.8621 57.3009 26.8042C58.119 25.3486 57.3037 23.0844 55.1316 22.984C52.318 22.8557 51.212 26.3469 53.7006 27.8304L53.6977 31.673L52.9566 31.6116L52.0415 29.8855C51.4201 29.2051 50.2542 25.884 47.7685 23.9098C46.9133 23.2294 46.2918 23.129 45.1202 23.5249C43.1761 22.1251 42.5176 21.9216 39.7982 22.0331C38.7491 22.0749 38.5838 21.1491 37.8797 20.6611C36.6967 19.8469 36.0012 20.4883 34.8381 20.4883C34.0571 19.1107 31.0782 17.1197 31.7424 20.3962C31.882 21.0794 31.8421 21.5256 32.0645 22.2339C32.4778 23.564 32.1186 25.0781 32.7771 26.0039C33.1477 26.5226 33.581 26.662 33.9117 27.0775C34.4618 27.7746 33.8005 28.0005 34.0913 28.8203C34.4561 29.8604 35.9613 30.1672 37.0416 30.4181C37.1072 32.6545 38.9031 32.49 41.252 32.7186C41.2292 33.2624 40.8386 33.6807 41.2463 34.2802C42.0302 35.4319 45.5849 35.0694 46.7822 34.7738C49.8266 34.0209 51.9132 32.3868 52.7827 32.0968L52.777 32.094ZM71.7477 28.126C73.0875 28.0925 73.7831 27.9559 74.8749 27.624C73.2415 28.6223 71.7249 28.2626 70.9695 28.5777C70.5476 28.7562 69.9861 29.233 69.4274 29.4896C68.8145 29.7712 67.965 30.0249 67.7113 30.3624C68.9599 31.3523 70.7472 30.9145 71.246 31.2073C69.8778 31.7901 68.0591 30.881 67.2523 30.5854C66.8618 30.4432 63.5038 31.3997 63.4268 31.4499C65.2826 33.0839 66.42 32.8943 66.9673 33.1286C64.9263 33.215 64.3248 32.4649 63.0791 31.6423C62.5802 31.3132 61.44 31.5586 60.7159 31.62C59.9348 31.6869 58.6891 31.9657 58.2102 31.5698L61.5226 31.171C63.0534 31.0455 63.176 30.6858 63.8772 29.8632C64.3419 29.3195 64.9006 28.2849 65.2028 27.5432C65.3966 27.0691 65.5192 26.6258 65.6132 26.1183C65.7016 25.6219 65.6303 24.7352 65.713 24.4842C66.1891 25.6358 65.7216 27.1584 65.2968 28.2264C64.8493 29.3557 64.1965 30.1727 63.4097 30.9452C64.2849 30.8113 66.8162 30.393 67.355 29.76C69.8692 26.8126 69.376 24.5372 69.701 23.6504C70.1229 24.3475 69.7124 26.3385 69.4416 27.0803C68.9855 28.3267 68.6035 28.7422 68.0135 29.6178C69.2278 29.325 70.961 28.2793 71.6594 27.3201C73.5037 24.7742 72.6172 23.5919 73.1902 22.7804C73.3127 25.2092 73.0163 25.2148 72.4604 26.8154C73.4752 25.9872 75.0573 24.0687 75.7899 22.9003C76.1462 22.3315 76.3258 21.8407 76.6194 21.3583C76.9558 22.2841 74.0425 25.7028 73.3441 26.5477C72.6172 27.4288 72.1069 27.4484 71.742 28.1232L71.7477 28.126Z" fill="#73C9F7"/>
<path fill-rule="evenodd" clip-rule="evenodd" d="M57.9366 38.7418C57.6715 38.6609 57.6316 38.4128 57.8197 38.2705C58.0136 38.1255 58.2274 38.1004 58.3471 38.3235C58.5124 38.633 58.273 38.8478 57.9366 38.7446V38.7418ZM52.033 43.2926C50.907 43.6524 50.2229 44.2463 49.744 44.6841C49.0655 45.3032 48.7177 45.7214 48.4697 46.6751C48.3272 47.2244 48.2816 48.0415 48.4213 48.6577C48.6949 49.8652 49.4275 50.618 50.4338 51.1646C50.5792 51.1339 53.1476 49.8038 53.2673 49.7006C52.5147 49.1373 51.2861 48.0331 52.0159 46.7755C52.6259 45.727 54.9264 45.4816 56.9075 45.3701C58.5609 45.2781 59.5957 45.2641 61.2062 44.7482C62.318 44.3941 63.2131 43.9117 64.0084 43.156C65.2056 42.0127 66.0922 39.7373 64.7695 38.0949C63.1931 36.1373 57.9366 36.4887 56.993 38.4713C56.4457 39.623 57.3779 40.2727 58.3756 40.3591L58.5922 40.3814C61.6623 40.7189 61.0979 38.7976 62.6344 39.6955C63.0819 41.5359 59.55 42.3585 56.6795 42.6875C54.9235 42.8883 53.7234 42.7517 52.0387 43.2899L52.033 43.2926Z" fill="#73C9F7"/>
<path fill-rule="evenodd" clip-rule="evenodd" d="M57.1754 46.1815C57.7199 47.336 58.5637 47.7292 57.2952 49.0453C55.371 51.0447 48.5181 50.9304 49.2108 55.4979C49.3249 56.2452 49.7553 56.9647 50.2399 57.3941C50.6675 57.7733 50.8955 57.8877 51.0751 57.8821C51.2034 57.8765 53.0392 56.9954 53.3015 56.881C53.0905 56.17 52.6601 56.0528 52.5831 55.3223C52.5147 54.6642 52.8055 53.9336 53.4183 53.4791C55.0289 52.2828 58.2245 52.0235 60.351 50.473C61.8419 49.3855 62.2324 47.1603 60.924 45.6629C59.7267 45.7744 58.424 46.0477 57.1726 46.1871L57.1754 46.1815Z" fill="#73C9F7"/>
<path fill-rule="evenodd" clip-rule="evenodd" d="M52.2867 38.4685C52.3038 38.7279 52.2325 38.8087 51.9788 38.7892C51.7194 38.7725 51.7052 38.6916 51.7137 38.5132C51.7337 38.0168 52.2696 38.1897 52.2867 38.4685ZM48.9173 44.5084C49.5615 43.4321 51.0011 42.9831 52.0729 42.484C50.7246 41.957 48.5581 42.0044 47.6145 40.8555C47.187 40.3368 47.0615 39.6258 47.9623 39.3079C49.4047 39.2633 48.9714 40.3062 50.6875 40.3173C51.2747 40.3285 51.1521 40.1082 51.4401 40.5153C51.574 40.7049 51.6054 41.1427 51.6425 41.4076C51.6539 41.0117 51.7593 40.7384 51.6082 40.3117C54.0626 39.9492 53.3642 37.9471 51.5028 37.1635C49.9093 36.4943 47.4977 36.6672 46.0667 37.4647C44.4732 38.3542 44.2138 40.0859 45.1944 41.904C45.7674 42.9664 47.6402 44.2575 48.9173 44.5084Z" fill="#73C9F7"/>
<path fill-rule="evenodd" clip-rule="evenodd" d="M50.4794 60.0265C50.2827 61.0136 50.716 62.405 51.5455 62.7871C52.2296 62.4078 52.6316 61.9505 53.3927 61.602C53.1447 60.6845 53.1646 60.1966 54.0084 59.6054C54.7496 59.0895 57.3066 58.5792 58.4297 58.0215C61.4713 56.5157 60.6617 53.5934 59.0739 51.9398L56.363 52.966C56.5055 53.8778 57.4918 54.8398 56.7906 55.8019C55.4679 57.6256 51.0181 57.3523 50.4822 60.0265H50.4794Z" fill="#73C9F7"/>
<path fill-rule="evenodd" clip-rule="evenodd" d="M51.3232 64.9063C51.3004 66.3034 52.6544 66.3675 53.7889 66.3647C53.8488 65.9269 53.9372 65.609 53.8973 65.5561C53.8431 65.4836 53.3756 65.4222 53.4953 64.8171C53.6436 64.0726 57.5147 63.3531 58.424 61.9979C59.0626 61.0471 58.8203 59.7392 58.6321 58.6685L56.5056 59.399C56.517 61.3175 56.2148 60.9745 54.2849 61.931C53.0706 62.5305 51.3488 63.3894 51.3232 64.9063Z" fill="#73C9F7"/>
<path fill-rule="evenodd" clip-rule="evenodd" d="M51.0495 68.2999C52.6515 68.1689 55.0517 67.6 56.554 66.7579C57.9679 65.966 58.5551 64.9593 58.1247 63.1384L56.2632 63.8774C56.2974 65.386 55.7245 66.1472 54.7154 66.6882C53.501 67.3407 52.3722 67.5164 51.0466 68.2999H51.0495Z" fill="#73C9F7"/>
<path fill-rule="evenodd" clip-rule="evenodd" d="M55.602 68.682C55.6248 68.2748 55.7844 67.8259 55.3939 67.7896L54.2992 68.1996C54.1938 68.7879 54.6727 74.0108 54.8038 74.5685C55.066 74.4737 55.1288 74.5741 55.1744 74.4765C55.3768 74.0554 55.5506 69.5074 55.5991 68.682H55.602Z" fill="#73C9F7"/>
<path fill-rule="evenodd" clip-rule="evenodd" d="M53.9229 48.3761L53.9543 49.4301C54.5529 49.5724 55.7046 49.3158 56.0153 48.892L56.0381 46.3126L53.9058 46.5078L53.9229 48.3733V48.3761Z" fill="#73C9F7"/>
<path fill-rule="evenodd" clip-rule="evenodd" d="M55.9326 55.8716C55.9554 55.1968 56.0267 53.9921 55.9326 53.1807C55.2998 53.1249 54.5814 53.5906 53.96 53.8165L53.9514 56.5325C54.7467 56.5129 55.2884 56.0919 55.9297 55.8744L55.9326 55.8716Z" fill="#73C9F7"/>
<path fill-rule="evenodd" clip-rule="evenodd" d="M58.2644 68.7461C58.672 68.866 59.1595 68.9162 59.5814 68.9246C58.9486 68.3334 57.5917 68.2665 57.4263 66.9782C56.8135 66.9643 56.5655 67.1567 56.212 67.4746C56.5769 68.0574 57.6173 68.5565 58.2644 68.7489V68.7461Z" fill="#73C9F7"/>
<path fill-rule="evenodd" clip-rule="evenodd" d="M54.1652 64.8338L54.1909 66.2114L55.7074 65.4389L55.753 64.1981C55.1686 64.3821 54.5842 64.6219 54.1624 64.8366L54.1652 64.8338Z" fill="#73C9F7"/>
<path fill-rule="evenodd" clip-rule="evenodd" d="M54.5102 61.1753C54.8579 60.9829 55.5079 60.6539 55.8842 60.4949L55.8614 59.6528C55.1801 59.6444 54.5957 59.9791 54.0626 60.2551L54.0797 61.1447L54.5102 61.1781V61.1753Z" fill="#73C9F7"/>
<path fill-rule="evenodd" clip-rule="evenodd" d="M36.9675 95.6357C37.6374 95.803 38.2161 95.9117 38.6151 95.9257C39.3421 93.2348 38.561 90.7614 37.5832 89.0799C36.6967 87.5518 34.4789 85.9958 32.9168 84.5848C30.26 82.1867 28.0964 80.3798 25.6392 77.8617C24.3137 76.5037 24.231 76.7129 23.9516 75.2433C23.5212 72.9902 23.2846 70.5782 22.78 68.3836C22.2612 66.1221 21.406 64.2092 20.9129 62.0732C20.5395 60.4615 20.4368 60.1826 21.0497 58.3673C21.4802 57.0957 21.9562 55.8883 22.361 54.5666C22.8599 52.9464 23.6381 47.0069 24.2167 46.2401C25.4568 46.1871 26.0639 47.3834 26.3433 48.3147C26.7253 49.5947 26.6084 50.2388 26.463 51.6331C26.2207 53.967 26.0012 56.7611 25.5793 59.0031C22.2527 59.6835 24.8553 64.3263 25.9784 66.6073C27.3296 69.3512 27.4123 69.0752 28.8119 71.2892C30.3256 73.6846 31.3746 76.8662 32.8085 78.2661C32.7229 77.792 31.5057 75.3632 31.1409 74.5936C30.3769 72.9874 29.2224 70.7064 28.1848 69.2871C27.3553 68.1494 25.9271 65.1183 25.3969 63.8662C25.0776 63.1105 23.7521 60.4559 25.1603 59.7309C26.3176 59.1341 28.7407 60.9104 29.3991 61.4737C31.3005 63.1078 32.6602 65.8991 33.9202 68.0741C37.8227 74.8083 40.8044 73.1603 47.643 78.439C49.9549 80.2236 51.9132 82.4572 52.7427 84.7605C53.2359 86.1324 53.5039 87.5044 53.3984 89.1886C53.0563 94.7155 52.204 95.9731 47.968 98.6947L47.3494 98.8062L46.1293 98.9456L45.334 98.901L44.7382 98.9289L40.8757 98.1648C40.4253 98.0756 40.411 98.1035 39.9806 97.8721C39.6385 97.688 39.8438 97.8358 39.5587 97.5988L38.4983 96.8013L37.8825 96.4248C37.6402 96.2045 37.3466 95.9787 37.0559 95.7835C37.0274 95.7333 36.9989 95.6831 36.9646 95.6357H36.9675ZM27.7258 59.4883C27.4123 59.2624 27.4864 59.452 27.4522 58.925C27.4436 58.7995 27.4693 58.5012 27.4892 58.3087C27.7771 55.2721 27.6346 51.5271 28.4727 48.4179C29.4875 48.8613 29.0029 49.3381 28.6979 51.067C28.524 52.0541 28.2817 53.0552 28.2133 54.0061L27.9482 58.8915C27.9311 59.0114 27.9111 59.0979 27.8741 59.2122C27.7971 59.4437 27.8256 59.3712 27.7287 59.4883H27.7258ZM26.1209 58.9055C26.0383 58.7326 26.0782 58.8609 26.0497 58.6071L26.9391 50.3308C27.1814 46.0449 25.0377 47.3443 26.3319 44.9936C26.6255 44.461 26.9334 43.9228 27.3239 43.5771C28.7007 43.6663 28.8832 45.3757 28.5297 46.6946C28.1192 48.2311 27.8541 49.3493 27.5577 50.9694C26.8022 55.1215 27.2384 56.4349 26.8621 59.1007L26.1209 58.9055Z" fill="#73C9F7"/>
<path fill-rule="evenodd" clip-rule="evenodd" d="M71.4427 96.8068C70.7472 96.924 70.1514 96.9881 69.7409 96.9714C69.2221 94.1801 70.2198 91.7234 71.3486 90.0893C72.3749 88.6058 74.758 87.1976 76.4626 85.8843C79.3617 83.6507 81.7106 81.9859 84.413 79.6157C85.8725 78.3386 85.938 78.5561 86.3428 77.0837C86.9643 74.8251 87.4033 72.3907 88.096 70.1989C88.8115 67.9375 89.8348 66.0608 90.5133 63.9276C91.0235 62.3186 91.1518 62.0426 90.6757 60.1464C90.3422 58.819 89.9574 57.5531 89.6524 56.1783C89.279 54.4913 88.9711 48.39 88.4466 47.5646C87.1895 47.4141 86.4768 48.5824 86.1148 49.5082C85.6216 50.7798 85.69 51.4462 85.7214 52.8767C85.7756 55.2693 85.7727 58.1275 86.015 60.442C89.3417 61.3928 86.3172 65.9102 84.9859 68.1438C83.3868 70.8291 83.324 70.5419 81.722 72.6835C79.986 75.0007 78.6576 78.1545 77.0869 79.4679C77.2123 78.9939 78.649 76.6153 79.0852 75.8652C79.9945 74.2925 81.3543 72.0616 82.5259 70.6981C83.4609 69.6078 85.1627 66.6352 85.8041 65.4055C86.1917 64.661 87.7567 62.0649 86.3827 61.2172C85.2539 60.52 82.6427 62.1346 81.9301 62.6588C79.8606 64.173 78.2528 66.9029 76.7905 69.0166C72.2722 75.5612 69.3732 73.6511 61.9873 78.4864C59.4901 80.1204 57.3151 82.2397 56.2832 84.5151C55.6675 85.8703 55.2855 87.2451 55.2541 88.9683C55.2 91.9911 55.8984 96.9463 58.8202 98.4353C59.1994 98.6277 59.664 98.809 59.9975 99.0599L60.619 99.2217L61.8476 99.4587L62.66 99.4754L63.2643 99.5507L67.2552 99.0739C67.7198 99.0181 67.7341 99.046 68.1902 98.8452C68.5551 98.6863 68.3299 98.8201 68.6434 98.6026L69.7865 97.8748L70.4422 97.5402C70.7073 97.3367 71.0237 97.1275 71.3344 96.9518C71.3686 96.9044 71.4 96.8542 71.437 96.8096L71.4427 96.8068ZM83.8001 60.7682C84.1365 60.5619 84.0452 60.7487 84.1251 60.2161C84.1422 60.0906 84.1422 59.7839 84.1393 59.5859C84.0937 56.4767 84.5441 52.6788 83.9483 49.4525C82.8822 49.8233 83.3354 50.3476 83.5036 52.1294C83.6005 53.1472 83.7659 54.1845 83.7545 55.1577L83.6234 60.1464C83.6319 60.2719 83.6433 60.3583 83.6747 60.4782C83.7345 60.718 83.7117 60.6427 83.8001 60.7682ZM85.4819 60.3025C85.5789 60.1324 85.5304 60.2579 85.5817 60.0042L85.3537 51.5187C85.4563 47.1408 87.5315 48.6298 86.4055 46.1369C86.1518 45.5736 85.881 44.9992 85.5133 44.6172C84.1051 44.6005 83.7801 46.3237 84.031 47.6957C84.3246 49.2907 84.5013 50.4479 84.6695 52.1183C85.0971 56.4014 84.547 57.7036 84.7123 60.4447L85.4819 60.3053V60.3025Z" fill="#73C9F7"/>
<path d="M150.938 95.9954V83.1264C151.066 83.132 151.171 83.1404 151.26 83.1487C151.342 83.1571 151.445 83.1655 151.556 83.1738C151.673 83.185 151.778 83.1906 151.881 83.1933C151.981 83.1933 152.066 83.1933 152.135 83.1933C152.2 83.1933 152.283 83.1933 152.383 83.1933C152.483 83.1906 152.591 83.1822 152.702 83.171C152.816 83.1599 152.91 83.1515 152.99 83.1459C153.07 83.1404 153.175 83.132 153.309 83.1264V84.6434C153.52 84.1163 153.831 83.7036 154.247 83.4025C154.663 83.1013 155.159 82.9507 155.735 82.9507C156.362 82.9507 156.901 83.0651 157.351 83.2882C157.805 83.5112 158.169 83.818 158.449 84.2056C158.731 84.596 158.936 85.0421 159.067 85.5496C159.201 86.0571 159.267 86.6037 159.267 87.1893C159.267 88.182 159.104 89.0213 158.774 89.7073C158.446 90.3905 158.013 90.898 157.471 91.227C156.927 91.5589 156.339 91.7234 155.701 91.7234C154.706 91.7234 153.939 91.3051 153.4 90.4686V95.9954C152.919 95.9368 152.508 95.9061 152.172 95.9061C151.833 95.9061 151.422 95.9368 150.943 95.9954H150.938ZM154.965 90.5912C155.518 90.5271 155.935 90.2176 156.211 89.6487C156.488 89.0855 156.624 88.3298 156.624 87.3817C156.624 85.1732 156.108 84.0689 155.074 84.0689C154.395 84.0689 153.936 84.4231 153.7 85.1286C153.463 85.8341 153.343 86.6148 153.343 87.4681C153.343 89.5484 153.885 90.5885 154.968 90.5885L154.965 90.5912ZM168.349 87.3482H163.073C163.073 88.3409 163.295 89.1301 163.745 89.7129C164.19 90.2957 164.854 90.5912 165.732 90.5912C166.08 90.5912 166.442 90.5187 166.821 90.3737C167.2 90.226 167.531 90.0391 167.813 89.8077L168.01 89.9666L167.636 90.9398C167.28 91.1824 166.875 91.372 166.422 91.5115C165.969 91.6537 165.521 91.7234 165.088 91.7234C164.364 91.7234 163.708 91.6202 163.13 91.4111C162.548 91.2047 162.058 90.9008 161.656 90.502C161.254 90.1033 160.949 89.6208 160.744 89.0548C160.538 88.4915 160.436 87.8529 160.436 87.1391C160.436 86.5312 160.53 85.9707 160.724 85.4548C160.917 84.939 161.197 84.4928 161.562 84.1219C161.924 83.7483 162.363 83.4582 162.879 83.2603C163.395 83.0595 163.973 82.9591 164.612 82.9591C167.103 82.9591 168.352 84.4231 168.352 87.3538L168.349 87.3482ZM163.073 86.5117H165.892C165.892 85.8452 165.792 85.2122 165.601 84.6183C165.407 84.0215 165.085 83.7232 164.626 83.7232C164.059 83.7232 163.671 84.0076 163.449 84.5792C163.232 85.1481 163.107 85.795 163.073 86.5117ZM176.459 85.2736V90.0503C176.459 90.3514 176.525 90.5606 176.653 90.6777C176.784 90.7976 177.026 90.8562 177.388 90.8562V91.2577C176.693 91.5672 176.151 91.7262 175.769 91.7262C175.364 91.7262 175.008 91.6118 174.7 91.386C174.392 91.1629 174.164 90.8478 174.019 90.4518C173.794 90.845 173.469 91.1545 173.052 91.386C172.633 91.6118 172.197 91.7262 171.736 91.7262C171.242 91.7262 170.806 91.6397 170.421 91.4641C170.039 91.2884 169.74 91.029 169.523 90.6833C169.31 90.3375 169.201 89.9192 169.201 89.4284C169.201 88.8903 169.315 88.4608 169.541 88.1318C169.763 87.8027 170.105 87.5378 170.561 87.3371C171.02 87.1335 171.644 86.9355 172.448 86.7431C173.05 86.5981 173.486 86.4447 173.748 86.2858C173.925 86.1269 174.013 85.8982 174.013 85.6082C174.013 85.1955 173.839 84.8386 173.486 84.529C173.135 84.2251 172.747 84.0689 172.32 84.0689C171.972 84.0689 171.639 84.1331 171.319 84.2613C171 84.3896 170.735 84.5402 170.521 84.7159C170.307 84.8915 170.182 85.0365 170.148 85.1509H170.025L169.794 84.1219C170.199 83.7427 170.698 83.4527 171.291 83.2519C171.884 83.0511 172.485 82.9535 173.087 82.9535C173.637 82.9535 174.167 83.0288 174.683 83.1822C175.196 83.3356 175.621 83.5865 175.957 83.9351C176.291 84.2809 176.456 84.7298 176.456 85.2736H176.459ZM174.016 88.709V87.0136C173.953 87.0387 173.779 87.0973 173.497 87.1893C173.212 87.2757 172.976 87.3649 172.782 87.4458C172.588 87.5239 172.414 87.6271 172.251 87.747C171.872 88.0342 171.681 88.5222 171.681 89.2165C171.681 89.5902 171.755 89.9136 171.907 90.1841C172.058 90.4546 172.306 90.5912 172.642 90.5912C173.503 90.5912 173.962 89.9638 174.016 88.709ZM178.258 87.5239C178.258 85.8145 178.377 84.4565 178.611 83.4499C178.848 82.4432 179.267 81.6625 179.871 81.1048C180.478 80.5471 181.325 80.1567 182.414 79.9392C183.503 79.7189 184.982 79.6073 186.847 79.6073C186.829 79.6743 186.807 79.783 186.781 79.928C186.755 80.073 186.741 80.2096 186.741 80.3407C186.741 80.4606 186.752 80.5972 186.781 80.7534C186.807 80.9096 186.829 81.0267 186.847 81.1075C186.134 80.957 185.264 80.8817 184.244 80.8817C183.175 80.8817 182.303 81.0211 181.63 81.3027C180.957 81.5844 180.47 81.958 180.168 82.4237C179.871 82.8894 179.72 83.4081 179.72 83.9881C180.091 83.6646 180.544 83.4164 181.074 83.2324C181.607 83.0483 182.16 82.9563 182.75 82.9563C183.645 82.9563 184.441 83.1236 185.133 83.461C185.823 83.7957 186.359 84.2809 186.741 84.9139C187.123 85.5468 187.314 86.2886 187.314 87.1391C187.314 88.0202 187.126 88.8066 186.75 89.5037C186.373 90.2009 185.837 90.7446 185.148 91.1378C184.455 91.531 183.657 91.7234 182.75 91.7234C181.878 91.7234 181.1 91.5533 180.418 91.2103C179.734 90.8701 179.207 90.3793 178.825 89.7435C178.449 89.1078 178.258 88.366 178.258 87.5239ZM182.876 83.7232C182.192 83.7232 181.69 84.0661 181.373 84.7549C181.054 85.4437 180.897 86.3499 180.897 87.4709C180.897 87.9366 180.952 88.4357 181.054 88.9711C181.162 89.5037 181.351 89.9638 181.627 90.357C181.904 90.7474 182.274 90.9398 182.75 90.9398C183.386 90.9398 183.868 90.5299 184.193 89.7101C184.518 88.8903 184.677 87.931 184.677 86.8407C184.677 85.9456 184.52 85.2011 184.207 84.6071C183.893 84.0132 183.449 83.7176 182.876 83.7176V83.7232ZM191.037 83.1292V88.4302C192.106 87.1112 193.317 85.3433 194.674 83.1292C194.731 83.1292 194.868 83.1376 195.082 83.1543C195.299 83.171 195.472 83.1794 195.604 83.1794C195.806 83.1794 196.102 83.1627 196.496 83.1264V91.5477C196.37 91.5421 196.168 91.5282 195.894 91.5087C195.618 91.4891 195.407 91.4808 195.264 91.4808C194.991 91.4808 194.583 91.5031 194.039 91.5505V86.1798C192.702 87.8501 191.49 89.6404 190.401 91.5505C190.344 91.5505 190.213 91.5393 190.008 91.517C189.805 91.4947 189.64 91.4836 189.509 91.4836C189.386 91.4836 189.201 91.4947 188.953 91.517C188.708 91.5393 188.583 91.5505 188.583 91.5505V83.1292C189.133 83.1766 189.543 83.1989 189.811 83.1989C190.108 83.1989 190.518 83.1766 191.04 83.1292H191.037ZM203.226 91.5505L201.211 85.519C201.025 86.0125 200.834 86.5312 200.629 87.0666C200.427 87.6076 200.242 88.1123 200.068 88.5891C199.894 89.0659 199.717 89.5651 199.535 90.0949C199.355 90.6247 199.193 91.1099 199.053 91.5505C198.722 91.5282 198.48 91.517 198.326 91.517C198.172 91.517 197.941 91.5282 197.63 91.5505C197.63 91.478 197.67 91.3441 197.753 91.1489C198.049 90.555 198.352 89.8746 198.662 89.1078C198.936 88.4553 199.173 87.8864 199.375 87.3984C199.58 86.9104 199.768 86.4392 199.951 85.9874C200.13 85.5329 200.31 85.0784 200.484 84.6155C200.655 84.1526 200.829 83.659 201 83.1264C201.011 83.1264 201.102 83.1348 201.271 83.1487C201.439 83.1655 201.564 83.1766 201.641 83.1822C201.718 83.1906 201.807 83.1933 201.909 83.1933C201.958 83.1933 202.023 83.1906 202.1 83.1878C202.174 83.1822 202.257 83.1766 202.348 83.1682C202.437 83.1599 202.511 83.1515 202.576 83.1459C202.639 83.1376 202.722 83.132 202.819 83.1264C203.5 85.0505 204.064 86.6121 204.506 87.8083C204.945 89.0046 205.43 90.251 205.957 91.5477C205.797 91.5421 205.569 91.5282 205.267 91.5087C204.968 91.4891 204.737 91.4808 204.58 91.4808C204.426 91.4808 204.201 91.4891 203.893 91.5087C203.591 91.5282 203.372 91.5421 203.226 91.5477V91.5505ZM209.517 83.1292V88.4302C210.586 87.1112 211.798 85.3433 213.155 83.1292C213.212 83.1292 213.349 83.1376 213.562 83.1543C213.779 83.171 213.953 83.1794 214.084 83.1794C214.286 83.1794 214.583 83.1627 214.976 83.1264V91.5477C214.851 91.5421 214.649 91.5282 214.375 91.5087C214.098 91.4891 213.887 91.4808 213.745 91.4808C213.471 91.4808 213.064 91.5031 212.519 91.5505V86.1798C211.182 87.8501 209.971 89.6404 208.882 91.5505C208.825 91.5505 208.694 91.5393 208.488 91.517C208.286 91.4947 208.121 91.4836 207.989 91.4836C207.867 91.4836 207.682 91.4947 207.434 91.517C207.188 91.5393 207.063 91.5505 207.063 91.5505V83.1292C207.613 83.1766 208.024 83.1989 208.292 83.1989C208.588 83.1989 208.999 83.1766 209.52 83.1292H209.517ZM223.899 84.2948C223.845 84.2892 223.636 84.2697 223.274 84.2335C222.91 84.2 222.587 84.1749 222.311 84.161C222.034 84.1498 221.65 84.1442 221.154 84.1442V91.5505C221.017 91.5505 220.812 91.5393 220.538 91.517C220.267 91.4947 220.059 91.4836 219.919 91.4836C219.782 91.4836 219.577 91.4947 219.306 91.517C219.033 91.5393 218.827 91.5505 218.691 91.5505V84.1442C218.198 84.1442 217.816 84.1498 217.542 84.161C217.271 84.1749 216.955 84.2 216.587 84.2335C216.225 84.2669 216.017 84.2892 215.963 84.2948C215.963 84.2446 215.977 84.1498 216.008 84.0104C216.034 83.8709 216.051 83.7706 216.051 83.7064C216.051 83.6395 216.037 83.5447 216.008 83.4136C215.98 83.2826 215.963 83.1878 215.963 83.132H219.916H223.893C223.893 83.1989 223.879 83.2965 223.845 83.422C223.816 83.5475 223.799 83.6395 223.799 83.7064C223.799 83.7706 223.813 83.8682 223.845 83.9992C223.879 84.1303 223.893 84.2279 223.893 84.2948H223.899ZM231.584 85.2736V90.0503C231.584 90.3514 231.65 90.5606 231.778 90.6777C231.909 90.7976 232.151 90.8562 232.513 90.8562V91.2577C231.818 91.5672 231.276 91.7262 230.894 91.7262C230.489 91.7262 230.133 91.6118 229.825 91.386C229.517 91.1629 229.289 90.8478 229.144 90.4518C228.919 90.845 228.594 91.1545 228.177 91.386C227.758 91.6118 227.322 91.7262 226.861 91.7262C226.367 91.7262 225.931 91.6397 225.546 91.4641C225.164 91.2884 224.865 91.029 224.648 90.6833C224.435 90.3375 224.326 89.9192 224.326 89.4284C224.326 88.8903 224.44 88.4608 224.666 88.1318C224.888 87.8027 225.23 87.5378 225.686 87.3371C226.145 87.1335 226.769 86.9355 227.573 86.7431C228.175 86.5981 228.611 86.4447 228.873 86.2858C229.05 86.1269 229.138 85.8982 229.138 85.6082C229.138 85.1955 228.964 84.8386 228.611 84.529C228.26 84.2251 227.872 84.0689 227.445 84.0689C227.097 84.0689 226.764 84.1331 226.444 84.2613C226.125 84.3896 225.86 84.5402 225.646 84.7159C225.432 84.8915 225.307 85.0365 225.273 85.1509H225.15L224.919 84.1219C225.324 83.7427 225.823 83.4527 226.416 83.2519C227.009 83.0511 227.61 82.9535 228.212 82.9535C228.762 82.9535 229.292 83.0288 229.808 83.1822C230.321 83.3356 230.746 83.5865 231.082 83.9351C231.416 84.2809 231.581 84.7298 231.581 85.2736H231.584ZM229.141 88.709V87.0136C229.078 87.0387 228.904 87.0973 228.622 87.1893C228.337 87.2757 228.101 87.3649 227.907 87.4458C227.713 87.5239 227.539 87.6271 227.376 87.747C226.997 88.0342 226.806 88.5222 226.806 89.2165C226.806 89.5902 226.88 89.9136 227.032 90.1841C227.183 90.4546 227.431 90.5912 227.767 90.5912C228.628 90.5912 229.087 89.9638 229.141 88.709ZM241.706 83.1292V90.4713H242.616C242.556 90.6749 242.525 90.9287 242.525 91.2242C242.525 91.531 242.559 91.7847 242.616 91.9883H242.439C242.225 91.7596 241.892 91.6146 241.441 91.5644C240.988 91.5087 240.247 91.4836 239.215 91.4836C237.368 91.4836 236.094 91.4864 235.39 91.4919C234.683 91.5003 234.149 91.5198 233.793 91.5505V83.132C234.07 83.1794 234.48 83.2017 235.022 83.2017C235.629 83.2017 236.037 83.1794 236.25 83.132V90.4741H239.246V83.132C239.566 83.1794 239.97 83.2017 240.472 83.2017C240.96 83.2017 241.373 83.1794 241.706 83.132V83.1292ZM246.159 83.1292V88.4302C247.228 87.1112 248.44 85.3433 249.796 83.1292C249.853 83.1292 249.99 83.1376 250.204 83.1543C250.421 83.171 250.595 83.1794 250.726 83.1794C250.928 83.1794 251.225 83.1627 251.618 83.1264V91.5477C251.493 91.5421 251.29 91.5282 251.017 91.5087C250.74 91.4891 250.529 91.4808 250.387 91.4808C250.113 91.4808 249.705 91.5031 249.161 91.5505V86.1798C247.824 87.8501 246.612 89.6404 245.523 91.5505C245.466 91.5505 245.335 91.5393 245.13 91.517C244.928 91.4947 244.762 91.4836 244.631 91.4836C244.509 91.4836 244.323 91.4947 244.075 91.517C243.83 91.5393 243.705 91.5505 243.705 91.5505V83.1292C244.255 83.1766 244.665 83.1989 244.933 83.1989C245.23 83.1989 245.64 83.1766 246.162 83.1292H246.159ZM257.69 91.7262C256.817 91.7262 256.039 91.5561 255.358 91.2131C254.674 90.8729 254.146 90.3821 253.765 89.7463C253.388 89.1106 253.197 88.3688 253.197 87.5267C253.197 86.8491 253.303 86.2272 253.517 85.6612C253.727 85.0979 254.032 84.6127 254.432 84.2084C254.825 83.804 255.301 83.4945 255.851 83.2826C256.404 83.0679 257.017 82.9591 257.69 82.9591C258.585 82.9591 259.38 83.1264 260.07 83.4638C260.763 83.7984 261.299 84.2836 261.681 84.9166C262.063 85.5496 262.254 86.2914 262.254 87.1419C262.254 88.023 262.065 88.8094 261.689 89.5065C261.313 90.2037 260.777 90.7474 260.087 91.1406C259.394 91.5338 258.596 91.7262 257.69 91.7262ZM257.815 83.7232C257.131 83.7232 256.629 84.0661 256.313 84.7549C255.994 85.4437 255.837 86.3499 255.837 87.4709C255.837 87.9366 255.891 88.4357 255.994 88.9711C256.102 89.5037 256.29 89.9638 256.567 90.357C256.843 90.7474 257.214 90.9398 257.69 90.9398C258.325 90.9231 258.807 90.5076 259.132 89.6961C259.457 88.8819 259.617 87.9282 259.617 86.8435C259.617 85.9484 259.46 85.2039 259.146 84.6099C258.833 84.016 258.388 83.7204 257.815 83.7204V83.7232ZM266.299 83.1292V86.5981H269.295V83.1292C269.816 83.1766 270.227 83.1989 270.52 83.1989C270.82 83.1989 271.23 83.1766 271.755 83.1292V91.5505C271.629 91.5449 271.427 91.531 271.153 91.5115C270.877 91.4919 270.666 91.4836 270.523 91.4836C270.25 91.4836 269.842 91.5059 269.297 91.5533V87.6661H266.301V91.5533C266.159 91.5477 265.954 91.5338 265.683 91.5142C265.409 91.4947 265.207 91.4864 265.07 91.4864C264.799 91.4864 264.389 91.5087 263.841 91.5561V83.1348C264.392 83.1822 264.802 83.2045 265.07 83.2045C265.366 83.2045 265.777 83.1822 266.299 83.1348V83.1292ZM276.207 83.1292V86.5981H279.203V83.1292C279.725 83.1766 280.135 83.1989 280.429 83.1989C280.728 83.1989 281.139 83.1766 281.663 83.1292V91.5505C281.538 91.5449 281.336 91.531 281.062 91.5115C280.785 91.4919 280.574 91.4836 280.432 91.4836C280.158 91.4836 279.751 91.5059 279.206 91.5533V87.6661H276.21V91.5533C276.068 91.5477 275.862 91.5338 275.592 91.5142C275.318 91.4947 275.116 91.4864 274.979 91.4864C274.708 91.4864 274.297 91.5087 273.75 91.5561V83.1348C274.3 83.1822 274.711 83.2045 274.979 83.2045C275.275 83.2045 275.686 83.1822 276.207 83.1348V83.1292ZM291.749 91.5477V83.1292C291.883 83.1348 291.991 83.1404 292.079 83.1487C292.168 83.1543 292.273 83.1627 292.393 83.171C292.516 83.1794 292.627 83.185 292.729 83.1878C292.829 83.1933 292.915 83.1961 292.983 83.1961C293.049 83.1961 293.137 83.1933 293.245 83.1878C293.348 83.185 293.459 83.1794 293.579 83.1682C293.696 83.1599 293.796 83.1515 293.878 83.1459C293.961 83.1404 294.072 83.1348 294.212 83.1292V91.5477C294.075 91.5421 293.87 91.531 293.596 91.5087C293.325 91.4891 293.12 91.4808 292.983 91.4808C292.843 91.4808 292.635 91.4891 292.365 91.5087C292.091 91.5282 291.886 91.5393 291.749 91.5477ZM286.116 87.3649V90.7474H286.398C286.834 90.7474 287.225 90.6024 287.567 90.3124C287.909 90.0224 288.077 89.6097 288.077 89.0771C288.077 88.4804 287.926 88.0453 287.624 87.7749C287.325 87.5016 286.931 87.3649 286.45 87.3649H286.113H286.116ZM287.507 91.4808H283.656V83.1292C283.818 83.1376 284.038 83.1487 284.314 83.1599C284.591 83.1738 284.788 83.1794 284.902 83.1794C285.016 83.1794 285.204 83.1738 285.475 83.1599C285.745 83.1487 285.956 83.1376 286.113 83.1292V86.6678H287.664C288.533 86.6678 289.243 86.8714 289.796 87.2813C290.346 87.6912 290.623 88.2879 290.623 89.0743C290.623 89.5456 290.475 89.9638 290.181 90.3291C289.885 90.6944 289.497 90.9816 289.018 91.1796C288.542 91.3804 288.037 91.478 287.504 91.478L287.507 91.4808ZM298.667 83.1292V88.4302C299.736 87.1112 300.948 85.3433 302.305 83.1292C302.362 83.1292 302.498 83.1376 302.712 83.1515C302.929 83.1682 303.103 83.1766 303.234 83.1766C303.436 83.1766 303.733 83.1599 304.126 83.1264V91.5477C304.001 91.5421 303.798 91.5282 303.525 91.5087C303.248 91.4891 303.037 91.4808 302.895 91.4808C302.621 91.4808 302.213 91.5031 301.669 91.5505V86.1798C300.332 87.8501 299.12 89.6404 298.032 91.5505C297.975 91.5505 297.843 91.5393 297.638 91.517C297.436 91.4947 297.27 91.4836 297.139 91.4836C297.017 91.4836 296.831 91.4947 296.583 91.517C296.338 91.5393 296.213 91.5505 296.213 91.5505V83.1292C296.763 83.1738 297.174 83.1961 297.441 83.1961C297.738 83.1961 298.148 83.1738 298.67 83.1292H298.667ZM296.563 80.8649L297.148 80.0953C298.083 80.9542 299.075 81.3864 300.124 81.3864C301.184 81.3864 302.205 80.957 303.191 80.0953L303.761 80.8454C303.257 81.3251 302.689 81.6931 302.057 81.9469C301.424 82.2006 300.774 82.3261 300.107 82.3261C299.471 82.3261 298.847 82.2034 298.24 81.958C297.627 81.7154 297.068 81.3501 296.561 80.8649H296.563ZM322.94 83.1292V90.4713H323.849C323.79 90.6749 323.758 90.9287 323.758 91.2242C323.758 91.531 323.792 91.7847 323.849 91.9883H323.673C323.459 91.7596 323.125 91.6146 322.675 91.5644C322.222 91.5087 321.481 91.4836 320.449 91.4836C318.602 91.4836 317.327 91.4864 316.623 91.4919C315.916 91.5003 315.383 91.5198 315.027 91.5505V83.132C315.303 83.1794 315.714 83.2017 316.255 83.2017C316.863 83.2017 317.27 83.1794 317.484 83.132V90.4741H320.48V83.132C320.799 83.1794 321.204 83.2017 321.706 83.2017C322.193 83.2017 322.607 83.1794 322.94 83.132V83.1292ZM332.438 87.3482H327.162C327.162 88.3409 327.384 89.1301 327.835 89.7129C328.279 90.2957 328.943 90.5912 329.821 90.5912C330.169 90.5912 330.531 90.5187 330.91 90.3737C331.29 90.226 331.62 90.0391 331.902 89.8077L332.099 89.9666L331.726 90.9398C331.369 91.1824 330.965 91.372 330.511 91.5115C330.058 91.6537 329.611 91.7234 329.177 91.7234C328.453 91.7234 327.798 91.6202 327.219 91.4111C326.637 91.2047 326.147 90.9008 325.745 90.502C325.343 90.1033 325.038 89.6208 324.833 89.0548C324.628 88.4915 324.525 87.8529 324.525 87.1391C324.525 86.5312 324.619 85.9707 324.813 85.4548C325.007 84.939 325.286 84.4928 325.651 84.1219C326.013 83.7483 326.452 83.4582 326.968 83.2603C327.484 83.0595 328.063 82.9591 328.701 82.9591C331.193 82.9591 332.441 84.4231 332.441 87.3538L332.438 87.3482ZM327.162 86.5117H329.981C329.981 85.8452 329.881 85.2122 329.69 84.6183C329.497 84.0215 329.174 83.7232 328.715 83.7232C328.148 83.7232 327.76 84.0076 327.538 84.5792C327.322 85.1481 327.196 85.795 327.162 86.5117ZM336.307 83.1292V86.5981H339.303V83.1292C339.824 83.1766 340.235 83.1989 340.528 83.1989C340.828 83.1989 341.238 83.1766 341.763 83.1292V91.5505C341.637 91.5449 341.435 91.531 341.161 91.5115C340.885 91.4919 340.674 91.4836 340.531 91.4836C340.258 91.4836 339.85 91.5059 339.305 91.5533V87.6661H336.309V91.5533C336.167 91.5477 335.962 91.5338 335.691 91.5142C335.417 91.4947 335.215 91.4864 335.078 91.4864C334.807 91.4864 334.397 91.5087 333.849 91.5561V83.1348C334.4 83.1822 334.81 83.2045 335.078 83.2045C335.374 83.2045 335.785 83.1822 336.307 83.1348V83.1292ZM350.688 84.2948C350.634 84.2892 350.426 84.2697 350.064 84.2335C349.699 84.2 349.377 84.1749 349.1 84.161C348.824 84.1498 348.439 84.1442 347.943 84.1442V91.5505C347.806 91.5505 347.601 91.5393 347.327 91.517C347.056 91.4947 346.848 91.4836 346.708 91.4836C346.572 91.4836 346.366 91.4947 346.096 91.517C345.822 91.5393 345.617 91.5505 345.48 91.5505V84.1442C344.987 84.1442 344.605 84.1498 344.331 84.161C344.06 84.1749 343.744 84.2 343.376 84.2335C343.014 84.2669 342.806 84.2892 342.752 84.2948C342.752 84.2446 342.766 84.1498 342.797 84.0104C342.823 83.8709 342.84 83.7706 342.84 83.7064C342.84 83.6395 342.826 83.5447 342.797 83.4136C342.769 83.2826 342.752 83.1878 342.752 83.132H346.706H350.682C350.682 83.1989 350.668 83.2965 350.634 83.422C350.605 83.5475 350.588 83.6395 350.588 83.7064C350.588 83.7706 350.602 83.8682 350.634 83.9992C350.668 84.1303 350.682 84.2279 350.682 84.2948H350.688ZM351.671 95.9982V83.1292C351.8 83.1348 351.905 83.1432 351.993 83.1515C352.076 83.1599 352.179 83.1682 352.29 83.1766C352.407 83.1878 352.512 83.1933 352.615 83.1961C352.715 83.1961 352.8 83.1961 352.869 83.1961C352.934 83.1961 353.017 83.1961 353.117 83.1961C353.216 83.1933 353.325 83.185 353.436 83.1738C353.55 83.1627 353.644 83.1543 353.724 83.1487C353.804 83.1431 353.909 83.1348 354.043 83.1292V84.6462C354.254 84.1191 354.565 83.7064 354.981 83.4053C355.397 83.1041 355.893 82.9535 356.469 82.9535C357.096 82.9535 357.635 83.0679 358.085 83.2909C358.538 83.514 358.903 83.8208 359.183 84.2084C359.465 84.5988 359.67 85.0449 359.801 85.5524C359.935 86.0599 360.001 86.6065 360.001 87.1921C360.001 88.1848 359.838 89.0241 359.508 89.7101C359.18 90.3933 358.747 90.9008 358.205 91.2298C357.66 91.5617 357.073 91.7262 356.435 91.7262C355.44 91.7262 354.673 91.3079 354.134 90.4713V95.9982C353.653 95.9396 353.242 95.9089 352.906 95.9089C352.566 95.9089 352.156 95.9396 351.677 95.9982H351.671ZM355.699 90.594C356.252 90.5299 356.668 90.2204 356.945 89.6515C357.221 89.0882 357.358 88.3326 357.358 87.3845C357.358 85.176 356.842 84.0717 355.808 84.0717C355.129 84.0717 354.67 84.4259 354.434 85.1314C354.197 85.8369 354.077 86.6176 354.077 87.4709C354.077 89.5511 354.619 90.5912 355.702 90.5912L355.699 90.594Z" fill="#73C9F7"/>
</svg>
